<mxfile host="app.diagrams.net" modified="2022-08-02T07:40:13.335Z" agent="5.0 (Windows NT 10.0; Win64; x64) AppleWebKit/537.36 (KHTML, like Gecko) Chrome/103.0.0.0 Safari/537.36" etag="8dKYHBhbqcFbs-tVBZEQ" version="20.2.2" type="github">
  <diagram id="UG53F8In3f3kgxmY-aT7" name="第 1 页">
    <mxGraphModel dx="1250" dy="695" grid="1" gridSize="10" guides="1" tooltips="1" connect="1" arrows="1" fold="1" page="1" pageScale="1" pageWidth="827" pageHeight="1169" math="0" shadow="0">
      <root>
        <mxCell id="0" />
        <mxCell id="1" parent="0" />
        <mxCell id="q1YRPrVaIvEet2UCZBo6-2" value="" style="shape=image;verticalLabelPosition=bottom;labelBackgroundColor=default;verticalAlign=top;aspect=fixed;imageAspect=0;image=data:image/png,iVBORw0KGgoAAAANSUhEUgAABUMAAAJeCAYAAACeShRdAAAgAElEQVR4nOzdd3hUZf7+8XtmUkgooRMCoVdD6DVAaNKbLKtIFVFUwLb2n7i48hVXFDvYUBYBZVEREUEg9Kb03lFKBEJPAiQkZGZ+f2RnJGQmjclMMvN+XRfXmvM858xnzpSFO08xXL123SoAAAAAAAAA8HJGTxcAAAAAAAAAAO5AGAoAAAAAAADAJxCGAgAAAAAAAPAJhKEAAAAAAAAAfAJhKAAAAAAAAACfQBgKAAAAAAAAwCcQhgIAAAAAAADwCYShAAAAAAAAAHwCYSgAAAAAAAAAn0AYCgAAAAAAAMAnEIYCAAAAAAAA8AmEoQAAAAAAAAB8AmEoAAAAAAAAAJ9AGAoAAAAAAADAJxCGAgAAAAAAAPAJhKEAAAAAAAAAfAJhKAAAAAAAAACfQBgKAAAAAAAAwCcQhgIAAAAAAADwCYShAAAAAAAAAHwCYSgAAAAAAAAAn0AYCgAAAAAAAMAnEIYCAAAAAAAA8AmEoQAAAAAAAAB8AmEoAAAAAAAAAJ9AGAoAAAAAAADAJxCGAgAAAAAAAPAJhKEAAAAAAAAAfAJhKAAAAAAAAACfQBgKAAAAAAAAwCcQhgIAAAAAAADwCYShAAAAAAAAAHwCYSgAAAAAAAAAn0AYCgAAAAAAAMAnEIYCAAAAAAAA8AmEoQAAAAAAAAB8AmEoAAAAAAAAAJ9AGAoAAAAAAADAJxCGAgAAAAAAAPAJhKEAAAAAAAAAfAJhKAAAAAAAAACfQBgKAAAAAAAAwCf4eboAAADgOhaLRTdv3pTFbPZ0Kcgho8kkf39/GY38jhoAAADIb4ShAAB4AbPZrKTr15WamuLpUpBHAQGBCi5aVCaTydOlAAAAAF7LcPXadauniwAAAHmXkpKia1cTPV0GXKRY8RIKDAz0dBkAAACAV2I+FgAAhdjN1FSCUC9z7WqibqameroMAAAAwCsRhgIAUIhdu37N0yUgH/C6AgAAAPmDMBQAgELqxo1kNkryUhazWTduJHu6DAAAAMDrEIYCAFBIpaawWZI34/UFAAAAXI8wFACAQiotLc3TJSAf8foCAAAArkcYCgBAIWW1Wj1dAvIRry8AAADgeoShAAAAAAAAAHwCYSgAAAAAAAAAn0AYCgAAAAAAAMAn+Hm6AAAAAMDVrFarLBaLxNqrGRkMMhqNMhgMnq4EAADAIwhDAQAA4DWsVqvMaWmyWMyeLqXAMksyGk0y+fkRigIAAJ9DGAoAAACvYDabZU676ekyCgWLxSxLqlkmP3+ZTCZPlwMAAOA2rBkKAACAQs9qsRCE5oE57aasFounywAAAHAbwlAAAAAUemnmNE+XUGhx7wAAgC8hDAUAAEChZjanMbrxDlgtFpkJRAEAgI8gDAUAAEChRhB657iHAADAVxCGAgAAoFCzEOTdMe4hAADwFYShAACg0LFarYo7d15btu+Q2ZyzEMdstujYH8e1a88+xSck5nOFAAAAAAoiwlAAAFDonDt/Qa+//Y6mfvalTv35Z47OSUtL048/L9FTL76s2D9P53OFAAAAAAoiP08XAAAACrfU1FTN/u93OnD4sMuvHdWqpQb265PpeIXy5dShXVtN/ewLrV63XlWGDJbJxO94AQAAAGSNMBQAANwRq1W6Eh+vbTt2ufzaDSMiHB43GAxq17qVVq5ZpzXrN6lTdHtVr1rF5Y8PAAAAwLsQhgIAAJeoWb26Xnv5BYVXrnTH19q7/6Aef+7FLPuEViivztHtNWPON9q+azdhKPJNSkqqpnw4VU0aRapXt64O+8QnJGj8xEka/cAINW7YIMfXPnkqVi9OmKgRQ+5zeu2sHq93964ZzrPVWr5cOY0eOVzTZ87Wrr17NWnCeJUMCcnx9QEAALwVYSgAACiUDAaDOndor+i2bVShfDlPl4MCxhYW/rp5a67PbdOqRYbwMDAwQE0aRWrxshhFtWpZIELFTZu3SEpfSiIro0cO1649+9S59z2a8fFHuQpqAQAAvBFhKAAAcCmr1Sqr1SqjMeMangcOHVZYxVCnQVKa2awrV+JVpnQph+1nzsZp+sxZSrx2LdsanK01apPVqNNRw4fqgSGDsn0MFA65DQB37dmn6V/NynQ8ol49zfrmW504GavGDT0bhsYnJGjxshiNfmBEps9TYGCAypfL+MuBxg0baMeG1e4sEQAAoMAiDAUAAC5z/OQpffzFDHWKbq+unTrIYDBIkq5eu6Zvvpuv5OQbevm5fzgMPGP/PK1XJ01W08YN1bZ15tFuZrNZJ2NP6/fjx7Otw9lao0BeVa0Sri4do7V1x06Pj678bsFPCgsNVf26dXTyVKx+/HmJHnvoQQUGBtj7JCUladLb72r+wkUZzh3z8CiNHjnc3SUDAAAUGIShAADAZcqWKa3AgED98NPPql+3jsIrhUmSTpyM1badu3XfgH5KvpGsjz6br3v69LK3W61Wbd2+UydjY/XwA8NUJLBIpmuHV66kGR9/4JI6p06ZrMiI+i65Fgq2rTt2auuOnfYA0LZG50vPPJUh1Ny1Z5/efPcD3Tugn/2Ys6n2n3wxQ5LjUaejxj6RqQZXTk8/eSpWO/fs0YtPP6nAwAAtX7VGkvTAo+N05NixDH3HPDyKEaEAAAC3IQwFAAAuU7xYMfXr3UOvv/WOFv2yVKMfGC6j0aStO3YoOKiIolq11OXLV7R63XqZTEaNfmC4/P39dflKvDZv267mTRoron49nTkb5/QxLBaLzGaz/P39Mxw/d/6Czl+4qBrVqqpo0eD8fqooJCIj6mvlmnXatWefGjdsoP2HDikyor5+P35cZ+LO2jcf2rpjpyIj6qtSWEX7uSVDQjTtnbdy9Xj5uS5nSkqq5sz7Tn16dFPVKuE6eSpWf5w4oRf/8aSeGvuovd+S5THauXuvRgxmuQcAAIDbGbPvAgAAkHORd9XX3Z06aMXqtdp74KDOX7igLdt3qkWzpqpaJVz169bJ0C5J+w8e0radu9SxfVuVLlXS6bV/P35Co8Y+qbnf/yCr1Zqhbc/+/Xr8uRc1/6dFmdrgu4oEFlHv7t00/atZOnfhgnbu3qsmjSLVvElj/bx0uU6eilV8QoJ27d2r3t27ZRqVvGvPPo179gXFJyTYj02fOVuT3n5XKSmpLqvzlYlvqGm7Tg7/TJ85W5KUfCNZZ+Li7H0HDBmhQX8bUCA2dAIAACgsGBkKAABcyt/fX317dNe2Hbv1/Y+LFF4pTAcPH9GQewcqqEh60GRr/2nxUlUOq6iNv21W/bp11LxJY/s6o46UKV1a5cqW1e9/nFBSUrJ9BKjVatXpM2clSTWqV8vyGvA9jRs2UOPISPUccJ/q1KqlYYPuVdUq4erTo5vmzPtO9erUtq/BefDwkQznlioZokuXrtg3TkpJSdX5CxfUpFFkhjU679TrE162j1J15taRqkuWx+j0mTiHo1DDQivqlYlvZFovVJLq1KqlyRMnqGqVcNcUDgAAUMgQhgIAAJerXClMPbt10dTPvpAktY9qrSaNIh2230xL0/ZduzV80L2ZdsG+XfFixVS7Vg2t27BJ586fV43q1SRJN27c0JmzcapZvZqqVKqUf08MBUryjRv2gD073Tp31Mo169SlY7Q9CIxq1VKLl8Vo/sJFmvHxRw7DzdAKFRQZUV9n4s6qccMGSr6RrGvXryuiXj2XPpfciE9I0M7dezXukYfsPzta25TNkgAAADIjDAUAoABITk7WlSvxuhQfrytXrujK5Su6HB+vS5cv6fyFS7pw8cL//veiHhg6WOMeedjTJWfJYDCoS4f22r5zl37dsk0d2kWpeLFiGdo7tmurjb9t1oZff1PN6tUV3baNTKasV/AxmYyqXrWKvp73vX4/ccIehiZevabTZ+MUXqmSypQuLavVqqSkZKWZ0+znpqbeVFqaWVL6dOOExMQM1zYajQoKCpKfyeSq23DHpn3+hT6Z/qWnyyiwxox+KMefhSvxCTpy7JgiI+orJSVVgYEBKhkSot7du+rSpSsqVdLxVPPAwACVL1dOp8+kr2N74mSsEq9eVUhICe3asy/Thkm3B5L5sYbodwt+Uu/u3ezT429f29QWjrZo2sSljwsAAOANCEMBAHCz+IQEHT56TPv3H9Tu/fu0b/8BnTt/wdNluVxq6k1du35dUnqAlGY2Zwgay5Uto26dO2nn7r1qFBmh0Arlc3TdKpUrq0zpUjp+8pTMZotMJqPOX7io34+fUKvmTRUcHKTU1Jv65Mv/aNEvyxxe4/lX/pXpWM3q1fXayy8ovDIjS71NSkqqFi9broH9++pMXJxWrl2rXt26Kj4hQYuXxejIsWNavmqN01GUlcJCtXhZjOITEtJHiEZG/i+IjFWbVi00acL4TOt22gJJV1uyPEaffDFDn9xy7PYRoEFFghQWGmofzWo7b/GyGIe1AgAA+BLCUAAA8tH160k6dPSIDh0+qkNHjmjvvv069sdxT5eV76xWq9b/+pv27k/fIOmXmBVq1bypGjaIsPe5fOWK1m3cJEna+Ntmde/SSfXq1M722qHly6t61ao6euwPXb12TSVDSujEqVNKTk7OtF5omdKl1L1LZxUrVtTp9cxms7Zs36GkpBt5fboo4FauXaszcXGaNGG8Nm3eosXLYhTVqqU2bd6isNBQzf3PdL06abLTkZQR9erp56XLde78XxsweYpthGpWa4zaRrPu3L1XUa1aatrnX9qXAiAIBQAAvo4wFAAAF0pOTtbqdeu1beeu9NGfBw4qLS0t+xO9zPETJ7VoyTJ1at9O0e2i9Nb7H2nxshjVqlFDwcFBslqtWrl2vX7dsk2dottpz779WrBosZ4a86iCg4OyvHZQUBFVrhSm7Tt36fLlywoOKqJjfxxXzerVVbVy5Qx9S4aUVK9ud2c52jN9Q5yLOnDoiNM+KLx+P35c3y34SSOG3KeSISHq0qGDdu7eq91792n9pt/02KiRqlolXF06RmvxsuXq0jE60zVCQkrIYDAo7tw5j68XOnrk8BytA9qiaRONGvuE5i9cpIH9++rXlctcuuETAABAYUUYCgCAC2z8dbNWr1uvNevWK+78eU+X41EpKalatHS5zl+8qCcfG63IiLt0d8dorVizTtFt26ht61b2sLRd61Ya+/CD+n7hIv20ZJm9PSsBAQGqVaO6fvx5ic6cO6cSJdJHhtaqUU1ly5R207N0nzGjH/J0CYXapLff1cD+fdWlQwdJ6aMmxz//jKbPnK0a1arZN1O6d0A/TX7vQ50+czbTNWxrcu7as0/FihZVaIUKbn0OjixZHqNXJr4hSZmm6p88Fas33/1AUsYp9CdPxerFCRP10jNPuXwdUwAAgMKCMBQAgDzat/+AVq1br9Xr1uvosd89XU6BsXf/Af0Ss1I9u3ZRZMRdCgwMUJ8e3bRl+w4tWbZC1atW1Q+LFtvD0vLlyqlHl876bct2LVm2QhH1sx91V7VKuB4d9YDCQkN1Nu6cDh/9Xe1at1JQUNajSgubgr5RVmHgaAOj+IQEnb9wwb4bu5QeeP77X//Urj37tGrdeofX2rpjp+YvXKT5CxepTasWum9A/3yt/Xa37hr/+oSXtWPD6gzt02fO1idfzJCUPo0+LLSiRo19Qrv27tWkCeO1/9AhlSlTStWqhru1bgAAgIKEMBQAgFw4GRur1Ws3aM36Ddq2Y4fLrlu/bh1VqFBeIcWLq0TxEipevLhKhKT/d8gt/12ieHGVKF7cZY/raucvXtScb79TWGio7unT0z4tt2b1aurepbNKlQzR9l27tWLNOvXr1V2NItPXEK1SJVzto1przrzv1HpTc1WrUiXLx2kYcZcaRtwlSfpuwUIlJyerWtX0c1JSUn1yaQLkXMmQEI1//pls+90aPkrKFEDu2rNPv27eqs6973F6jdEPjMh0HUdemfiGfaSnI7bRn7fuGi+lv9+nfDhV8xcu0piHR2UKSFct/lHjJ06y1/j6hJdZNxQAAPg0wlAAALIRn5CoNevWa9X/psFbLJY7vmbTRo3UtGkjNWvcWE0bNVLRosEuqNSz0tLStOiXZdq5e6/GP/+Mqtyyfqe/v78eGjFUJ2Nj9e93PlC1KuHq27OH/P39JUl+JpN63N1Zv27ZpiPHfleZ0jmb7h6fkKiDR46qTOlSWrlmvWbM/kYHDh3WlEmv5ctzhPe5NUy0uTUwvD18vF1OdpO3TbPPD7Zp/87C3fx8bAAAgMKIMBQAACdO/RmrBT8t1oKfftbFS5fyfJ2gIkXUtEkjNWzQQI0jI9W4YaRXhJ+38/Pz0wND7teI++9TxYqhGXZ1twktX0FdOkarbJnSCq8UlqGtcqUwTZ44QWVKl9L+g4cznXv12jX9ceKkjp84qYNHjmr/wUOK/fO0vf2XmBWSpLvq1ZVBmR8bviWnIWB2YWJWGjds4PQxCCEBAAAKJsJQAABuc+jIUf3408/6YdHPSkpKytM1IurXU3S7tl4dfjriZzIpvKrzKe6BgQG6955+DtsMBoPKlS3j9Nzd+/Zr/GuTMhyrXbOGIurXU/MmjVWrRnWVK1tGfn5+SklJ1ZoNG/P2JAAAAAB4LcJQAAD+Z+eePfph4SL9uGixrFZrrs+vEh6uTtHt1LF9e7Vo1iQfKvQNVqtVZ8+dy3Q8vFKYenTtogb166l+3ToKr1TJviapM78fP65ho8fk6HFrVq+ep3oBAAAAFB6EoQAAn7fx181asOhnLf3fNOvcKFumjDq0b6uO7dupY/t2DqeGI2tfz/ten8+cpbvq1VVwcJCSkpJ14FD6NPmwihXs/aqGh+v/PfOUp8oEAAAA4AUIQwEAPitm1WotWPSz1m3YlKvzgooUUYf27dQxup06tmunYsWK5lOFvqFq1XBJsgegklSieHEN7N9H7dq0vqNr16xeXa+9/ILCK1dy2iclJVUffTZdBw4duaPHAgAAAFDwGa5eu577eYAAABRiCxf/ogU//axtO3bk6rz2UW3UMbqdOrRvp9Dy5fOpupy7dPGCp0uQlD6tPSkpWRarRUFBQfIzmTxdksxmi46fPKmk5GTVrlFdQUFBLunrbmXKlvN0CYVCasoNT5fgFQICi3i6BAAAgHxHGAoA8BmLly7X7Ln/1b4DB3N1Xt+e3dW/bx+1btE8nyrLm4IShiL/EIbmDGGoaxCGAgAAX8A0eQCA19uzd5/+M+cbxaxaneNzgoODNaBPb/Xr00sR9evlY3UAAAAAAHchDAUAeK3LV67oP7O/1ldfz5XFYsnRORVDQ9W/T0/d07u3KmexziSAgsNoNOb4Mw7HjEajp0sAAABwC8JQAIBX+nb+As2cM1en/ozNUf+6tWurf5+e6t+nt0JKlMjn6gC4ksFolAhD74iBMBQAAPgIwlAAgFfZ+NsWzfr6a238bUuO+jdv2lQD+vRSvz69ZDAY8rk6APnBZPKTxWKRlUA0TwxGo0wm/lkAAAB8A3/rAQB4hVN/xmrmnLn6dv6CHPWPatVC9/99oDp37JDPlQFwBz+Tn25aUj1dRqHkRxAKAAB8CH/zAQAUahaLRV99PVf/mf21Ll+5km3/ypUq6cHhQzRo4N/cUB0AdzEYjTL5+cucdtPTpRQqJj9/psgDAACfQhgKACi0Ylat1n/mfKM9e/flqP/IoYM1cvhQlS1TJp8rA+AJJpNJRqNR5rQ0WSxmT5dToBmNJpn8/FgeBAAA+BzCUABAoXP46FHNmDVHi5cuz1H/zh076MFhQ9SkUcN8rgyApxkMBvn5+8tqTV9HVFarp0sqWAwGGY1GQlAAAOCzCEMBAIXK9wsW6oOPP9GV+IRs+9apVVMPDBuq/r17uqEyAAWJwWCQyWTydBkAAAAoYAhDAQCFwpX4BH3w8Sf6fsHCbPsGFSmikcOH6MFhQxUcHOyG6gAAAAAAhQFhKACgwFu3cZM+mPapDh89mm3fPj26a+TwoapXp7YbKgMAAAAAFCaEoQCAAu3jz7/Ux9O/yLZfZIMIPThsiLp16eyGqgAAAAAAhRFhKACgQDp89Kg+mPap1m3clGW/4OBgPTpqpEYOG+Jz6wMaDAZZ2RzGa7HBDQAAAOB6hKEAgAInp5sktWzeVP8YN1aRDSLcVFnB4ufnp5s3b3q6DOQTPz/+mgYAAAC4Gn/LBgAUGLnZJOnB4UP19LgxPjca9FYBgYGEoV4sIDDQ0yUAAAAAXocwFABQIOR0k6TKlSvp6XGPqcfdd7upsoKrSJEgJScny2I2e7oUuJjRZFKRIkGeLgMAAADwOoShAACPy+kmST3uvltPj3tMlStXckNVhUOxosWUmJj1cgIofIoVLebpEgAAAACvRBgKAPCYI8d+1/tTP852kySTyaSnx43Rg8OHuqmywsM/IEDFipfQtauJni4FLlKseAn5BwR4ugwAAADAKxmuXrvONrQAALdbu36jXn9ris7GxWXZL7JBhP4xbqxaNm/qpsoKJ7PZrKTr15WamuLpUpBHAQGBCi5a1KfXwQUAAADyG2EoAMDt/vv9fL0+eUq2/Qbf+3f94/ExCg4OdkNV3sFisejmzZusI1qIGE0m+fv7y2g0eroUAAAAwOsxTR4A4FbvfjRNM2bNybJPmdKl9czjY9W/b283VeU9jEajAtmFHAAAAAAcIgwFALjN8+Mn6JflMVn2iW4XpX88Pk61a9ZwU1UAAAAAAF9BGAoAyHdJyUka/fjT2r1nb5b9xo5+WGMfechNVQEAAAAAfA1hKAAgXx06clRjn35G5y9czLLf+Bee1eB7/+6mqgAAAAAAvogwFACQb5avXKVnXhqfZZ/g4GBN/Of/U4+773ZTVQAAAAAAX0UYCgDIF1/OnK33pn2cZZ/KlStp4viX1bJ5UzdVBQAAAADwZYShAACXm/D6G/ph4aIs+0Q2iNDUd95SmdKl3VQVAAAAAMDXEYYCAFxq5KPjtG3Hjiz7RLeL0sfvveOmigAAAAAASEcYCgBwmS69++nc+QtZ9unft7cmTXjFTRUBAAAAAPAXwlAAgEs0at1OZrM5yz7jHhmtMaNHuakiAAAAAAAyIgwFANyxlh26ZBuEvjf5DXXt3MlNFQEAAAAAkBlhKADgjnTo3ltJSUlO200mkxbO+0bVqlZxY1UAAAAAAGRGGAoAyLPu9wzUpcuXnbaXL1dWq5Zkvas8AAAAAADuYvR0AQCAwumeQUN0+vQZp+3NmzYlCAUAAAAAFCiEoQCAXBs88iEd++O40/bGDRtq5mfT3FgRAAAAAADZIwwFAOTKyEfHae/+A07bIyPqa86Xn7mxIgAAAAAAcoYwFACQY2Oeekbbduxw2l6vTm3NnTnDjRUBAAAAAJBzhKEAgBz5x4sva/2mX52216pRXd9/PcuNFQEAAAAAkDuEoQCAbL386muKWbXaaXuV8HD9OO8bN1YEAAAAAEDuEYYCALI08c239NOSpU7bw8IqaskP37qxIgAAAAAA8oYwFADg1Fvvfahv5y9w2l6hfDktX/iDGysCAAAAACDvCEMBAA59+MlnmvXNXKftpUuV0srFP7mxIgAAAAAA7gxhKAAgk+8XLNTnM2Y6bS9RvLjWLV/ixooAAAAAALhzhqvXrls9XQQAoOA4dOSo/j50hNP24KBgbVm30o0VAQAAAADgGoShAAC7pKQktezQxWm7v7+/dm5a58aKAAAAAABwHabJAwDs7rl/qNM2g8FAEAoAAAAAKNQIQwEAkqRnXhqvM2fjnLZvWcvUeAAAAABA4UYYCgDQl1/N1vKVq5y2z/3PFwoKCnJjRQAAAAAAuB5hKAD4uFVr1uq9qR87bZ/4ysuKbBDhxooAAAAAAMgfhKEA4MP2HTioJ59/yWn78MH362/9+7qxIgAAAAAA8g+7yQOAj7p46ZJ6/e0+JSUlOWxv07KFpk/70M1VAQAAAACQfxgZCgA+6sVXXnUahJYtU4YgFAAAAADgdQhDAcAHvfH2u9q8bbvT9tlffurGagAAAAAAcA/CUADwMV9+NVvffPud0/bPp36g8EqV3VgRAAAAAADuQRgKAD7k56XLstw5fsJLLyiqVUs3VgQAAAAAgPsQhgKAj9i2Y4de+ue/nLY/OHyo7hs4wI0VAQAAAADgXoShAOADYk//qYn/fttpe5dOHfTsk4+7sSIAAAAAANyPMBQAvFxqaqr+799v648TJxy2VwkP1/jnn3NzVQAAAAAAuB9hKAB4uXc/nKZNm7c4bf+/CS+rfLmybqwIAAAAAADPIAwFAC+2fNUqzZn3rdP2Sa/+U80aN3ZjRQAAAAAAeA5hKAB4qUuXL2vqJ9Odtj/28IPq36eXGysCAAAAAMCzCEMBwEtN/Wy603VC+/TorscffcTNFQEAAAAA4FmEoQDghRb9skzf/fCjw7bwSpX11LjH3FwRAAAAAACeRxgKAF7mzJmzmvrZ507bnxgzWhVDQ91YEQAAAAAABQNhKAB4mWmfT9fp02cctt3/94Hq1b2bmysCAAAAAKBgIAwFAC/y/YKFWrj4F4dtdWvX1hNjWCcUAAAAAOC7CEMBwEscP3FS0z7/wmn744+NVkiJEm6sCAAAAACAgoUwFAC8xNRPp+vCxYsO20aNGKZO0e3dXBEAAAAAAAULYSgAeIGvv/1Oy1audNjWuGFDPf7oaDdXBAAAAABAwUMYCgCF3KEjRzXt0+lO2x9/bLQCAgLcWBEAAAAAAAUTYSgAFHJTP/tciVevOmwb98hotW7R3M0VAQAAAABQMBGGAkAh9p/ZX2vNug0O26JatdCY0aPcXBEAAAAAAAUXYSgAFFK79+zV1M8cT48PKlJETzz2qJsrAgAAAACgYCMMBYBCatrnXyglJcVh27hHH1Fkgwg3VwQAAAAAQMFGGAoAhdCnX/xHmzZvcdjWpVMHjRw22M0VAQAAAABQ8Pl5ugAAQO7s2btPUz/73GFbqVIl9fijj7i5IgAoPKxWqywWi2S1eroUAIzQepwAACAASURBVNkxGGQ0GmUwGDxdiVfhe9AJ3m+AzyAMBYBCZtbceU7bnnzsUdWuWcON1QBA4WC1WmVOS5PFYvZ0KQBywSzJaDTJ5OdHSHWH+B7MHu83wDcQhgJAIbJqzTotjVnhsK1vz+6692/3uLkiACj4zGazzGk3PV0GgDyyWMyypJpl8vOXyWTydDmFEt+DOcf7DfB+rBkKAIWIs1GhFcqXY3o8ADhgtVgIAAAvYU67KavF4ukyCh2+B/OG9xvgvQhDAaCQmDf/B23bscNh29BB96lSpTA3VwQABV+aOc3TJQBwIT7Tucc9yzvuHeCdCEMBoBBISEzUrG8cjwqtW7uWhg66180VAUDBZzanMaoH8DJWi0VmAqoc43vwzvB+A7wTYSgAFAKz5/5XJ0+dctg27P5BCgwMdHNFAFDwEQAA3onPds5xr+4c9xDwPoShAFDA/X78hGbP/dZhW+sWzTWgXx83VwQAhYOFf8ACXonPds5xr+4c9xDwPoShAFDAzZ77X12/ft1h27D773NzNQAAAAAAFF6EoQBQgP22dZu+X7DQYVuPrnerY3R7N1cEAAAAAEDhRRgKAAXY7Ln/ddrGqFAAAAAAAHKHMBQACqifly7T2vUbHbbd//eBatww0s0VAQAAAABQuBGGAkABlGY2a87ceQ7bihcrxqhQAAAKsCXLYzTu2RcUn5Dg6VLuWEpKqia9/a6WLI+xHzt5KlZjn3leJ0/FOmx3ZsnyGN0/crROnoq1H5s+c7Ymvf2uUlJS86V+OLdrz74s36c5fW3jExI07tkXnPbLzXtESn9PTJ85O9P1d+3Z57DdmV179qlpu0728yTv+mwCyDs/TxcAAMhs9tx52nfgoMO2YYPvU7WqVdxcEQAAhd/0mbP1yRcz7ugaMz7+SI0bNsiyT1Srllq8LEbTPv9Szz35uAIDA+7oMT3p4OEj2rv/oIYNutdpn2GD7tVbH3yknbv3On2+KSmp2rl7r7p0jFbVKuH5WTLcbNPmLZLS3/d36uSpWK1cs04vPfOUw/aUlFT169VdX3w1R+OefUGTJoxXyZAQh3237tipgf37qn7dOndcFwDvQhgKAAXM2XPnNMfJWqFVKodr6CBGhQKAKyTfuKE16zZo8bIY7dq7T0lJSapXp7batWmte/r0UljFUE+XqPiEBI2fOEm9u3dVr25dPfb4jSMjNXrk8Dvu52mjRw53Wp/tOYx+YES2YaeUHtq8OGGijhw7lmW/+QsXOTx+a6h64eIlLVy8RKvWrtehI0cVUqKEWjZrqnsH9FfTxg1lNP41oS8nge7rE17O9H6JT0jQshWrtGLNOm3fucv+GD26dlHb1i0VEOA4sN26Y2eWAWZgYICqVgnXtHfe0vSZszVr7jyH9/jg4SOav3CRZnz8UZa12yxZHqOw0Io5ei3gObaQu3f3rvZQ0vZZ+nXz1gx95y9cpFcmvmH/eWD/vpnC8/2HDikyor7TADMwMEAVypfX+Oef0ZLlzn/hYAtVRwy5L0e/jNi1Z5/OxJ31yPcsAPcjDAWAAubr/87TufMXHLYNHXyv099+AwBy7vfjJzTp7Xd07vwF9ejaRYMGDlBwUJD+OHFCy1as0uJly/XsE+PUKbqdDAaDp8uFG5w4mT51u1rVnI9aLF26pBZ8M+uORjoeP3lSr06arEuXL6tdm9bq2rmjkpKStXnbdj390niNHjlcQwfdKz+TyX5O9apV1a1LR6cBZnilShl+3rNvv96Y8r5SUlPUr1cPjR45XCkpqdr422ZNfPNttWzWVM8+OU7ly5XNcF52o/Rul1UQnptRerv27NMrE9/QmIdHEYa6UU5DzDEPj7K/1gcPH5EkdenQQSdPxWry+x/qxaef1LR33rL3T0lJ1ZQPp6pJo8gsw8b4hAQtXhaj3t275ijA7NXN+S+J9h86pDJlSuVotOrJU7F6890PFBlRX106dCjUI7kB5AxhKAAUIHsPHNTsud86bGsY2UBD73M+RQ0AkDPnL1zU5Pc+UPFixTRpwiuqGFrB3tasSSP16dldH3z8mebM+1b16tQuECNEC7qSISEZwo/C6EzcWYWFhiqoSFCer2Fbx/D2UHDJ8hiHU8jNZouWxqyUJE19Z7KqV61qbxs9cri++maeflq8VO3atFbN6tXsbaGh5TVo4IAc/YL01J+nNeXDaWpwVz2NG/2QSpUqaW9rH9Va/Xv31L/feV9TP5uuF//xlIoWDba3L1+1Rl06Rqta1XCNe/aFTCHZgCEjHD5mnVq1NHniBHtIfGuoml3QZAumbg3c4FpLlsdkCDc7975HUvpo5dyEmCkpqVq8bLl6d++mwMAA7T90SJUqVlRohQqZ+ubEps1bFBYaqqhWLTXp7Xczjaq+/f13q1tHWt8aqmb3GYlPSNBbH3ykyIj6hX5JCwA5RxgKAAXInLn/ldlsdtiW1VpdAICcsVqtWrFmrU6fOau3X38tQxBqE1SkiO4d0F8fT/9SFy9dsoehFotFO3bt0TffzdeW7TsUUqK4OneI1rBBf1eF8uXt5+e0X5rZrHUbNumbb7/Xjt171Cm6nUYMHqSfly5X+XLlnAZBVqtVh48e039mf6ONm7c4vb4r3bx5U8tWrNKM2V/r/IWL6tIxWqOGD7Xfm9unydt+7nl3F/n7++vrb7/XvgMH1bJZUz30wDA1b9LYPuI2r/chr2wBj7Pp686OO5p6Lkk//rxEX32TcXkbZ9PYbde2hYWhFSro8pV41a1dS2GhFTP0DQgIUMd2UVoas1Kxf/6ZIQzNKbPZosVLl8nPz6RRw4dmCEJt6teto4dGDNXEN6do286d6tCuraS/AswuHaMzhd279uzT9K9m6cWnn9Tk9z/MdmmB5avWZLucgO0xX5wwUZER9TVi8KBcP1/kjG1Epe11zGrdzaysXLtWUvp7KD4hQes3/abHRo3UrLnzHH4Gbh9hKv31ubIFmLZfSIx//hmNf/4ZSbKPOH1qzKP6/sefsh1humnzFv26eat6d896yrvte0qSxj3yEEEo4EMIQwGggFi3YZMWL13usC26XZR6de/m5ooAwPtcv56kXbv3KqpVS9WsXt1pv5rVq+mdN/7P/rPVatWyFas0acp76t29q6ZMek0XL17SvPkLtHvvPr02/kVVr1o1V/1iVq7WlA+nqVuXTho1Yqj2HTik1996R5LUrUtnp7WtWLNWb7//kbp07KApk17TtevXtWDRYj3/yr/s13e1+QsXqVJYRT00YpiMJqPmzV+gl16dqNcnjFeVypWcnvfdjz+peLFiGjEkPdhasGix3nznA731+r9Us3q1O7oPd8pZuHk7W3jqzD19eumpsY9Kyv3IUKvVqqrh4Vq+arWOHT+uu+rWybAsQ+1aNTX/65m5el63unzlinbs3qMmjRpmGZQ3bNBA9evW0baduxXVqqUsFqvmzPtOR44dU5eO0Xl+fCk9OM3JplUnTp3Sq5Mmq0yZUgRThcTpM3Gav3CRPeQf8/AoVa0SnuXavDa2INL2S4DvFvykXzdv1cD+fe+oppOnYjXrG8ezrG6VmHhVk9//UJcuXdHkiRNYhgrwMYShAFBALF62zGnb0EGMjgAAV7iSEK/TZ8+qft06uQpbzpyN09zvf9DIofdr5LAh9vUbmzdtrAmT3tTSmJV65MGRijt3Llf9ht1/r4YPHiQ/k0ltWrZQeKUwTZryntM6Ll66rB8W/qxHR43UgL697RvrtGnRQpPf+8B+fZPJ6PQaeVGzRjW9/s/x9jUlG0ZE6JX/m6TlK1fpoRHDnJ5XMqSEJrz0vMqULi1Jql2jhl6cMFGHjx5VzerV7Pc1t/ehIPvkixkOwz9HIY/BYFDv7l11+OhRDX/4MTW4q77aR7VR00YNVbtWDZUoXtzhY/y6eat9avPtbp2ifv36dSUmXlXN6tWyfE8EBwWpYmgFnYqNVfKNG9rw62+SpAeG3O+wv21JgcAigU6vKf01jfqBIffr1y3bnPazBWqONtSBezhbL1RyPKLTtozB6JHD7SNM7x3QL8P1Jr/3oR4bNVJVq4Rn2qDMtgN9tarh2rVnn3bt3atnnxirE6diMz3+lfgEGQwGlSyZfWC5fNUaRUbUV5kypZz2+XXzVt0zeLjatGqhTz+YQhAK+CDCUAAoAI4cPeZ0VGj/Pr3UtnX2i78DALJnMVtkNltUoUK5TG2Odum2/YP/2PHjSkxMVIe2URk2sqlQvryio6K0duNGXb5yJdf92rVuZe9nMBjUukVzRd5V32n9p2JjdeTY7+p+d2ft3L03Q1tAQID2HTykq9euuvwf99FRUSpXtoz953Jly6hZ40bau/+Arl675vS8u+rVVelSf4USISElVKZMKZ0+EydJeb4PBZmjtS5tI0MdKVWqpF59+UUN7N9PMatWa8nyGPv7sFN0O40eOUJ1a9fKMGI0qw2UAgMCVKxYUUlSfEKijv7+R7Y1BwYGqHy5cjoTF6fk5Bs6fSZO4x55SN8t+Mlh/9Nn4lS+XDkFOtnAycY2jbpH1y5ZhqGS453F4T55Xfc3PiFB07+apdEPjMjwvVMyJESD/jZAA4aM0IyPP8qwMZltB/rGkZEqGRKi/QeX64WnntD+Q4cchqH28D2b95stVLUt35CVNq1a5Hl5AACFH2EoABQAi5c5DkIlafC9f3djJQCQd0nJSbpw8ZIuXryoCxcv6cKlS0pISFBi4jVdv35NV68n6fq1a7p5M00Wq1Vmi1myWGS2WGT53x+z2SyL1SqL2SKLxSqz1SyL2SKrNT3EtNza12KWxWKV1WrRjRsp9jrGPvKQxo5+OMtaz527kOlYvTq19cRjoyVJqampWr5yjb3t+vXrKleurEqWzLjmosFgUOnSJXX16nUlJSXluN/Vq9dUMTRUZcuUydAvODhYlSuFOa077vx5XYmP18Q333bYXr9uHV29ds3l/8AvXbpkhjDOYDAovHIl/bZ1u65fT1JQUBGH5xmNpgzn3S6v96GgcjY1OKtdryXJz2RS44YN1LhhA1mtViUkJmr3vv369ocf9ezL/9TE8S+pWZPG9v453UCpaHBQlssY2KSmpurS5cvyM5kUFFQkyynOKSmpOn/hgpo0iszymikpqTp67A+na57funZrXoPQBi3a5Kq/r9m39dds+9hGGWcXDjpaXzQlJVXTPv9SjSMjM6wZe/JUrD6dMVMv/uNJLfhmlj6dMVNjHnpQJYoXV6mSITp4+Ij27j+oyRPT3xtD//ce2X/okMPHtoXv2W1utnXHTo1+YIRKlHA8otr2Cy+CUACEoQDgYYlXr2qJk1GhPbt1VYNCOjIGgHfbd+CgDhw8pKO//6Hfj/+hI0d/V3xCgqfLylaZ0qVVpXIlnYmLU0pKaobwpX1Ua7WPai0pfbTTnv0H8q2OlJSU7Ds5cftO3Z7k52eSn1/e/0lxJ/fhTr0y8Y1MU3+zcnv4Z5u6azAYHO607khOXjuDwaCSISHq0DZKjRpEaOKbUxSzeq0iI+5yOBI0KyVLllS5cmX1+/ETMpstTqfKX09K1p+nz6h6taoKKuI42LaJO3dOp8+ezXZjx8DAAPtaqidvG+13+27mcK9bR8HfSTB48PAR+3qhtuvZgu32Ua312FPPafLECfr3v/6pk6dilZCYKElq3LCB/jtzeo4eIz4hQbv27tXoB0Zk29cW4t/+/0W79uzTqLFP5Ph5AfB+hKEA4GGLly7T2XPnHLb17dXDzdUAgHN/nDihRUuW6peYFfrzz9OeLidPihYNVsMGEVqwaLFOxcaqdq2aOTyvqC5cuKj4+PgM08WtVqsuX45XqZIhKlG8eI77lS1bRmfj4nTx0qUMO3wnJSfrbNw5lS+XeRq/JJUuVUpHjh3T2XPn3BqGXrkSn+Fnq9Wq2D9Pq1RISQUVKaI0c1qerpvX++AKrthAKSw0VBXKl9e0d96y74Q+Ysh9ma5rC2O6dIzO8LrtP3hIjz/7ov792j/VukXzTNcPDgpSxQrllXrzpqzWXD5Bpb9fmjZqqLUbflW/nj2cvmcOHzmqXXv36W/9+sjf3z/La+4/dEiVKlZUaIUKSr6RnKn99rUib3Uj5YYmvf2u5i9cZL//02fO1vkLmUdq29aY7N0961G1yL3b1/qUMo7UzYptrVrb67djw2qH/Xp166qw0IqaM+87Pffk4/ZfHoSElMhVrSdOpgfpt06zv5Wt7t7du2UYnWpjC35ty1csWR6jxctinF6nfLly2W7+BKDwc+3K6gCAXFu8NPNfyCSpVfNmim4b5eZqACAji8WiZStXasio0ep372BN/89XhTYIldJH3fXqfreqhFfW1M+/0J+nz2Tqk5qaqnUbN+nAwcP2Y7WqV1eJEiW0duMmpZnN9uPnzp/Xuk2bVL9uHRUrVjTX/Tb8tjlDP1so5UytGjXUqnkzrVi9Vsk3btiPJ9+4odffekf/N3mKkpKS8nx/nNmyfYcuXb5s//nEqVPa+NsWNWwQoaJFg/N83bzeh4Jg646d6etm/m90cdUq4fr0gylavCxG4559QfEJCYpPSNC4Z1/QqLFPaMbHH2UKWSqUL696dWpr7nfzHb4Xj/5xXNt37VHV8HAFBGQdUjpiMhnVu0d3BQT464uvZmd4DW0OHj6ij7+Yoc7R7dSqebMsrxefkKDFy2LUpFFkllPaE69e1ZX4zCPFiwQW0fjnn9GODauzDTgTEhJ16dKVLPvAdQIDA+yvjaM/Mz7+SG1atdCqxT9m+/pNnzlbTdt10qixT2j+wkVq06W7Ro19wj4lv2m7TvY/02fOdnod2wZctrVFs3Im7qzD46NHDteODauzDTiTbyTrTFxcln0AeA9GhgKAB61eu1679uxx2NavV083VwMAGR06clRPvfCSTjsIaXIjODhYxYsVVbGiRRVSIkQmP6NMRpOMRuNff0xGGY0mGQ0GmYwmGYwGmUxGmYxGGW7tZ/zrXFubyWiQ0fS/c4wmtWiadaBTulQp/ePxMXrz3fc1fPQY3d2pg6JatVTRosE69vsf+mX5Cu0/dFh9enRTv17dJUlhFUM1+O9/06Qp7+nCxUvqFN1OFy9e0rz5C2QwGtW3V3f5+/vnqt/f+vXRR59O1/kLF9WhXZQOHjqi7xc63rDGpkzpUurXq4cmTXlPFy9d0oB+fWQxW7Q0ZqX2HTyoieNfUnBwxnByyfIYzfrm2zuaWh+fkKhXJ03WPX176UbyDc2bv0Bly5ZVr+53Z7kmaHbych9c8XzulLOpu7ZNaKbPnJ1hBJ2zjWnKlimthx8YpgmT3tT9D45Wy2ZN1eCuepKkfQcOacv2HWrRtEmm+xwXd17z5i9wOm2+YoUK6tIxWv7+/qpSuZKee3Kc3pjyvh5+/Gn169VDEfXrKSUlVRt/26xlK1apZbOmevzR0dkG27YdwKNaOd/YMSEhUVarVaVysPN3ToSFVnR4PPnGDY0Z/ZBLHsNbJd+4IVMuP56u+HzZRp7a3LpTfU5HZEvKtLaoI7YQs3f3bnmq9XaVwkJdch0ABRthKAB4kLONk2rXrKE+TJEH4EGr163X8+P/mWFjImeCgoJUr05tRdSrp0qVwxRavrwqlCun8hXKK7R8eTdUm3tVKlfSe/+epG07d+qnxUs18c23lZCYqKpVwhXVsoWef/oJNbirvozG9IlUBoNB3e/urHJly+qb7+brufGvKqREcfXo2kX3D/ybfUp8bvr16dldQUWK6Otvv9e8+QvUKbqdJrz0vGbNnee0boPBoB5du6h8ubL6+tv5Gv/aJPn7+alNqxZ6543/U93atTKdc/pMnCIj6iu0QoU836977+mnlNT0zVLi4xPUr3cPjRg8KMNO8XmRl/vgiudzp2yh4K1Td28NfKT0XeWlv9YmdbTLvCQ1a9JY0z96Xz/+vESbt23X1M++sB9/aswj9vtzq+MnT+qzGV85rW9g/77qFN3e/nPDBhH69IMpWrZilVasWaePPp2ukBIl1LJZU016dbyaN2mc7XqkJ0/FatY33+qlZ57KNErvTNxZ+xTlvEyHPhMXp+QbyRlGm9o203EWqgYVKaJxj2S9URqk1JQb2Xe6hW16u20XeEdTz29nWyLiyLFjmdYgvXWTpXffeF1TPpyq02fish2padulfsSQ+zKFsqfP/DWCMy/h+6VLV5SQkJjhfXziZKx+3bw1R2uTAij8CEMBwEMOHTmqpTErHLb17dVTJpPJzRUBQLpflsfo+fETnLZXqRyuVi2bqXmTJoqoX0/VqlZxY3WuExgYoLatW6lt61Y56m80GtW8aWM1b9rYJf38TCZ1v7uzut/d2X7sypV4WcwWVQxND/psIw1vZTAY1KxJ4wy7iztj2/n71uncuXH74w/s3zdH/RzV7ex4Tu6Dq57PrfK6gVJKSqp27k4fFZqQkKjHnnpOR44dc7o5ki302bVnn5q262Q/fmvQFFYxVGNHj9LY0aOyreP2UXc5VTIkRIMGDtCggQNyfW58QoLe+uAjdekYnSEcKxkSot7du2a6l69PeDnHG/J069xRK9ess4+kvdXrE14uEBuF+ZrGDRs4XQv0VraNsAb276uvPpuW6TN563q7IwYPUmBggJ578nFN+XCqJr39rp578nGHn+PkG8ma9vmXCgsNVZcOHezHAwMD1Lt7N40a+4R9wyYp/RcPOX2fRLVqqcXLYjRgSObQc8zDo3IU/gIo/AhDAcBDFv+y1OHx0qVKsXESAI85+vsfGv/a65mOFykSqL69euqBIYMLbfhZkBw8fERvvf+Rnn1irBrcVd9+/Njx4zr155+qHBbmkseJO3dOe/cf1EvPuGYKqavl9j648vnkdQMl29qKNjndFTunAVNBtGnzFoWFhmrE4EGZ2np1u7MNjqpWCc/xPYRr2EJMKT0AdBZc39pPyhxyZ/Xa2869/XNm+/xMnzlbz7z8isOd7A8dOaozcXGaNGF8prD0Tj9Hzn5RA8C3GK5eu56HfQkBAHciPiFBfxs8TOcvXMzUNnLoYD339JMeqAqAr0tITNTAISMUd+5chuM1qlXTZx+9p4qhhWsttdxOD3WnxKtXNemtd3Xm7FkNGjhAFUNDdejIEX2/cJFaNW+mp8Y+mmlqdF7Ydot2FDgUBLm9DwX9+cB9AgLv/PPhC9z9PWibMt+lY3S2I5htmycVht3beb8B3oUwFAA8YM68b/XmlPccts3/epbq1qnt5ooAQHpzynuaM+/bDMcaRNylmZ9+rCJFAj1UVd4V5DBUSp8K/t/5P2j5qjU6eSpWDe6qr749uztcI9KbcR+QF4RTOVPQvwcLC95vgHchDAUADxj84MPau29/puP9evXQG6+96oGKAPi61NRUte/WU9evJ9mPBQcH68e5cxQW5ng354KOEADwXoRTOcP3oGvwfgO8i9HTBQCAr1m1Zq3DIFSS+vTq6eZqACDdz78syxCEStLIoUMKbRAKAAAAOEIYCgBu9vMvyx0eb9umlaJatXRzNQCQbsXqNRl+DggI0ND77/VQNQAAAED+IAwFADfaf/CQlq9a5bCtX+9ebq4GAP6ybeeuDD+3bNZUISVKeKgaAAAAIH8QhgKAGy1ZFuPweP26ddS7ezc3VwMA6Y79cVxJSRmnyLdo1tRD1QAAAAD5hzAUANzk8pUr+vmXpQ7b+vVmrVAAnnPw8JFMx1q2aO6BSgAAAID8RRgKAG6yeOkyXbp8OdPxCuXLqS8bJwHwoNOnz2Q6VrdWTQ9U4lpGI3/VBbwRn+2c417dOe4h4H34VAOAmyx2MkW+b++eKhkS4uZqAOAvf57JGIaWKV1aAQEBHqrGdQz8AxbwSny2c457dee4h4D34VMNAG6wc/ce7dt/INNxPz8/9WNUKAAPu3jxYoafw8IqeqgS1zKZ/PhHLOBlDEajTCY/T5dRaPA9eGd4vwHeiW9FAHCDtRs3Ojze4+4uqlGtmpurAYCMEq9dy/Bz2dKlPVSJ6/nxj1jAq/CZzj3uWd5x7wDvRBgKAG6wbsMmh8fbt41ycyUAkNnVq1cz/FysaLCHKnE9g9Eok5+/p8sA4AImP39GOeYB34N5w/sN8F78mgMA8tlvW7fpyNFjmY6XKlVS0e0IQwF43tWrGUeGBgcX9VAl+cNkMsloNMqcliaLxezpcgDkktFoksnPTwaDwdOlFFp8D+Yc7zfA+xGGAkA+W7ve8RT56Kg2Kl6smJurAYDMriclZfi5WDHvCkMlyWAwyM/fX1arnywWi2S1erokANkxGGQ0GgmlXITvwWzwfgN8BmEoAOQjq9WqdRsch6FMkQdQUCQnJ2f4uUhgEQ9Vkv8MBoNMJpOnywAAj+F7EICvYwEMAMhH6zZs0snY2EzHy5Ypo2jCUAAFQJo583TJgADWlgMAAIB3IgwFgHzkbBf5dlGtFRzsPRuUACi8UlNTMh0jDAUAAIC3IgwFgHxyIyVF65ytF8rGSQAKiJSUm5mOBQQEeKASAAAAIP8RhgJAPlm7YYPizp/PdLxC+XJqH0UYCqBgSEtLy3QswJ8wFAAAAN6JMBQA8sm6DZscHm8X1UZBRbx3cxIAhYvZknnNUCMbawAAAMBLEYYCQD5ISEx0uot8NKNCARQgVosl0zGDweCBSgAAAID85+fpAgDAG63dsElX4hMyHQ+tUEHt27bxQEXwFRaLRTdv3pTFwQ7hKFyMJpP8/f1lNObv766tFmvmxzYShgIAAMA7EYYCQD5Yt36Dw+Pt27ZhYxLkC7PZrKTr1x3uDI7CLSAgUMFFi8qUT1PXzdbMwblBhKEAAADwToShAOBi585f0NqNjtcLjW7LFHm4XkpKiq5dTfR0GcgnqakpSk1NUbHiJRQYGOjy61sYGQoAAAAfwpqhAOBi6zZsVHJycqbjYWEVCUPhcjdTUwlCfcS1q4m6mZrqlscy5PPUfAAAAMBT+JsuALjYuk1ORoVGReXbNFf47tqJfAAAIABJREFUrmvXr3m6BLhRfrzejtYMZc1ZAAAAeCvCUABwodjTf2rteie7yDMqFC5240YyoZWPsZjNunEj88hzAAAAADlDGAoALvTb5m2yWCyZjodXqswu8nC51BQ2S/JFvO4AAABA3hGGAoALbd+5y+Hx6LZtZDCwIQlcKy0tzdMlwAN43QEAAIC8IwwFABdyFoY2b9bEzZXAF1itmdd6hPfjdQcAAADyjjAUAFxk6/adOnvuXKbj/v7+atKooQcqAgAAAAAAtyIMBQAX2bZjp8PjTf4/e3ce31SZ/Q/8c3OzJ22SruneAiJYKPs6KioCjgiKiqIsooi74k8dmRGH+Q4DOjjquG+MqLgN4o6iFHHABWQRSguUnS5035K0TZM0N/n9keaSNHubNl3O+/Wa19jk5slzk3tvyMl5zhkxHHGxsd08G0IIIYQQQgghhLRHwVBCCAmT3w96D4aOHjmym2dCCCGEEEIIIYQQb4SRngAhhPQFhsZG7PdRL3RUDi2RJ4SQnsJut8NmswFUe5WQnodhIBAIqOlkmNF1j0QUndekB6JgKCGEhMGuPXu8dnhWRUdj4oRxEZgRIYQQV3a7HZzVCpuNi/RUCCF+cAAEAhasUEjBk06i6x7pKei8Jj0NBUMJISQM9u33US90ZA5YAVUkIYSQSOI4Dpy1NdLTIIQEyWbjYLNwYIUisCwb6en0SnTdIz0NndekJ6Fv6IQQEga+6oXSEnlCCIksu81GAQFCeinO2gq7zRbpafQ6dN0jPRmd16QnoGAoIYR0UnFpKU6dOev1vgnjxnbzbAghhLiycp4lTAghvQedw6Gj14z0dHSMkkijYCghhHTSb3v3eb09SavFsIuGdvNsCCGEOHGclbJPCOnl7DYbOAqcBI2ue6Q3oPOaRBoFQwkhpJN27/EeDB01gpbIE0JIJFFAgJC+gc7l4NFrRXoLOlZJJFEwlBBCOslXvdAJY8d080wIIYS4stEXLUL6BDqXg0evFekt6FglkUTBUEII6YT8gsNo0Om93jdpwvhung0hwalvaMCnX36N7Tt+gtUa3BIlq9WK7Tt+wqdffo36hoYum5vZbIHeYAh6Xna7HRzHddl8glFVXYO8/MPQ6Q1e79fpDcjLP4yq6ppunhkhhBBCCCGkPQqGEkJIJ+zysUR+YFYWkpO03TwbQoLT3GzEltztOJhfAI4L7ld5jrPhYH4BtuRuR3Ozscvm9tOuXZh98wIUHj8ZcNsWkwkbPv4Ef3tqLRp0ui6bUyD5R45g2fInUHquzOv9pefKsGz5E8g/cqSbZ0YIIYQQQghpTxjpCRBCSG+2e89er7ePpyXypB+y2WxoNhoDLntSyOUQCsPzT5D6hgb8vOs3xMbE4J4liyGTSvn7yisqse7dDTA0NYU87uQJ43HD7GsAODI7i4pLfG5bVl4BADhTVOQ1S7W4tJTfLi//sM9xkrSJSEyID3muhBBCCCGEkOBRMJQQQjrIYrHg97w8r/dNnjCum2dDiG9Hjx3HwfwC/u+mpmbo9DoUlZRg4+dfgGXZgGNwHIeikhLo9Dpsyf0BSqWCv29AZiYmjR+LxqYm/OOZ57Dvd+91dJ1eeXYt1GoVfvp1F/9Y/89tw9niYhhbWnDBgCzIZDIAgEwqxeL581BTW4cvv9mCQQOycM1V08EwDD/n4tIynD57NuD+tZeTnc3/tzOzM5DnX3nd7/3vfPAxgI993v/k449gWsJlQc+REEIICdWW3G34dus2rFm5AmqVKtLTCZu+ul+EkK5BwVBCCOkgX13kAWAi1QslPUhZRQXeemeDx+119Q0oOFIY8ngfbfrM7e87Fs7HpPFjIRKJcOnkSRiVMxwAkH/4KM4WF+PKy6dAIZfz26vVKuh0erz1zgb+sf5YrVZ8+c0WHD12An9/4nGkpabw92nUatx8/bU4deYM3v/vJ0hPTcGI4cMAAElJWrz4zJoOFegXiUT8f6elpuDFtU/53DavoADvfPAxHnngXmSkpXncX1xaiudfeR23L7gFI4cP9zlOkjYx5HmSjtHp9Xj1rbdx/11LfH5pzss/jHXvbegTX6yLS0qx9oWXsPzhh5CR7nmM9oXnXffu+3j9P+vdbrvh2ll47KEHIJGIu/S5Oyov/zD++fyLWLtqpcfrYzZb8OxLr+CzrzZj0oRxWLNyBXbt2dstwZ4PN27CxZMmIiM9jZ/HzBnTMTJnmNvcfZ0fW3K34eChAp+vvU6vx4pVa7D0tkUA0GfOs95Ap9fj263bMHPGtB7/eq97930AwNLFC93+25uesl/+Plu8nReB9gtwXAveePsdXHfN1d16/fYlmDm72pK7DWXllUFvT0h3oWBoO9WtZhS0NKLKYkJk2zEQQnq6XYZKRF0/w+N2bWIiPm2qBUJfmdtvsAASxVIMl0UhQSSJ9HT6vGmXX4Zpl5/POCw9V4a/PfUMLhoyGA/evTSoQIHZbMHLb67zGpB0kstkmH31Vfz2FZVVUEVHYeHNc/lsTiedj8ZjHZEzLBtz51yLV978D95Y/x6efPwRpCQlQciyiFIqOz2+WhXtFgRor6auFoAjQ3Z49lCP+52ZtynJSX7HId3HbLGgqbkZu/bsxdXTp3VsDJdgVUesf+1ljMwZhuKSUixfuQonTp0KeYzBgwZ5DaT1FEeOHQPDMFCpojs8Rl7+Ydxx34MBt1v/2stY+sv/Ovw8wdqSuw1PrvL940ggq1c+wR9zI3OGYdGtN+GDjZvw2EMPoLKqyu1YePTB+3DDtbP4wMrUKVNw8FABNn3xdZcFFvLyD2PX3n1ITUnGBxs34f67lrjd9+3WXDz20AMor6xAslYLmVTmZ7TARuYMw5qVK7D23y/hnjsW99hjua/YtWcvdu/Zh9179oV0HLv+sNCZc8B53QtGSrIWZeWVAIBFt9yMZ196Bfc/+rjXwHk49qsj13RvP7goFQq8+tbbYfshZvvOndi9dz+uu+Zq/ocEfwkZwPnXubPXq3vvvMPjWjP9isuwfOUqjBs9yud76TpPb2MQ0hNQMLTNWXML3q8pxS9NdZGeCiGktxiYjKiByR43NwN4v7a0++fTS12sjMXC+DRkSTr3hYr0LDq9HmeLSzBh7GhIXep4dgWGYTBz+jRUVVVj8sTxSNaGv3mZ2WyByWzyet/4MaPx9cYPAAB6g2dH+fS0FL/3A4BUIu2x2Wt9UWJ8PC6ZPBEHDxVg6pQpnXrtw/FFLyZGjS8+2hBSIMiZddmTlZVXYuTw4V4ztQJ9qXcGDUfmDMMBH0FO5xgzZ0zrth8arp4+rcMBdCdvQZfPvtqM226dh6zMdDzzj7/h/f9+gksmT0JRSSkMhkaP1yqvoCDs2ZQ6vR7r3tvAZ2z6U1ZeiYT4+IDnjr9gTPv3fusPP/b4bN7erLikFBs++iSkgKQvob5PznM1VNU1NTCbLZBIxFjxp0eQl3/Y48eAcO4XEPy+rXv3fVTX1LjdplapcNv8eVixag02fLyx058Nzn378yPL+M+HV597JujH+7teuWZoB3rdvGXeu/5ItXrlE0jWJvG3ObPZe3r2MenfKBgKYLuhFmvLA3etJYQQEn6/NNXhl6Y6LE++AFOj4yI9nX5l83dbsfm7rSE9ZmBWVlDblZw7h8NHC7F4/jy+hmdXkstleODuO7ts/J927cLqZ57vsvGffPwRt+xd0vUmTxiPg4cK0GJqCUvgZUvuNgDw+8Uz0NL8zvL2hdXVnFu9B7lcsxXDRafXI6+gALv37POY06QJ47D84YcAeGaKOQOFrsxmCzZ8vBFz58wO6rUrLinFl99swT1Lbu+RQTWJRIxRI4YjIT4eSxcv5IMSqSnJqKyu9txeKkGyVuuWTfzG+nfDOiez2YJX33obI4cPx8icYX6bvbWYWlBdU4OZM6YHHNdbMCaUIAwJD7PZgg82bsLUyy7tstfcee6OGjHc7/Uk2OxGJ2+Zms4fA2RSWZfvV6jUKhWW3rYI327N5a/77X/4aM95jXS9HjpXDfz5kWUR3zdnULd9Nqjr515e/mEKgpJepd8HQ/c0NVAglBBCeoC15SehFLCYoNREeir9xvDsoRg/ZnTQDZT2/n4ARqP37Ej3bW0oOHIUwy4aivTU1HBMtccIVPczVM56o6R7ePsS/tlXm8MWDHxy1VNea6M5A02ffbW5rfai5xdFk9mMNf96PqglmjdcOws3Xjfb633eMlV91Xf0FngMl1179gIAfvz2SxQVl/LLq53BSZ0+tFIZ1TU1QS8Pz/1xB7+stCuWXYdjOW32kCH45vtcFJeUokGnR7JWi2EXDcX+g56NGSViR/B034GDGJkzDLk/7sAlkyeGNeCw4eONKK+sxMJ5N+H+Rx/HyOHD8dlXm/l9dP7/DdfOQlV1DQqOFHrsv6/MPF/Zoe2DYZQV2nWc7++dixcGfZ0BAme+e3tvP/tqs9tt6197GZkZ589DtUoVVHZjoNqzgOMHoK7Yr84amTOMPxdW/OkRrPjTIyHVDHUGQhfdehO/3B3w/WObP4FKsXgLSnsrwTJu9Ci3GsfFJaX45vtcLLrl5pDnREhP0O+Doa9WF0V6CoQQQtq8Wl1EwdBulJmejpuvnxN0zdDqmlocPXYi4LY6vR5HCo9j6IWDERvTNe+nt2XrAoEACrkcra1WvPzmupCzXtsbmJXlUR813HU/nfVGSfdo/yXc+SUxWZvU6bGvnj4N2UOGYPnKVaiuqXH7wrvh440oOFLodym8VCLhvzS7zs9XA6Likq4tx+K6rDXUTB+z2YKDhwpclsh3bq4SiRgLbp4bsE4d4Aj8bt/xU7fUUg02iO4MgrjKSE/DqJwc7D+Yh2MnTmLmjOmQSjxraDc1N0OvNyB7yBD8vOs35OUfxpmiIsyd4z0Y3lHDs4di7pzZfBB77pzZXoPq327NxeGjhYiN1eDHF78EAD7LU6NWYd7ipXzQxflDA+Ae6PSWGertNSLhUVxSioP5+Vj+8EOQiMUor6zkA9f+mvM4A3X+uGb++ssMDfXHDwBI1ib5PSa6cr8iyZnF68wIdTaH6swPsd5KsfjK0PZVgmVkzjBMvexSHDl2DCpVNJ558WVcc9V0TBznvwkmIT1Vvw6GftVQgUpL4AwXQggh3aPSYsJXDRW4VtP5wAQJrKikBBs//yLozNCikpKgxj1SeAz7D+YhRqPGxs+/dLvv0j9MRlrK+Vq7R48dx4effHp+TsWO5/jxp5+Rf+SIz+f2tmx93JhR+Ovjj0Iq6doapYBj3gfzO/7FfVTOcFw05MIwzoiEqv2yUV9LzK+YeZ3b3/4yijLS07B21UosX7kKjzzxJN8BvLuCc77sO3DQZ+3OrlBZVYWyigosuHkuAKC8sqLTY2akp2HRrTf57TzurHk59bJLe0UjHm/ZYK4kUgm0CQkAHPv/9P/9FQC6ZMnsxHFjA3bkHpkzDEMvHOwzmzgjPQ3/fXedRwbcltxtblmmTt4yQ0n4ZaSn4bXn/wXAcYzZ7XZo1I73VyIR44JBA/gmXt2Zlevrmut6jS2vrHQrZeJ6bPW0/Wq/8qCjNUyd9VGddu3Zi2StNmIZmP6a2DkbVk2aMA43zbm2m2dGSOf062DorqaGSE+BEEJIO7uaGigY2k0KjhSi4EhhSI8JVDO0xWTCr22ZRbk/7vC4Pyc72y0Y+tu+/fht336P7T7/+hu/zy2XyTB29EgAjmDp6TPnV3pIJGI89tD9eOyh+/nb7HY7vvk+F8++9CquuvIKLLv3bsjlwTftSklKwl23L0JKkuPYLKuowFvvbAj68e09+fgjuGjIhR7jku7jXDbq7Ja9dPFCt+CUr6XlgWSkp+GNF5/FilVr+EDq+tdeDio452s5cftan6tXPoHsIUOCmo9r7U7AMwDnS7BLWb1xDVKE0+QJ43Hy1BmYLRav9xcVl0Y0aBAsX8vsb7t1ntfti0pKPJa5elvG2lnOrNDJE8b7rOt4263zoFQoMHL4cOj1joZwrkEoXygztGdo0OnBMAxUqmj+tqlTpuDgoYKQGv4kxMej8PgJr0Gy9svkXWsEt9f+xyXXrE2NWgW73Q693gC1SuUWrG8f3AzXfnWG85rZ0WZR3jiXoi9/+CG0mFrwyBNPBl1r1TUYW1+v81kz2tcyeaf2Tex8rVjIyz+M3Xv2efyA6G0+hPQE/ToYerKlOdJTIIQQ0g5dm7vPrD/OwIN3Lw16mfzLb64LuEz+5KnT2Pf7AQDAHQvn47ZbHUGJbf/b4ZbJmZaaghfXegZ9nDU0H3ngXmSkOf6RbbVa8cU3W1BRWcVv94eJE/CHiRMAODq0/+OZ5/zOq7auHtt3/oTYGA1mzpjmFghtbW0Fy7IQCAQ+H3/RkAu9ZnKG2vio/evga1zSOS0mE2RS3xnCW3K34fX/rMe9d97RJdmSapUKM2dMw+49+zBpwji3enn+tG824/qls6KqCkMGX8DPN9hl8pu++BoA8OXH72PtCy9hzb+e7/JMKV816lyDf//+5+qQx1WrVFh2390+73et09eTOTO/nHUEnXVmnY2fJFLHcnmJWAy5XA5VtAr/fXcddHo91v77Jdxzx+KwZ746u1bHxjpKmwQKhq9793006BxLn1OSkqBNTPQ7PmWGdr1A1z3AkaWdrNVCJj3/GegsQ/HG+neh0+uDvia2D5L505Fl8ipVNBiGQYNOj4z0NLdgfXvh3C9vx6ovgY5ZXzVV23NmyLo2INLp9XjmxZf5IK+/c9LZ2d7Xtd3bMnlfQU1fy+SD4Tr/YGq+EhJJ/ToY2mSzRnoKhBBC2ukL12ZjixG6Bj3qdTro9Ho06PTQ6Rqg0xvQoNNBp9OjQdcAaysHq42DjePQarWCs1rRauXA2TjYrG23cda2/7eB4zhYrVbcveR23H9XcJ3TrVYrmo1Gt9uajEYAdlitHAyNjRCbRQHHsVhaYbVyAOxoMhqhNxjc7lfI5eA4G3J/3IG6+sArL9SqaK9BC2cNzQGZmRiePZTfB73B8dopFPKAY7dnt9ux45dfcfBQAW6+4ToMvXAwf9/+A3l45a3/YMHNczH1skvBMF3f+T4cps+eg/KKyi4b//En/4bHn/xbl43f1e5dusTnObLu3fexfcdPmDh+LIxGI9b86/mA3Y9D5fwCfNut87B7736sWLWmUx12TWYztu/4CQVHCkPKcNqSu41fop+elornn1qNZ196hV/C7xo4CCfncmknb1m2Or0en3zxld9x/C3PdOVcqulLV2UkPbnqKb/P66ozgb7yyoouDfI6S0ZkZqShsakpqMeMGz0K+w4cBODIEgwU7AhHZuirb/0Hr697O6j59Ue+rnvefpzwFezb+sOPHre9/p/1XZKJHIhMKkOyVovyygpo1Cps+OgT/PmRZW4/CHXFfgXbyMsZgPTH9QeuUBooAY4fspw/qEWSr0x210zT1SufCEvtbUK6U78OhhJCCCHBqq2rQ3VNLWpqalFdU4Pq2lro+eCmzvH/bYFPs9kc6enyCo+fxAOPLfd63+mzRfhu2w8hj3nPskc9bnvl2bVotbZi1569GDF8GOrr60Me1xehUIipl13a4cefKyvHd7nbMTArCzNnTINIdD74G6NRw2azY8PHn2BAZgYGZGWGNLbJZPYIDAfankROcUkpjEYj3nvzVWz4eCMA4J4lt/M1EMMREHXWwXM217numquxfOWqTgVEpRIJHnvoATz70ivIyz8cMDDmukzzjRef5Z/TUULCMc6KVWuw8s9/Cn0HO2DfgYPYvWcfiopLMTIn+P0PlHnm3M+ZM6aFNZgdrM40UHIqK69ESrIWgGOpb1Oz++oI531dqbKqCpnpacgeOhTr3nOU//AWAHHN+tKoVdi+4yecOHUK61972e/47TOeXTPcXJvuuNZJJOHj/HHCW4MjnV6PV996G/fftcTt2uSvGVJZeaXHdr6CkIG6tr/+n/UedUPvvfMOAI7rVUJ8PA4eKsC3W7fx9Z27ar+6Wll5ZVA/HACOz5G8ggL8+5+rA/5oFAx/y+S93e66TN41kx3wnVG6JXebR3YuIT0ZBUMJIYT0aw06PWragpt8oLOm1vF3bS1qa2tRXVMLm80W6al2iFqtwl23e/5DlwGD3w8dwv4Debh40kRcNGSwl0c7sir3HTiIvPzDuPzSi3HBwAFet4uKUiL3x/9BrVLj5uuvxdsbPvI5J6vVip2/7EKDTocrplyCGE3gjvOlZeX46dddGJCZiUnjg+9cauU4fP/Djzh99iweuPtOpKemut2flZmBBfPmYs2/nsd/NnyIPy27Hxq1Oujxn33pVTz70qtBb08iKyM9zWOZdftmFR3lGhRwzUTMSE/Dnx9Zhjvue7BTAVGJRIwbr5uNBp3O73bO4IKvIIRrQPS/mz4PeR6hMpstfPZUR2qw9kTOY0an1+Mv//cPn8vWXYMG7QMv7ZvHPLnqKdx75x1IiI+HqcUEpULRlhmXhJ2//Io1h57nA05bf/jRLTDZWRnpachIT0Ne/mGP+5wBX2d2r5M2MRHDs4diePZQt2x7Vy2mFr+BMleudSaptmDXaDG1oLyyEjNnTHe7XalQ4NW33u7UcmZvPwwE07XdX81QwJGBfMd9D2LShHGYO2c2AM8u6F25X+HirN289DbvAcn221bX1GDNyhUoKg6uHIo/znN10a03ub1Hvupie1sm7/rDk7NedVFJCb78ZgvuWXI7JBJxSMFeQnoCCoYSQgjp08rLK3CuogLnzpWhtKwMZeUVKKuoQE1NDWpq69Da2hrpKXaptJRkzL/pRrfbbDYbftjxE44UHscfJk7AYw/dxwcAnV3SXbudXzJ5Ip5+7kWcOnMWV0+/EuNGj/K6nHzudbNx4aBBHgHH9jjOhoP5BTh67AQmjB0TVDBUp9PjrXc24I6F80MKhuYfPoLvtv2ASyZPxPTLL/OYN8MwuGTyRMz64wxs/m4rsodeiJtvmAMhywY1/u0LbsHI4cODno+zJirpW1yXa3oL5IzMGYb1r73sNyDaoHPUh/PWzKJ95s6kCeN8fqkOlIkFnA/mOQO4Xanw+AkUHCnEx++sw6dffs0HJ/oKbUKCz47VuT/uwG979+PIsWMewdKlixdi0S03u2Wpbcndxt8fFxuDT7/8CtlDh6KpuRn337UE99+1pMtqhgarqLgUO3/5L+bNvR7llY4MQddu365kUplbRpk3kczU62/0eoNHsyu1SoXb5s/DilVrsH3nzoDvgfPHjVEjgv/c88XbdWrp4oVY9+772JK7DVdPn4byygoAwMwZ0/hrZvv9CMd+dTVn7eZg6kerVSqXc6bzwVCJRIz771qCFavW8Mv0AeDbrblur6uTtwZ4zvlPnjCeb5yWmZ6OE6fOYMPHGzF3zuygg72E9BQUDCWEENKr6Q0GlJ4rw7nyMpSVVeBceTnKyspReq4cZRXlvTajs6uYzRZs/PwLfLTpc4wekeORCensku7sdg4AGWlp+Mujy/D0cy9i5Zq1uH3+Lbjumqs9vvxq1GpMuXgySs+Vdes++dKg0+HTLzdDKBRi7nWz3brMAo6sV6OxBVbOiisvm4Lf8w7hs682Y+iFgzF6RI7fsaddfllIjZOcRuYMw+L5t4T8uPayMrI6PYaTleNQXe1e92zS+PEYGYYvu/1FRVUVsjLT3ZaktzcyZxhWr3wCLS0mr/dr1KF1bw+2gVJHuS6172gGotlswbdbczH1sktx4QWDsODmuVi+chW279zptQlKd3ANAHc2Y8xfwCUv/zBe/896v1mOlVVVKDhSiJkzpsNstuDgoQLMnDEdDTo9NBrHdfn02bNQKhTQ6w0e17Cu2i/AM4uwvLICu/fsQ11dA9auWomvv/0egwcORFNzMzZ98bXfALyvrOmOuHfpkg4/tr/z1nEdcBzHjy97EG+sfxeTJ4x3O9fb14H0lYXpq36uc8m7L94aDDmPEWf29PSpl2PDR58ge8gQ/kcAVXQ0vx/h2K9w0usNqKs7Xzvd2bBv9conIpYV7yxNsSV3GyZNnQHA8aPa/XcFPp+KS0pxMD8fyx9+CGqVig+GAsDcObOx9t8vYfuOnwAEF+wlpKegYCghhJAer7KqCqfOnMW5sjJHoLOsHGXl5SgtK0NTE3WfD1ZlVTXeencDtu/4CTOmXo77ly7x++XaVUZaGlb86RG88NobeO0/65FXUIDbbp2HwYMG+u3CHin1DQ144+138etvexAdFYV3PvwYLMsCdqC0rAxV1b6bHmz4eCPSUlIQHxfrcZ9Ob0BRcUnY5pmZkQ51kO+Bqzdffj7wRkEqKi7BNTfe7HbbnNkzcXW7L7vEt4njxmLiuMAZy5HOTupu23fuRHllJf+FOyM9DYtuvQkbPvqED0b4apAUjswzb84Hc6aFZTmnWqXC0tsWOYK+U6bwDYLWvbcB9955h9/A35Fjx/hl5i2mFjQ1N0OjViH3xx0YPGgAPvniKyRrtRgy+AIcOXbMbwA53Pvl7NztDG6UlVfyS/M3ffE18goKsGblCgDAilVr+Ew+b5yZyAtunutRa9BXcM2bYBsHEt9279mHK2Ze5/P+9o2GnCUOnMvgncu22we9gq2fC5z/oWX3nn1YvfIJj7rAZrMFa/71PAqOFPId0Ne9+z6Wr1yFtatW4sixY3wZiXDtV7i4rhL4dmsuMjPS0NCgw7133hHx63/7wLPzNQvUHMtbpqiTWqXC8v/3EL+EvreXQCH9CwVDCSGE9Difffk1Tpw8heOnTuPEyZMwNDZGekohEbIs1Go1YjRqqNUqaFQax/9rVNBoNNCoVFCr1ZBKJRAKWLBCIYRCIViWhZBlwQoFYAVtfwtZsCwLkVAEAStw3B/kEm4ns9mCnb/uwoaPN6L0XBnmzJoJnU6P2fMW+HzM6meex+pnPANukyeMw+yrr8LXW77Hrj37cMnkiZg751pkDx0S9NLy7qDT6XHshKPDrKHQVU3BAAAgAElEQVSx0a15iUwmw4hh2RCJRYiOisLArEwwDAMhK8TeAwew/0AevvxmC25feKvHPpWeK8Oy5U+EbZ6vPLu2Q8FQEl7+upa3/4Lt/OKoTUwE4L0BSDBcl7P7a27hj2uTi2C1/0LsKzvItclNR2zJ3YYNH32CtatWun1BnjplCk6eOsP/3T5TMJSl+0XFpdi9Z19ISzOdWVsdyQxzDeJ407425u49+zyODWdAUa838N2xJRIxtu/cCaVCAZUqGtU1NcgrKMDyhx/C+//9BAOzsrDx8y8wbOjQLtmv9gyGRvy86zc8vuxB/r1zHqt5+Yf5QKjzvjUrV2Dtv19yy9zzxhlUycs/7Ha833DtLJ91R0n4BGpI5spbczJnprdr0CvYmsuuS9n9XVtcz//33nyVD+wvXbwQKcla/rhZ/9rL/H2d3a/2Pvtqc1B1bgHHsevkDIROvexSvPfmq3j2pVdwz7LH/AYaA5U0CYZrXWZX7a9X3gLP3rZz5Rooda1zfO+dd/D7tGvPXiRrtZg6ZUqn94WQ7kTBUEIIIT3O39Y8HekpeJBKJEiIT0B8fBwS2v4XFxsLjVrNd9bVxGigUasRpVRGerq8k6fP4LmXXkXhiZNITIjHXx9/FBdPnohfd+/BBYM8myEVFZcg98cdmH7FZcjMSPe4X5uQgEsmT8TkCePx6rq38fOu33Di1GmseOz/YcRw9wyoo8eO48NPPuXH7SpmiwUWswVil2yo9PQ0XHfNHyESiZCZno7UlCSIRWLI5TKv9U6dhl54AUrPlSE6KgqclfMZ4F1w81zcdP21HZ7zJ59/hQ82burw40l4hfJl2lWgeojBiolR8xlQwfLW5CKYL9btO3t3heKSUnzzfa7XIIBEIsay++6GTq8PeVxvX9oDZV+2d+TYMcTGajq0nLOzAWIns9mCV996G4tuvclt7jNnTG9XLxD8fx8pLER9g+/mWZ3ZL6eROcP4/Xv6//4acBsntUrltn2gY6yj5xvpOq4ZjU7tsxkrq6rQ1NwcdImL9k3CXANovvgLrnbk2hXMfrV3w7Wzgio1se7d992CkNrERMydMxvXXDWD348tudtC+qEr2MZovsoLuM452OtVsNstXbzQ62eMr/elOz5rCOkMprGp2R7pSUTK9GO7Iz0FQgghXpQv7HxwIVgCgQAJcXGIi49DYkI8EuLiHcHOuDjEJyTwgc/oqKhum1Ow6mp9L/V2ajGZ8Mbb78JkMuH2BbdCm5jgd/tt/9uB1c88jycffyRgTcwWkwnffLcVsTExuPzSi/kgY+m5MvztqWdw+uxZj8e88uxaDB40EC+/uQ5Hj53A3594HGmpKR7P/8qzazE8+3wWVMGRQjzw2HLcsXA+brv1/JLuquoavPzmOvy86zckJsTj0Qfvw/gxo/0GPP2xchwMBgM0arXXMXzNI1TvfbQR69//0GM/gxUbF9/h527P2zL5Z1b/vU8sk7eYvdfnJP2Xs1t1ODKyepK+ul+uxBJppKfQK9B1j/QmdF6TSKHMUEIIIX0ay7JITUlBWkoyUlNS+P/WahORmBCPuFjPupB9iUwqxYP3LIWAYcJe21MmlWLuHN/Zka4BQ2eQM5xOnDqNl954CwVHCjFp/FhU19Rh9TPPY9EtN+GaP86ATBr6P7CFLBtUd3tCSO/UV4OFfXW/CCGEkK5AwVBCCCG9nkajbgtypiA1JZn//9SUZCRptZGeXuTZ7fjfz7+isro64KbO5ex79x9AdU1twO21CQmYcvFkCIX+/0khl8kwdvRIiMUi/rbTZ89iwdJ7vW7/wGPL/Y5XcKQQa194CaXnyrDg5rlYMG8uzpwtwnMvv45X3nobm778GhPHjcW40aO8li2QSCVITkwE2pI/jcYWj6ZKLSYT5HJHfdH2amprkZd/2O8c/ampDfzaEkIIIYQQQsKPgqGEEEJ6heQkLQZkZrpld6amOgKfcrk80tPr0TjOhoP5Bdj83dagH5P7446gtpv1xxm4eNJEuMZCFQo5rp4+FSnJyfxtf5g4AX+YOAEAYLFYoFGrMXb0yKDnYzS24Oix4/zfalU0xCIxrrvmaiyYNxcyqRTZQ4dg7aq/4qNNn+O7bdvx1bff4atvvwv6OdrLSEvD31d4D8pu/m5rSK8nIYQQQgghpGegYCghnSBnWShZIaot5khPhZCw6CnH9B8mTcCgAQPa/peFgQOzIJdRwLOjxGIR7l1ye5csoxSyQrdsTwCI0Whw43Wz/cxHjCWL5of0PM5anU7JSUmYd+McjBs90m05fHxcHJbdexfuun0RikpKceZsUYcatTjHSk323pmZGigRQgghhBDSO1EwlJAOSBBLMD8xA9NiEnG42YDHTx2K9JS61PXxqRiqiMa/S4/DyHGRno5fV8Vq8VjaEMhZFmdNzZh/5Legtt3fWI+HThzs8PMuTR6ABdoMiBhBUGNdGZOIZakXoMHaiu31VfiuvoIPQC7QZuDq2CRsqi7FFzVlHZ5TqGbFJWORNhNChsHqoqP4vbGh2567vTdfeiFiz90XMQwDhaJ3B5OHZw/Fzu++5v9mWQGmX+G7wZNMKsXQwRdg6OALwjoPtVqFu25fhAGZmVBFR3d4nGEXDcVdty+CWu2/YywhhBBCCCEkvCgYSkgHLEkagJlxSRCAwUilGrPjUvB1bfiDVjNjkzAmKibs4zqZ7Ry+qa3AkWbvWVNylsXj6UNwuSYBLBgIAPyj6GiXzac/maKOR4xIgliRBDaNHZtqSgEAT2ZehD/GJoEBcGN8GvIadThrau7y+cxNSMM9KQMhE7CwA1ikzUSh0dDjg9+EdLe0lGTMv+nGTo8zafxYTBo/NgwzIoQQQgghhISCgqGEdMB/q0owMkqNNIkcSlaIq2O1+KGhMuyBoxylGlfFdl3zFyPH4VCTzmcw1Mhx4Ox2RyCUYXCFJhFFJiPeryzy2NaZ6SgThOeyUmxqxpJj+8IyVk8zRR2P0VEaMAAsNht+bKjmj53tDVUYGxWDBLEEmTIFlqUNxsMnO56xGqxv68pxsSoOY6NjwAAYFaXBkqQBePncyS5/bkIIIYQQQgghpLtQMJSQDjhrasYP9VX8sugL5dG4IT7Na5Cwt3uu9DhSJDLkKNWQCAS4IT4Vp1oasVtf57adkGEgEwghZ9mwPK+03Th/yRiKWXHJPrb2LkuqwK4xU4PadmxUTFDbttpt+KCyGOvKz4Q0F1dXxiRCLRQDAIpMzfi0LSsUAHbr6/BdfQVuSUiHWCDASKUad6cMxJtlpzv8fMEwchw2VBYhXSpHolgKIcPgqlgt8pt02KmrCTwAIYT0QAKBADabLdLTIIR0kkAgiPQUeg267pHegs5rEkkUDO0Co6M0mBWXjGyFCnEiMSQCFkzbfWabDXprKwqNBnxfV9HvggxjojRYmZWNeJEEALC5thxPFxdGZC4jlGr8JWMo4trmEiqGAZzvrEQgwB1JWbhNmxnyOC02K148dxI/1Ff53a6zNS2d2r8HgRg5Du9VFmF5+lAkiCVIEEtwb8ogVJpNbsu3rXY7WmzWTs/PydRHl2dfGZOIcVGO7EuzzYbtLlmhTu9XFmGYQoUxURqIBAKMUqq7ZW6/NzZga30lbklMh5ARwMhxkArCE9wmhJBIYAQCgIIChPR6DAVNgkbXPdJb0HlNIomCoWGUJVXg4bTBGB2lAcswXreRCARtAaV4XKqOxwljI94oO409hjqv25OuI2QYyFg2bJmMkk5czIU+jpeeYre+DpvryrEwMQNigQADZUo8nDYYfzmTzwfyfqivChjQ7Ywva8twsClwQ59ksQzztRmQCViUmo14p+JsUNvmN+nwZRB1X2124KSxMaS5u5odl4xooaPz9nGjAZ+5ZIU6GTkOn1aXIk4kxl5DPd4s71hW6NMDc5AikYX0GAZAq82OFnsrTDYO87UZmK/NCPrxDa0WvFF+GoXNhhBnSwgh4ceyQthsNtgpMEBIr8UIBGBZ+toaLLrukd6AzmsSaXT0hckkVSweThuMNEnw3XoZABfKo/D3rGy8WX66W7tGE8Bo41DU0gy9tTWi8zDbOBis4cuo7Cpvl59BplSOKzSJYODIrF2ozezy5dtOhc2GoAJsV8VqYbc7/ttqt+P7usqgtrXYbX63bW9MlAbx4vPZtaq2ACcAiBmBW61Xg9WKXfpazE1IQ7bC0TnaDmCwPApfD7/E7/PMjE3GzFjf5QH81VZNl8qRJVUEsztesHzQNhQ1QjPklE1KCOlBhKwQrTZLpKdBCOkgIQVMQkbXPdLT0XlNIo2OwDCQsyxuTcxwC4Q2cVbs1tdht6EWBxobUG0xQ86ymKyKwx9UcZgQHQt1W6AhWijCIm0mSkxG/N4YOPONhEdhswHLAjSmmRGjxQJtBn7W1eCtEGtE3pU8AAliKd4qP41qi7kzU+0x1pefxQCpElkyBZptVjRzPS+IW2pqwbaGSkgYFtWtpqC3PWNqCul5bkvKxNioGK/35SjVyHFZ2n7W1IwKcwuui0uBrC1QyABhWYLevrYqIYQQd4xAAFYoAhfhHz8JIaFjhSJaStsBdN0jPRmd16QnoGBoGFwVk4SLFNH836dbmvDP4mMeHbqNHMcvJc6SKrAi8yIMVUSDAZAglmJ2XAoFQ3uQ/5c2GNfGpUAsEEAlFKGgWe/RNMiXbIUK02O0SJbIMFKpxnuVRdhcW97FM+56Z03N+Li6BOOjY7CxqtRnF/qu8mj6hfhjTFJIj7kxPi2o7S5FPBZrs/xuE2x9V29uSUxHhtTxg4nVbkeZ2YhWZ1pqO0liKRSsMOB2AFBmbgnq+YMtA9BZJpsNhUZaIk8I6VlYloVAIABntcJm65s1qQnpSwQCFqxQCKaHl5Lqyei6R3oaOq9JT0LB0DAYGaXms72aOCs2VZ8LGCQ6a2rG2xVn+AY+DIDhShWyFapuDzAR734z1GGKOgEJYgniRN6bBvkyLzENSW21GuPFkpDrNvZk39SW45sIBXbFjCBsNV47ylnf9b2KImypq+BvH6ZQYVZcMkSMwCPwmCyWYV5iOgRtj7XYbHivssjnsvwPsyciixUG3C4UoZYBIISQvoZhGAhFItjtjnp68PNDEyEkQhgGAoGAgiVhQtc90iPQeU16IAqGhoHapa6eztqKvCCavACOpjR5TTpcqUkE4Kg5OFQRRcHQHmK3vg7f1VfgloR0vmnQHclZ+OuZw34fd01cMsZHx4KBoy5kXqMOGyqLumXO/UmVxYTGblqm78zUdNU+i9u1TIZr4DFLqsCtiRlQUl0cQgjpERiGAUslRggh/Qhd9wghxB19Ow8ziUCAeJEEJSZjUNuXmoxotdvA2e2w2GxQCPy/JdkKFW5OSMPoKA1UQhHftd5ss6HKYsLP+hpsqi4NukZluMe7JTEdf4xNQqpEBqmAhR2AkbPiaLMBH1WVwGoPrquhnGVxfXwqpsdokdI2ljO42MxZUWxqRm59FTZVe3biDqc3y05joEyJP6jiwAC4RBWPJckD8LaP+qGOeacgqi3wVWFuwVvlZ/iO631RR5auh8JXg6C9hno8XVzYZc/rypmp2RH3pg7CQJkyzDMihBBCCCGEEEJIR1AwNAwqzSbYoxwNUWKFYlwdmxR07c915WewLsjGPP8vbTBmx6VA4qXYsEQgQLpUjvnSDFwVk4R3Ks7i85pz3Tbe6CgNHky9AIPlUXBNfmcAKFghxkXHIEepxg8NgWstjo7S4NG0C5EpU6B9Ij0DQMkKka1Q4SKFCjNjk/DSuZM40IW1Vt+rKMIAqQLJEhlYhkGanyXvS5IGYJAsCoCjZMKHVcVhy/QdGxWDXWOmhmWsYCzPGMJ3Pm+vodWCN8pPo7DZ0OVL13tzg6C7UwZifFQMGDiWxrfabR4ZpoQQQgghhBBCCOk+9K08DPY3NmCKJgFRrBAChsH0GC2SJDJ8WVOG3PrO1+iTsyz+lD4E0zSJfM1BOwCd1YK6VgtYhkGCSAI5K3QEZEVi3JMyEHKWxQeVxV0+XpZUgYfTBmOQS/abxWZDpcUEi92GWJEYaqEYEoEAV8Vo4a9STbpUjofTBiNLpuDnZeSsqG41g7PbIRewiBdLIGIEYAAMlkfh4bTBePJMQdDZuKE60qzHd/WV+GOMFh9VlfgMCk9SxWJaTCKEDAOr3Y7NteX4oqbrG9Z0lRSJzO09dVUjNEMehk7o4TBCqeZr74bTgaYGPH7qUKfGsNpssNrtEAHIa9IhXizpcIYpIYQQQgghhBBCOo++lYdBbn0lJkTHYEaMFgKGAcswGKlUY4RSjT+lX4giUzP2NzZgv6G+Q93iF2kzcYUmAQKGgR3AObMR68rPeHS0XqDNwK2JGVALRVCyQtyUkIbTLU0eHdDDPZ7rMmA7gENNOrx67pRbRqTrWP5cE5uMTKkjEGqx2fBNXTleKzvltsw8W6HCA6mDkKNUgwGQKVXgmthkvFZ2KohX07srYxKxLPUCyAKUKbgvZRDuSxnk9T6WYfgsWwGA6+JTcG1cit/xWu02/LeqBO8FUVO02NSMwubGgNsFIhIwGB8dyy/l76yniwt9LldfmjwAC7QZEDECWGw2rK8426n6qRa7jT8WLG0lF4QMAxnLhj07VeqSMW3iOBg5Di02K6whFJ5/u+IshAIBxkZp8GLpCaweOByA4weJlZnZWJmZ7ffxgbZrtdvwQWVx0NnlpO9hGAZ2aobQ71ADAkIIIYQQQjqOgqFh8lzpcXB2O2bEaiFiHEEU5xLxbIWjS/xt2kyYbBzOmVtwqEmHLXUVKGw2+B03W6HC9JjzY55uacLfzhz22tH8g8piNHNW3JsyCEpWiFiRBHPiU92Cl+Eeb3qMFiPagpIAcKCxActPH/Kokdl+LF8Gy6P4bt3HjY14tuS4xzZHmvV45dwp/GPAMGjFUggZBkMUUT7HDIaQYSATCMMWUBMwDGRM4LFa7QzEXsoUOFVbTDjV0gTAsd9ri491em5DFdGIZkXQiMQw2zgYrN6bED104qDb31fFavFY2pCgX6N0qRyXquP5Y+2MqQmf1nSuxutzJcfxnJdjwqmRs2KvoQ6tto4Fh+LEYoxSavjauU7eapYG682y03izw48mxD+hUIjW1tZIT4N0M6GQ/vlGCCGEEEJIR9G/psPEyHF4qrgQv+prsUCbgcHyKD4I5EoqYDFIpsQgmRJz4lJQZGrG5zVlPpdeT1HH88t/W2wcNteWew1cOn1RU4ZRURpcqUkEA+BCeRTGRGn4jNRwjzc2SsMHNxs5KzbXlvtsFvRFTRlGR2lwRdtY3ghc7pAIHLUovY13pFmPk8YmaIRitNg4tHDBNWYKhtlmQ7m5BZzfBf3hYbXbUddq8Xn/2xVn8XbF2bA+Z2GzActOHgy8YSfNiNEiXerosN7EWfFljeexsTgpCwOkCvyzpDAsTaZMNg5f1pR1KAMbcGSyjlCqwfo8QoPDgMH18amYEB2LYcpo6FpbMf/ob/z9FpsNvxnqfO7z2GgN4kSSgNtxsOOYsfPZwqT3EkskFAzth8SS8JYFIYQQQgghpD+hYGiY7dTVYKeuBllSBa6K1WJcdCzSJDK+/qYrAcNggEyJR9IGY4o6Hi+UnvAITA5RnM+UrGu1YI+hDoGcMDbiElU8JAIBolkRhiqi+eBQuMe7wKVhUq3FjF/0NX7H2mOox2RVHGQ+6k02tLbCDkdW7SCZEmsHjsBHVcUeS/MBYPnpztVz9MXAteL50uMdDqgRRx3ZK2MSIWIEsMNRL/Pr2vP1UxPEEqzKGobhSjXsdjta7Tb8o+ho5CYcBq7H9JgoDcZEafi/dVb3YJXVbscOXTW+r/NeU/jD7ImIE0kCbkeIVCpDS0sLbGH4MYH0DgKWhVTqu5EfIYQQQgghxD8KhnaRs6ZmvF52Gq+XnQbgWJp8qToeY6M0yJQq3IKjAobB2OgYPJw2GH85k89ngclZFvEuTWE0QhFWDxge8LlFbXVLAUd9yESxtEvGG6FUQyMU89vVtJoDZveVmoxotFohE3sPhv6sr8GE6BhEC0UQMAzGRGkwOkqDJs6KopZm/KKvxS+6Gr/ZrL3d0wNzkOKnY703ZeYW/OV0Pv/3ZFUcbk/KhCTEJkfhWop/fUIqUsSOfahrNeOLdpnP1RYzTrY0YZhCBQHD4BJ1PK6PT/WZId0TTY/R4hJ1HC6URyOxramXN878Yl/NqLqKnGXhOqNwZk+TnkWpUMJg0AfekPQJSkX3XksIIYQQQgjpaygY2k0Kmw0obDbwtQOnx2gxNyENQ+RRYBkGDIBRURosSRqAl8+dBAAMlUdD7lJfU8EKQw6oCMBA3BakCfd4EoEArEu6a5XFFPDxh5p0aLZZAXhf4vdDfRVGKNWYFZvM19JkAESxQgxXqjBcqcLdyQNQ02pGXpMOm2vLcaCPZXCmS+XIamsiFaz2NS6jhUJkSZUh10DVWX0v2Q/WmCgNLlXHQ8AwsNnt2Kmr8ZrZ+3rZKVwgUyJHqYaSFWKhNgPFpuZOZeTGiyR4efDozkw/aLckpuNCufdatRabDSVmI37T1+F/uuqAtYG7QvvzPRzvLemZRGIxlFHRaGrs/uOMdC9lVDREYnHgDQkhhBBCCCE+UTA0QnLrK5FbX4n7UgbhpoQ0iAUCCBkGE6Nj8TZ7Jiz1E7tajEgcsPt6RzxXchwnjI24OSENmVIFBO0CfQLGkZ06I0aLKzWJONDY4LXEQG9nh6MGpq9G0QzjqEEbqLolZ7fDbPOdFShgAEkQ4wTr5sR0vi7tGVMzNlV7b5pk5Dh8XFWCNKkcGqEYCWIpFmkzUWg09Irjv5E7v/Td+V5JBAIIwCC/WefRgKq7yQQsXxKD9H0SiQRCYQyMzc2wWMyRng4JM7FYArlCATZMTf7aYwSe1wrqWE8IIYQQQvoqCoZ20jODRmC0UgORgEGVxYzHTuWhxGQM+vGvlZ3CCKUaw5UqAI6MvmEKFfYa6j223d9YH9YAS2fHq2+1oMVmDVsHdleba8uxubacr706SRWHVIkM0nbLvtm2EgNPZl6EB08e6BVBtGC1cByeLT3ms15ksN3dS8xGzD/ym8/7lyYPwAJths9l3qGYm5CGMVEaMHA2TSrzez7s1NUgR6nG3IQ0CBkGI6PUWKTNxBtt5SVCVddqwYbKIrdAZSiGKVSYFZcc1GtRbDIiQSTF740N+KauHBer4rBAm+ERvI8UtUjMny+tdhtqWylA1texLIuo6GjYbDa0trZSHdE+QMCyEIlEEAg6f30Olc3W9U0ECSGEEEIIiQQKhnaS3Q4+GKUSijBEHh1SMBQAikzNfDBUJhAiRuRYAlfTanbL6ItiRZ2aa7jHM9ts4Fy+KzlrifqTLpWHFHRrX3t1kioWl6kTMC46BoliKRg4ltEPlClxY3waNlQWhbgXDkpWiB4Sw+q1sqQKXBeXApmAhR3AHkNdUDVA3644g2xFNHKUaogYAWbFJaOw2YCdOv/NuJx+b2zAtfm/dHL2Dt/XVeLZkuNBbftcu+0uVsUF/TxylsXKzGyszMzu1Hatdhs+qCzGuvIzHvcli2V8ZqjVbkcDLZPvNwQCASTUbZyEQOAlM9Tma1kCIYQQQgghvRwFQzvpnNkIzm4HyzBQsCzGR8cgtz60zs8yl8y+FpsV9a2OoEWJyYiGVgtS25rpxIskmKSK9Vp/MRjhHu9Qkw4NVgsSxBJ+PDnL+s3OHCRTIprt+GG3W1/Hz/eB1AswNyEVIkYAsUCAQfKON5XQCMV84KiJs1In+RBlSRVYkXkRMmWOWqc6qwVWux0rM7MhYIAUiRyStsymaFYEZdsxIBIwHsFxjVCMWxLTsa+xvk9l+na3VKmMf21NNg6V5sA1fQkh/ZMAnj9S2vyUVyGEEEIIIaQ3o2BoJ+1vrMeMGC1iRGIIwOBSdTzmxKfgi5qyoB4/JkqDEUo1/3ddqwWHm893BT7R0ohsZTQEYKAWiXCxKj5g8PLB1AtwQ3wqONjRaLViQ2URn6EX7vGONhtwgVwJARhoJVLMjE32WSPSsb8xUAq9H3aODuhZSJHIIBEIsLGqFG+V+14uvVtfi2kxiYhvq08Z3YlM12ihyKMJEQnOIJkSf8vKxkCXZlwaoRgzYrQdHvMihcqtmZg3f8kYillxyR1+jmAZA5Qr6AiLzYbfDHU+g71jozWIE0kCbsfBjmPGRo/b5SyLgdLz74fB2ooDTRTgJ4R4x3hbhk/BUEIIIYQQ0kdRMLSTduvrcLCpAVdoEsHAsdz6npRBUAnFeLfirN/HZitUuC9lEN9sxmq34/fGBrfAxy59LS5XJ/DB1mkxiTjV0ugz2DpJFYupmkS+E3sLw6HC0tJl4/2ir8EUdXxbMyUWs+KSsd9Q77WZ0SRVLC5Rx0Hgo1VPg9WCGJEYaqEjqDlRFYMPqop8BoJSJHLI2moi2mBHqTm08gSuEkRSfl51VFsxJKdamlBkasYAmdJvEybXhlBNnBWGtrqeVRYTGq1WAMAwpQqpEsfy7qtitchv0gW9XL43sdrt2KGr9hlg/TB7IuJEkoDb+XKxKh5x4vPLpEtMLZRlSwjxydtvgbRMnhBCCCGE9FUUDA2D9eVnkSFVYFBbZlwUK8TS5AGYHZeM3fo67Gusx9627K4sqQLjo2NwiToeFymi3RoCFZma8VWte1Byt74Ou/S1uDo2CQKG8RtsnRWXjNu0mfyydZvdjl36WrfMz64eb6BMidUDh+Ol0pPYY6hzG2tJ0gA+8OtNYbMBh5v00MY4aoEOlkVh7cAReKPsNI64ZMsCwCXqeCzQZvDLrfXWVuz30nQqWAkugaNq6sQcsh/qqzBSqYGIYVBmbkGp2QidtRXHjAYYrFbs0tcGNc7chDTckzIQMgELBgzixcHVPfyxoRq/6MMbNL09KQtpEnlYx+wuI5RqKNrKb1hsNo/zhxBCXHnLDKVl8oQQQgghpK+iYMeL39UAACAASURBVGgYOJr8nMLDaYP54AkDQCuWYk58CubEpwQco8jUjBdKT3htvvTCuRNIEEsxLjoGDM4HW+cnpqO61QzObkesSAy1UMxn5tnhaCzzwrkT3TJeoliKsW3jZUkVeG7QCFRaTDDaOLex7ADssPvMDv2kuhTZimgkS2QQMAzGRGnwxoVjUNdq4TMJY4SO7FFn127ObscvutoOZxBerIrjg6GtdhvKzS0BHtH/ZEkVuDE+ja9vKxOwyJAq+NqqO3U1Ycng3FRdijFRGkSxQrzmJQjuSzNnDesydgBYqM0M63jdJV0qx5goDX+O1VstVAOXEOKXyEv5Go6yyQkhhBBCSB8VfFtv4tdufR0ePHEAP9RXwRJCNoXFZsMP9VV4+ORBHPARsDByHJ44k4/c+kp+bAaAghUiqy0jVeMSuOTsdvymr8Oa4qNel8Z2xXhrio/iN30duLZldQKGQbJE5jaWHcB+Qz1KvQR8nY406/Fc6XGUmIxwLtBjGQYJYgkGyZQYJFM6lvi3BULNNhs+rzmHp4sL/bzK/uUo1YhqqzfaxFlxwksNxv5skioW/xyUg4sU0fwxoWSFWJyU2am6oL78+XQ+7j9xgLIZO+ia2GQktzVJswMoaNLTa0kI8UssFnvcZm5r5kgIIYQQQkhfQ5mhYVRtMWPl2cPIkipwVawW46JjkSKRQS5g+eY8dgBmG4faVgsONjbgv1UlXutrtmfkOPz97BFsjirHnPgUjFJqECUU8t2iObsdemsrjhsb8XVtWcAsvXCPV20x49FTebgqVos5cakYIFNAzgrBwJFtec7Ugm/qyvFxVQk+zJ7od6zd+jocatqL6+NTMT1GiySxFDIBywdAW+021LVakNeow2c15zoV6EmXyjFJFct3ki8xGfFLkEu6+4Nr4pJxb8pAaISOL8pGjkNNqwnpUgXiRBL8JWMo/qCKwytlJ6m8QAgYBkgWy3BVrPdgsvN4DLSdU7HJiMJmA7IVKlyhSeAf38RZ8Ssdz4SQAMQizwaEFnPfDYba7XZHGQCqi0oIIZ4YBgKBAAw1lw0r+uwhEUXntQcKhnYBx7L503i9zHcn9I460NjgM4O0J4z3fV1lwOXK84/8FnAcI8fhg8pifFBZHK6peXVtXAoypAoAjixd13qokSZnWazMzMbKzOxOjZMlVWDXmKkhP25JUhZuScyAvG1pfBNnxbryM9hvqMffBwzDIJkSYoEAV8Yk4mJ1HIpMRpxuacLRZj1abJ4ZxDUWs8/l2nKWxfjoWEhd6tYJGQGGyKMgFbDYZ6jH1nrfx5WCFQYMGIZK2IUfFDIBizuTB4Rtu8215ShsNmBeYhqS2rJCAaCgSYdcP68bIYQAgETiWZ/ZYmmNwEy6lt1uB2e1wublM4oQQsh5HACBgAUrFFLwpJPos4f0FHReu6NgKOm35sSnYFZcMh/0OmNqwqc1pRGeVc+RJJFByjqCk85A6KZqx+vztzOH8XDaYIyO0oBlGEgFLIbIozBEHoWZsUlhnUcjZ8XeAM2xrtAk4ApNQlifN5BbEtMxQqmGkeMgYIDhSjWfWW2LwA++d6cMxCWqeL6UQYPVgs215d0/EUJIryQSidDaej4Aauljy+Q5jgNn7XsBXkII6So2GwebhQMrFIFl2cAPIB7os4f0NHRen0fBUNJvXR2bxHejb+Ks2Fxb7rUmaqS02Dh8WFmMcov3hk7JYhnmazMgE/i/iJWajXin4qzP+4cpVJgVl8wH8py+qCnD6CgNYoRifFZzjg+EAo7s52UnD+KqWC3mxqdhkFzp8fhwKWpp7pHZjSzDYEJ0LCTtujBb7faAdWcDvbehMlitmJeYBpHAGYy148eG6rA0tSKE9A8yqdQtGGpqMUVwNuFlt9noyyghhHQQZ22FgGHACKjdSCjos4f0ZHReUzCU9GPrK85iefpQxInE2NFQjS9qyiI9JTd2O1BuafFZduCqWG1QJWesdrvf0gVpErnX24806/GzrgYyAYs3fZR8cJZFcC5zH6lUI5r1rD3XGb83+s8KBRzLxDvTRMubD7MnIquthII3ta1mvmGYkx1AkakZ39VV+B070HvbEXlNDXg4dTBmxGqR16jD62WnwjY2IaTvU0YpYWg8/0OOoanvNBO0ctZIT4EQQno1K2eFSODZbI/4Rp89pKfr7+c1BUNJv7VbX4f3Ks8iR6nGC+dORHo6vBKTEZzdDrONg8Hq+0PUYLXirKkJEgGLMnNL0Pe1V9dqwemWZggZxmPbf5cG97oYOQ47Gqqxo6E6qO3DwWK38Zm8Frst7OObOA5GjkOLzQqrl6jz0WYDvqkr54O/RpsV+xsb/L4GgcbsDCPH4aniQhxuNqCgSdejspwJIT1ftFIJ18IahsamiM0lnDjOCrst/J8RhBDSn9htNnCcFSxL4YNg0GcP6Q36+3nNNDY199t2ZtOP7Y70FAghhHiRO2RSpKdASL+y+O77sf/AAf7vcWNG4Z03XovgjMLD2mpxdO8lhBDSKQKBAEJR/80iCwV99pDeoj+f1/23QAAhhBBCCAEAxMVo3P6urQtcoqQ3oC+jhBASHnQ9DR69VqS36M/HKgVDCSGEEEL6uaQkrdvflZVVEZoJIYQQQgghXYuCoYQQQggh/Vxyu2Boi8mEyuruqwNNCCGEEEJId6FgKCGEEEJIPzcwa4DHbQcO5kVgJoQQQgghhHQtCoYSQgghhPRzI4ZnQ8iybrft/f2Aj60JIYQQ0lE6vR73P/o4tuRui/RUwqqv7hfpmygYSgghhBDSz0kkEowcMcLttm3b/weLxRKhGfUuxSWlmLd4KfLyD3vcZzZbsOZfz2Pdu+/7HWPdu+97fbyT80umv20IIaErLinFfY/8CcUlpW63+zon8/IPd0uwx9e8AGBL7jas+dfzMJvpGt0b7dqzFwAwecL4CM/EP9dj0N/x6NRT9mtL7jav56i3z9Fg9gtwnPeBPse7S7BzdtLp9fjL//0j6O37C2GkJ0AIIT3FCKUaJ1saYeS4SE+FEEK63YSxY7D/wPlsUL3BgO+2bsO1s2ZGcFbhZzZb8OxLr+CzrzZ36PGrVz6Bq6dPc7utQadHbKwGmRlpHZ6TXCbFt1tzMfTCwZBIxB0aZ0vuNjy56qkOPfbeO+/A0sULO/RYQvoas9mCwYMG4I77HsT6117GyJxhABxBhXXvbUCyVoupU6bw56pOr8eKVWuwe8++kJ6Hzrv+R6fX49ut27B7zz5cMfO6kB7rPBY7erwBwA3XzsJjDz0Q1OeMShUNVXQ0ACAjPQ13Lb4Nc25d5PVzMBz7BTiCjnfc92CHHw8AMRoNXnj1TSRrk9xu7yjneT95/DiYzRZs37kz4Get83VuMbV0+L0CgMGDBmHtqpXISD//74uM9DSMysnBBxs3+X0vnf8m8DYGoWBon3ebNhPzEtMhYgT4rr4Cz5Ucj/SUCOlxJkTH4p6UgRgkUyK3vhL/KDoa6Sn9f/buPC6qev0D+GcWZmEbdgYQkNzXXDPL1DTRNDVvu5WWZaXellu/srLLvZl2s8WyRSvSXMpKb1mmlpC53Mqrdd3QRMQFkB2EYR9gZn5/wIyznIEBZmH5vF8vX8U5M+d8z5kzA/Oc5/s8RERuN3PazVjzyVro9XrTsvc+SsRNE26Ej4+3B0fmGkJf5ppiDKIK+f3IUQwZNAgBKlWrxiKXyzBm9LX49dBh5OXnt+kLy+hRI7E8YUmrx+Isies3Yc0n65p9XEtfB+BK4GnIoEGmQFJObh7+89tB3HrLNNMXQ6Fl7cWupGRs3LzFZV9Q2/OxdwRyuQzjxlyPZQkvWtyk2LptOyLVapsARIBKhQ/eeh0ZmVm4mJmJcWOuB3Dlc2Po1YNM13mpRoMVb7+Lx+Y9YPHa23vPzJo9x+44rW/qWAeFqP0xXkMH9+xu83uzpa/3rqRkHD2e0qJ9lJWXo6RUg9iYaAwZPBAH9+zGh2s/RUbfLIvr15nHBTh2bBmZWVicsNRm+bUjR2DO7BK8tnKVUz5jjcd2+60zIZfLMDV+ksO/t+RyGT5463W7642vSXMBauOxpqWnWyw3fgaMHjUSCc8/i0/WbzItW5bwIo78stehcXZFDIY6kbdEgmv8g6EQu7b6QFl9PX7TFDn0WJlYDG+JBF4iMWQiVkUgshYmk2NBVA/09vYDAEwMDEdBnRYfZZ/z8MiIiNwrMjICU+MnYcePu03L8vLzsfS1FVjxysseHFn7VqrR4FhKCg4e+t0mkLFu9Xvo16e3Q9sxZnoYv3S2VUZmFr7dsQuPPfSg3S9Yies3YeSwoS4JnvTt3QuPPzbf9PP5Cxdx6I//4ZYpk+Hn52taHh0V5ZT97dydjILCwmaXdRVd+dgdYQxSTpscj8CAKzcOrAMT5kGPYydOYs++A1ixNMHue+qPo8ewddt2VFZV2Q2WbN22HQCgUCosls9/4H6LLNGMzCyseOddLH7qCZvPBEcDKNS+OHINOWMfiRs2NntTrCUzCYSyGjds/tJ0M8sdx9VSE8eNw9HjKSgp1aCkVGORbSp0PMabDtaZs4nrN6GgsNDj77XYmGisWJpg83u9VKPBBx+vxaJHHoJSoQTQupuMXRGDoU7Uz9sff4vujVAvuUv3c6Gm0uFgqCOeiemDm4MinLItT2efDvcLRKis4fwX1mrxv/ISj42lq3m959UY5hvotv3VGfT4Mj8TG/Iutmk7BbVafJRzDotj+iFMJodMLMa04AicqCjFQU1xm8dpfpNEbwDOVpXjQk1lm7dLROQKC+bPw87dSTAYDKZlO39MQmREBJ5c+JgHR+Yajn4Z7N2zJ15eslhw3W+HDttkw9jLVhFinQ22Bi2bxtiUg4f/QNq5c4JfinclJTfs9+F5LgmG3nDdtbjhumst9nf23AXMnHZzm4O9xiw8otaSy2UICw3F70eOIn7CeABAjVZrypp7+sWX7E5rNc/UXLf6PQCwmdb70tJXLT5bvv7ue5vPmt0//QzANpvbmPk8YewNbTlEamcyMrPw2spVmDP7TpSUaprM+DXX3BRne1PmzaeqG3+nmHMku9G47flz59j9PeGq42oruVyGJc8+bfr5yC97BY+nqZsOies34VhKCpYnLEF1TTXefPd9LHrkoVbNvGhutoRQ6R7rMhrq8HBUVFZi4xdfmZZv3bYdvj4+LR4PMRhKAGSihuxRZ23LU2aFRmFBVE/4SqSo0NVjTXZ6pwqGzo+8CvepY+Hl4Qzfwjotll44ZXNuFWLnXUeOqDOIIHNSFvZBTTE+z8/AY1E9oBRLEOIlx4KonsjWViOzpqpN267S6XCDKgSTg9QQi0RIr67AP86fZECUiNql2JgYPDLvAXy09lOL5YmfbkBBYSGeXLgAYaEhHhqd81l/GRSa0mq+zppWW4ujx1MwbXK8ReCypFQDABYZZwWFhUhcvwlz7rnL4rHm2WDG/YeFhrY5EBobE40NH32AN999H489+X8WXzqPnTiJl5a+2mz2iPHLm6um3lZUVGLpa2+gd68eeGjOfRCJRACAz7/aijVr12PN229g0ID+Fo8dNXI4Jo4fa5omP+eeuyxqwH793ff4xwvP4eSfpy2WGY/VYDDgzNl0fLppM349dBgqfz9MGDcW9911O8LDwgBcCQDceMMYZF66hJ0/JmPi+LF4auGj8PZ2TckI4z5vvmkivLy88PmWf+Pkn6dxzfBheGjufRgxdIjp/OQXFOCTDZ/ht0OHoSkrx5BBA3H/PXdi5LChqKurtzkfxmPXamvx/Q8/Yveevfjf0WPw9vbGkEEDMffeuy22X6/T4cAvv2Hzln/jyPETuHHsGMy55y7s+DEJYaGhmP/A/U2eI4lE2ux+rI933abPkZ2bh5vGj8OChx+AVCrFR+s2IPnnfQgLDcG8++/FxBvHQerEvzWjItU4ejwFNVotAKC6ugY5eXlNBn7sEZqKKhT8aMl7qUdcHG6bOV1wXUum6VL7kPTzPkwcPxZT4ydhV1KyxU2vYydO4vcjR23qxxoDdU2xvjnkaGaoI5QKJSLV6iYf46rj8rRjJ06ioLAQK19dBrlchl1JyUg5dRoaTVmrz6tQjWB7Wd5CzZrkchnuu+sOfLhuPUo1Gvx26LApWBugUrGhWgsxGOoiOoMBRytKUOSkLqzRCiUG+Lim9lOtQe+0hjG1Bn3zD3KB0apgzFXHwVciRZ1Bj28KL2FbYbbFY7wlEvzrqsEY4R8EUeOyExWleDr9WIuO/9GoHrgnLAYysRgGAH+UXcYL508AgMu331Fo9XrozLKKhIhEgFwkhlgkggFAjV6HZp4CAJCLxZCIRM0/sIW2FmShv48/JgWFo15vwMXqStTonfO+eCvrDEK85BjhH4QeSl88Fd0bL5w/wUZNRNQuPf7YI0g5dQq//fewxfLvduzCdzt24eb4SZgafxNuHDfWQyNsP06fSQMAm6nwOXm5CA4OhErlb1pmDE6Zf3Gxtmf/fuTk5WHRIw/ZbSJhnf3TVI1QuVyG/3vir3jz3fcxa/YcrFv9HgIDVHht5ap2MY3Ox8cbvXv1QNrZc6isrIKvrw+02lpczMxCVVUV0tLPmYKhWdnZOHv+PB68f7bFNqRSKW6/dQYMBgMul5TizlkzER0Vhb69e1ksMwaCf9q3H2+88x4mjh+HN5e/jIrKSmz7fieefemfeHnJYsTFxpq2/fGnGzD5pol45e8vAACUSqXLz8nWb7fDz9cXc2bfBQDY9v1OvPbWKry+7J/oEdcdJaWleO2tVRCJxfi/J/4KpVKBvQd+wTMvJmDlv17B8CFDbM5HbEw06nU6JK7fiD37D+D2mdPx2LwHkFdQgG937MQ/X12BN5a9jP59+8BgMCB5z168+e4HiJ94I+bNuRcn/0zFstffAgDET5xgMV7rc+Qlk+Gjteub3Y/18c5/cA6qqqqwecs3eG3lu9DpdBg6eBD+9fLfsffAL3jl9bcQGBiAa4YPc9q5jlRHYOfuZFRX1wAAzl24AACtboRmZMw4Hz1qJH7YtgWfrN+EoVcPwoC+fU0Z40IZcdaZ6tbv9WUJL2LiuHF2G8A5K6OcXMM8CJadk2dx06t7bDQSN2zEsRMn3Vrz1V4dSmPWpjo8HEDD7zTzJmLm2ZXt7bjM30dteU8MGTzQ4ph37k7G808/6ZEmREKNH42Z5cCVLGDzTFhqHoOhLqKHASkVGiTmnHfK9l6I7eeyYOhbmWc6dGMlb4kEc9XdESaTwwDgWHkpNgpMna7S6fBxznlEyZWIlDf8MTvQR4WnuvXGqxmnHdrXTUHhmBUSZcpILKzV4suCTFNQy5XbL66rxbnqSkgdCASGeMkQIG340K/U1SO3tsah/TuipK4WVc0ECZMu5+FfzRzzcL9AJMQNQKiXHNU6Hd7MSsWPxXnN7v/zAdciTtH8VIDWlH8QiQARRDDAgOtUIbhO5Xj205GKEjyXflxwXZVOhy8LMhGr8EGYTI7hfoFYENWzQ7/viKhzW/XGCjz13PP49eAhm3U/JCXjh6RkKBUKTBg/FiOGDkW/Pr0xsDFo1ZE01ZDAPChx28zpWPTIQxaP0WprsXN3kk1WKNDwhdDYUMmYqbHg4Xm4Y9YMLFm6HEuWLrcJYBqzNdetfg8BKhWGDFZZZJs5Ml1RiHGqYFhoqCm4uuDheQ4FQq1rGDqbSCTCwP798NPeAyi+fBm+vj64XFKCjKws9O3dCxczs1BXVwcvLy/8mXoGV3WPRVRkhEWTL4lEjD69eiI8LAwikQhDrx5sej2slxUVX8Y33+3Ao/MewKzp0yBu/Htr9MiRWPH2KvyYvAePPPiAadvXDB+ORx+cC19f901BDFD5I+H5ZxEcFAQA6HXVVVicsBRnzp5Fj7juyMi8hJy8PKxY+g90j40BAAzs1w/V1dX4M/UMRgwdIng+cnLzkH7+POY/cL/Fa9+3dy8899I/cTEzE/379kFObh6++Pc3uO/uO3D/PXdBKpFg9DUjER0VieVvvm0zXutz5Oh+7B1vXV09lr+xEq/8/UVMjb8JIpEIPeLicP7iRZz6M9WpwdDAABUMBgM0ZQ2Z3Hv2H8DQwYNblfVlHawwZoCaZ2rFxkTjy/WJ2JWUbJpKbJ4pZsz2tH6vG382Z30zozWNccgztNpaFBQWYujVg0zLAlQqzJ87p0UNf/z9/KBUKrD8jZWCwXHrju7LEl4U3E5QUAC2bd5o2qd51qaxnER2zpXvaL8darhRan3TwFnH1VbG95Ez3xNbt23HkEGDMGTwwBbVWrUOxq75ZJ3dqfL2pskDV36Pmwc7jZmj5r+jtdpapKadtSnTYW88XR2DodThzVF3Rz+fhsyL0vpafFN4yW7G3alKDb4qyDJNhxaLRBgfGIbTVWU2maTW4hQ+mKPuDn+pFwCgWq/D5/kZFnUlXbn9bwov4ZvCSw6dk3d7D8UIv4Y/KgvqtJjzp+2X2c6uLeUf5K2Yft9c47SDmmL8eDkX94THwEskxoTAMPxRdhn7S9ncgIjaH6VCgY/efQd/f2U5tm3fIfiY6poa7PwxCTt/TDIt692rJ0JDguHr7QsfX2/4+vjC19cbPt4+8PXxga+fD1T+KnhJJZBIJJBIvSCVSCCVSiGVSCCRiiGVeEEikcDLS9rwX6kUYrEECoXza7IbgxNG5tPkB/TtixqtFn169TStM7dn/34ADVmhu5KSkZ2TZ5o+fCwlBdMm2wYbA1QqrHx1Gd58932LgKix5troUSPbnJVmT/yE8diz7wDS0tMxcthQl+yjNWKjo6FUKnAxq6EzcX5BIby8vHDbzOnYe+AXVFRWwVupRGraWfTr0xt+vr7QlJW1al+ZWVlISz+HyTdNsPmSLJPJcPJ0Ksoryq+MLSbarYFQAOjftw+CAq/UYFep/BEcHGgKRvj5+aK+Xoevt+/AXX+5FZERavj6+mDpSy80ud3ICDXeWWH75Tg4KBBqdZgpOzL9wgWUlZVhzLWjTFPSRSIRrh05AoP697N5vvU5cnQ/9o5XqVSgV4+rMKBvH9O0fT8/X8R064Z6J8+oiY2JxuqVb+DYiZMQiUStmlZsHgTt3bOnRVAJsK1bCFgGa15a+irWfLLOIrip0ZTBYDBYlNmgzqO6pho5eXmYNjneYvmQwQMxcfxYnEpNdThoqJDLbYJkTdmVlNzi8RrLSWi1taiuqcbO3cmYNnmSzXvFmccF2Nbhba3SMg2WvvaGRaZ1Uw2UAMubDcb62sZgsr0SFcabq88//aTdG5ZC0+SFgprmy1vDOP7W3kTtKhgM7UTMA2BCpodEYnpIpOnnOoMen+VlOC171RMG+KhwU2A4vERi6GHAvpLCZoNLWwuy0Nfbz1TD0Vcixe2h0ThWXmq3jqO3RIKnonujh7Kh+6neYMC+kgJsLchy+/ZbqqK+vs3b6OhK62tRVOf8Gip+EinCZYrmH9hoY95FXOMfhL7e/giUyjA9JJLBUCJq1175+xKMGDoUazdswvmLzTesSzubjrSz6c0+ztUWPvIQFs5/uE3bOJWaip27kwUDJFptLc6mn8d9d90BuVyGHnFxDY99YyUmjm8oH3DdqGsEt2sMjiSu34St27Zj5LChmLfwccRPvBHlFRXY+WMSLmZmOTV7w/glLa57DOK6x2DewsddVge0pYICA9HzqjicOHkKY669FucuXMBV3btj8ID++CHpJxQVFcHX1xfp5y9g4vixpgBZa+QVFKCktBRLX3tDcH2/Pr1RXlEBP19fwfXuIBZLmjzG2Jho3H37LKxOXIfPv9qK2Jho3HDdtbh50k3o06unKdvVnrq6OhQUFiErOxupaWfx38N/4PD/jmDIoIZsrvLyCkSo1QgJDrZ4nre3N7pFRQptslX7aep4RSKxxTIRRM0el6eYZ2wdO3HS4eYxQEOJi593ftvmuo7uNnDkaE8PoV07+ftBweXWNWTtNegCYJPVJ5RJ7C6mchI11di6bTsi1WpMHDfOtN5Vx+XI7yhHmhUG+F+pqdrSBkoZmVnYuHlLk9t3F3ulc4znfvSokUh4/ll3D6tDYzCUOrSpwRFQyxuCUQW1WuwqznXoeZ/lZaCXtx96NgYfuyt9MC8yDn8/f1Lw8feru+Nq3wBTLdC06nK8lWV/irOrt9+cQOmVL09aA+tSpldX4Im0o07f7gux/SxuMDSnSqfD3pJCxCl8IReLMcg3APFBaiRdbr48ABGRp8y8ZSpm3jIVvx48hG3bv8ePP+3x9JDcwpj5sXXbdpsvaXK5DE8ufNT0c59ePbE8YQmWLF2OhX97FgsentdsgGP+A/dDq63Fh2s/xbbNG1FSqkHiho2YNiUevx06jDfffd8pAVHjFyjzbsK+Pj7tJiAql8vQt3cv7D3wC4ouF+PsufMY2L8fItRqBAUG4kJGJvz9/QA0ZJG2lSMdjEs1mjbvx1WkEgnumDUTU+Mn4cjxE0jeuw979h3AZ19uxeOPzTdNbbdWr9Nh2/YdWJ24DpqyMvTt3QuxMdG49poRqKquNj1O29hMqLUc3U97kpOXi0i1GkrFlZqw9gIP5oQCONbTUO01ZcvIzMKH69YLbrekVAORSGRRcxhoCEpRx2UsOyLU4MiYsWmdcWivGZJGU2aRId/U9drcZ97ly6U2QfzePXua/t9YTmLD51/i4OE/sGJpgmATQGccl6u1JOvaGGi9Y9YMpKaddcr+m5omL7TcOE0eaMiwNS+dI5RRWqrRCGbnkjAGQzuRw2WXbRo29fT2NQXkTlVqkFVz5Y8QHQxIrSpHRxWj8MZwv0CI0dCAJ6VCg1OVjv3xeqGmElsKsvB4t17wk0ghAnCDKhQPRV6FtVaZsrNCo3BbaDdTHc+CWi0Sc8432fzG1dtvjtgFDYbIOb4uzMLEwDD09vaDn0SK+KBwBkOJqEO4fvQoXD96FJYmvIg9+/6DH5OTcfLUaRRfvuzpobnMdaOuwcFDzWLdogAAIABJREFUvzvUodVYGw0A7pg1w6HtmwdVjR3oAed1ijZOw7UO2ix65CHk5OW1m4Bo/759sHXbdqSfO4+s7GzMnHYzlEoloqOjcP7iRUgkUgzs3w8hwfZnQDkiKDAQaenpyM3P90gTDGfy8fHGDdddixuuuxZabS02bP4SB349iCk3TUSEOtzm8WfSziJx/Ub89dGHccuUyaZgRmFRMX7975VySiEhwcjNy0NRcTECAwNMy6uqq5Gbl4+w0NAmx+XoftqT7Jw8ZOfmYu6ji0xTXK0DD+4kFJylzkPo9Q0KDMQ7H3yESHVEqz+PhZrpOdK1vamaoQCgDg9HVEQENmz+EssSXjQ9zroLuquOy5lOpaYiKiLC1BiqucfOmX0nJo4b55Rg6MhhQ3HM6jWyd7MEEJ4mvysp2TRjxfxxI4cNxZDBA1lio4UYDO1EPsvLsFm2qf8o0/+fr65stqlNRzI+IAzqxinKFbp6/KopatHzdxTlIE7hgzvCoiEViSATizE9OBJ/VmpMdTrjFD64PTQavpKGt0qtXo/vi3Ms6oR6avuO0jvQoZ3cp0qnw//KS9BD6QuJSIRe3n4Y7heI/5WXeHpoREQO8VZ6Y/rNkzH95skAgPKKCpxJS0P6+QvIzs5BQVERCouKUFhUjKKiYpRXVHh4xPZZT+8zsm6gBCzH6reFp1YblWoaMjvnz53j8Wmv2tpaU1MNoey1AJXKlMnaHgKi6vBwhAQHIfnn/airq0NIcHBDY6SePbFh85cAgHvvuh1eXl5t2k/Pq67CqBHD8dPe/bh60EAoFQ1/R1bX1OCtdz+AwWDAM48vbPPxuNLun37Gtzt24aXnnkFUZEOmoEzm1eyX34ysLAQGBGD4kKtNAUqDwYC09HScPnMW1wwfDgDoGRcHf39//PLfQ4iL627KMj2TdhbHUk7i6kHNTFt1cD/thbHG7y1T4hGpjmhzo5evv/tesBGK7WdKQ/DKmlZbi6PHUzD06kGm86fRlKG4mH8ndhbWHdcB4NqRIzBndonD2ZL2sodbylg313rZ4qeewIfr1mPx354AAOTk5WH0qJEW5V+sj8MZx+VKxinvc2bf6dCMC2Nw0pGboY4YMnggpk2ehAnTbjX9zj19Jg05eXk2DRoB2xqi5uM3P4/xE8abpvm3JNhLDIa6jJdIjAcj4vBgRJzHxjBGFYIgr87bKWyEf6ApmzJHW92q7Lq1uefRuzEYBQBhMjlmh8fieEUpAOCp6N7ormwoCq83GLCnJN8ms9OT2xcSo/CGl+hKXaV8J3aSd9Q1/kHYaBaIFyKBCP6Shi81MrEYc9XdMTs8ttlth3k5v4GGux0tL8GUYDUCpTIESL0wjMFQIurA/Hx9MWLYMIwYZr/Lc6lGg8qKSlRUVaKishLV1TWoqalBdY0WNdXVqNHWoKZGi7r6OqeMaeQwxwIuLemWrtXWYs++A3bXffDxWlO3WU8rLdWgorKyySBngEqF5558HN/u2GU3kGYMFrs6WOrv54c+vXvi002bcedfboWqcVp8dLcoFBYVwc/XD3169WpyG95KBY4cO4G9B/6DqwcNRIQ63GaZOjwMM6ZOwfI330ZRcTFmzbgFep0ePybvwcnTp7F0yfPw9vZGrQPT5HclJWPj5i1u65Bs1K9vH3y+5d949a23MTV+EkJDgnHqz1T8+7vtuPMvt5oyN62PvXtMDCoqK/HO6g8xa8YtkMtk+OW3/+LAbwfhrbxS/zwyQo2/zLgF732YiILCIowbcx1Op6bh399td2h8ju7HWdr6OlzMyEJxcQkG9O2L2JhoTBw/Fp99tbXVJSraOk0+Lz8f2bm5uO+uO1q8byHOvk6ra2qwYL5t4IauqK6pgcTOJD2hjutGU+MnITsnD78dOmxxrQhlCQtlYR489LtNB3nAcsq7EGMdTfNan7fNnI5/vrAYefn5WJywFEFBAbh8udSmbExUpNqpx+VMxqZzQMMxvr7qPQQHB9qt5+0OU+Mn4bpR11ic72UJLzoUJE76eR8mjh9rk0EaGxONW6bE49sdu1BRWWlxI4WaxmBoJzbYNwB+Evt30Af4qHBLSATkotZ13LZHa9BhR1Guw1PWW6Ofjz+i5N4AAD0MONnKfVXpdNicn4FouTfCZA1BtsG+KsxRd4cBsKjjeb6mUjD71pPbFxLqJW9VN3RnCpcp0JL7UVKRCLEK93Zr9aRfNEUoqNUiUCqDl0iMnko/Tw+JiMilAlQqj2dLuorxi+SQQYPc3tjCnvCwUPzrn39v9nGxMdEWtU89RSIRY/DAAQCAXj2ugkzW8EVOHRaGHnFxCAkOQkR4WJPbuOH663Dk+Am8+PIyPP7ofDx4/2zBZVMmTURYaAg+3/I1lry8HF5SKUaPGom3Xn0FfXo1HTQwl52Th0ED+rk9AyemWxSWJSzB+s82Y3XiWuTm5WNg/354/NH5mDDuBkgkDX8DWh/7A/fdg3++uBhrN3yGvy1e0hD4GzcWH6x8HVu++Q6XcnJQXVMDpUKBW26eDKVCgc+3/Btffb0NN44dg4Tnn8XGL75qdnz9+vR2aD/O0pbXQautxc7dSZg4fqwpUHjHrBlY8fa7yPNQKYWkn/dh6ODBze77paWv2mSa3jZzus3jnH2dKhUKLHqkbc3puoJabdPXuNDrZ73e3NfffW+aBq9UKG2yhwHhafJNMZZRsfc8Yx1S4+wC82ZFd8yagWMpKRg5bKjTjsuZfyOYz/qYNjkeSqUCfr6+WPDQgx79W0Qo8Gw8Z801x2pq3dT4SdiFhin0QlmmJIzBUBfRGQw4WlFiU8OztaIVSgzwadkbd5CvCtImakdGK5SYFKiGt0CR9bao0ulwvKLUpcHQHkpfBEgbAr1avR4Zdrq0O+KgphjfF+fg/vBYyMRieInEmBESBQCmzNOiOi3WZKfb7Qbvye03Z3pIZIua/FhLqdDg0TN/tOg5Wr0eOkPT8/NFIkAuEkMsaqj5WqPXoZmnAADkYjEknaAm6rnqCvTxbgiCxil9EKPwRmZNlYdHRUTUdTT3pc0e88wX45fDiePHOjUQKvSFyUho2bKEF03ZIvayg5oj9IW0JZmzzWmuDuq466+zqdEYGBiANe+8afPYANWV7sBGMd2i8NarrzS7TCQSYfjQIRg+dIjdsQht35wxC8p6SmhLWJ8Pe/u0d6zNdQ0WOvaRw4baBC8A2JQGkEokmHzTBEy+aYJpWUlJKfQ6vakeqb3xikQih/ajVCgEny90nRg7tltr6+tw+kwaUk6dxoqlV7IwA1Qqh24kuMKxEyexZ98BrFiaYLH8VGoqgoMD0T32SoDU/D0PXKnfaM4Z1yk5l/FaFrqehZjXiDR+Nh87cdJmavWQwQOb/MwyMp/K3tRnsjEQaj4rIDYmGh+uehNLli7Hmk/W4baZ09GvT2+nHZe15hqY2ZO4fhP27DtgakxoDOi+9nKC4OOFSgW0RkmpBmnp6TbLjUFnoOmA9a6kZAwbc6Pgtq0D0mnp6abGWEDD3ww7dye3izI9HQmDoS6ihwEpFRoktnHKs9ELsf1aFAwdrQpGdGPmpJFYJMLrPa9GrrYab2elOWVcnhKn8IGscSp4ha4eF6rbFkRcm3Mefbz9cL0qBCLAFGgFGup47izObVMdT1dv31yoTA4fsfPe2q3pRp90Oa/Z+rTD/QKREDcAoV5yVOt0eDMrFT8WN1/q4PMB1yKuE2SR5mirUWfQw0skho9Eghg5g6FERO5kHUxojnG6q5HxS4mx4YozNReMs8dZjZeoaXn5+Ug5dRrPP935OvaePpOG1995D888vhAD+/czLU+/cAGZly6hW2Trb7A7W1teB2NW6JzZd9pkYdqrJSzEOpurtTVDrcdj3R3cOJW2JfULO/N12llZX3vGgJd5gOv3I0cxbfIkh4Je5sEz8+01x14Dsdb+bnLkuKw5Up7FPFvVyHgzJjYmGrEx0fh557dYsnS53UCjEEf+PrBXXsAYIDZy9PeyI4+LjYnGl+sTbZa35GYaXcFgaCc1RhWKAC8v6GGACCKIAFyvCoZKKoPBYEColxzLMv50KPj0Qmw/U2bh90U57aIJU6hMbsoOrNDVO6Xe4ppL6YiSKRGnvBJoMwA4XH4ZH2Wfa/fbF9KSjEtzXmKRRd1Rcr5L2mpo9Xp4ScRQiCVQy51fR4uIiGzZyzJr6fPsfSlp7f4czewhzysp1dhk6nUWUZERCAsJwYqVq3DXbbMQoVYjNS0N//7ue9xw3Wj06e14KQFXa8vr0NT7srUZ0W3pQG89HnvbsjduoUBKZ75OOytHrr2WXJuO/p5ytZa8p1ryPhI6PusAalsDgvbecww0dnwMhnZCMQpvDPcLhBgi5GirESqTw0skRlZNNZTeUsjFYowNCMVS8UAkXDiJKl3LM/88zTyzsrhO65RtXqipxM+lBZijiDUFAqt1Ohwuc07Gpqu3bxQt94aXWGTavqMZl+bMsy+rdXqnjs8Teip9m23o1Bp+ktZ/hBbXaVGt18FXIoVUJEKglNOXiIiIOoLOHLj29/PD808/iS+//gZrN32OjMwsDOzfD7PvuM1US7S96MyvgzPw/BAR2cdgaCc0OUiNCLkCdQY9ztdUIrSxcc/FmkocqSjBPWExkInFuNY/GP+MG4jn0o97eMQtF2zWUVzfwqxHe0argjE9ONIiI9JbIsHdYTE4XVne5hqort6+UZCXDNLGfVTq61FY27ZgcWm9c+reelKAVIaAdhZsrNLrUN+YsisViRHk1b7GR0RERF1TYGAAFjw8DwsenufpoRAREbkE58F2MjEKb4wNCIWXSIziulpkWdUg/Cj7HLYUZKFWr0e9wYBz1RWm5/29e39TYx9HhMnkeKJbL9wdHuPUY2ip/Nq2d6T0lkgwOzzW1PHdXIRcifmRV7Xr7ZuLkitNHerL6uucUkKgI2rvTZZOV5ahRt+QlS0CIEb7Hi8RERERERFRZ8DM0E5mZkgUYhU+MKChC7gx2GJudXY6vCUSlNXX4+OchlqVk4PUuCkoHFOCI3C/Ohb/yjiNI00E0e5Tx+K+8Fj4S71wrroCv2mKOnTzl6e69cZQ3wDTz2eqyhEhU8Bf6gURgCG+AXg0qkera3u6evtGMQpvqGVK08852pYHimMU3qbsVZ3BgApdvUPPM2br1hn0KK7zfDapeeDZVbVuzevpEhEREREREVH7x2Coi3iJxHgwIg4PRsS5bZ8DfFQYFxAKqUiEcl09ftUUIVbhLfjYNzPPmP7fWyLB9aoQUwAso6ayyUAoAOSZZWPGKnxwS3AkVmenO+Eo3G9WaBTGB4ZB3JhJWFJfi/W5F3C9KgRTgyMgFokgE4sxLTgCJypKW9z13dXbNzfCLwjBjdOtdQYDLmlbHqAO9ZJDLm64FvQwCAbUmyIRiTApKBxjAkKafhxE8Jc01H6VicWYq+6O2eGxzW4/zMs2u9ZTag16U83dGn3Hr61KRERERERE1NkxGNqJ3B7WzdSR+nx1BZIu5zk0/XpKUASiG4Om1XodfnMgGPfT5XzEB6lxvSoEUpEIYwNCsaM4xyPZoeGy1hdyH+Cjwr3hsfBtbIRTq9dje1EO9pcW4vfyy+jp7Yu+3v4AgBAvOeZHXoXjFaUON51y9fatXe0bAIVYAgCo1NU7rQ5pc8yzScUQIUqubOYZlqQiEWIbGzY5izsyVd/KPIO3zG4stMTVvgHwETdcF3oYUGtgMJWIiIiIiIjI1RgMdRGdwYCjFSUoqnVOECZaocQAH1WTj1HLFBBDhGq9DsmX8x3e9qSgcCgbA2hpVeX4pvCSQ89LupyHwT4q+Eu9EClXYmZIFN67dNbh/bZFSV2tqdu5uJWlFr0lEjwSeRUiGgN3BgDHK0qxKe8iAKBKp8OG3It4LravqdN3b6UfnurWG686MOXa1du3NsBHhUG+KlPlydzaGvxcUtDi7SjFEkgbs1jrDQbkOlCT1TybtD3o5+NvCgrrDUCV3rGp/u4kFYlgLGuqMxhQVl/n2QERERERERERdQEMhrqIHgakVGiQmHPeKdt7IbZfs8HQI+Ul6O/jj5QKjcMBzRkhUeih9AXQkBXakuDZT5fzMSVIjesas0PHBIRgR1EOLtRUOryN1qo0y5wMbuW06Tnq7hjiF3AleKitxsc55y2yMveXFqKvjz/uCYuBTCyGWCTC+MAwnK4qw7bCbI9u39qEwDCENJ6LeoMBv5ddbtHzjXylUshFDYFEgwGodyBjUSX1grwxM7Ssvg6vZ6Y2ey0N9wtEQtwAhHrJUaXT4c2sVPxYnNfsvj4fcK0pEG5PhEwBn8ZgqFavQ462utntuluoTG7KDHU06ExERC0jFouhZxkTIqI2E7ejxIf2jr97qKPoyu/rrnvkndBvmmKcqizDVwWZDj/npqAw0xTujJpK7CzOadE+ky7no7yxwU6ETImbgyNa9PzWKqirgR4GAICPWIqrzZoTOWJWaBT+EtrNNLW7QlePzfmZgtPKN+VdxPGK0sa9Ab4SKW4PjW4yIOfq7VuLU/hgTECIKaOzqE6L/aWFDj/fnFQkNmUs6mGA3tD04wEgyEsGr8YPUq1BD42Hsxy7K3yglDSWC9Dr2mWgMVruDa/GtOYqXT0K2uEYiYg6OlEX/iOfiMiZ+HnqOJ4r6ii68rXadY+8EzpVqcFrGacdbsAzIyTKVK9Sq9djb0lhi2tVJl3Ow5mqMgAw1Q6NsdO0yZkyaiqhbbzb5ieVmmqeOiJO4YNZod1MQWC9wYD/lBbazaat0umwMe+iRbCqu9IHC7r19Mj2hcyJ6G6q06mHAQc1xa2uFxohU5iCqtV6HYrrtM0+J1bhY5omX6Grx/+aacDlat2VPqZAdFGtFqcryzw6HiHRZnVWy+rrcdJN9V2JiLoSiUTapf/QJyJyBpFYDImEk0odxd891BF09fc136GdjKMNjLwlEkwNVpsCdhdqKvB1YVar9rmvpBDVjR3HI+VK3BIc2arttMTZqgqU1zdkpMrFYvTx9nP4uQu69TSVBgCAtOpyvJXVdBOc/5WXYHN+puk4RQCu8QvCQwINqly9fWuzQqNwvSoE4sYJ+XnaGuwqzm32efaI0PIirLEKb9P+C2ubD566krdEgh6KhvNvQEPgvD2Kll8J4F/SVre6aRYRETVN2oX/0CcicgZ+jrYczxm1d139GmUwtIu6LTQafRqzQqv1OvxQnNfqYMyPl3NNASepSITRqmCXZ4ceryhFprZhn2KI0FvpWDD00ageuMYvyBTuK6rTItGqjqc9WwuycKC00DQ9XyYWY3pwJEargt22fWujVcGYq46z6FafXJLfpi7yYTK5xfT+5rI8B/io0K0xsKczGHCuuqLV+3aGMapQhMgaaqfW6HVIrSr36HiETAgMQ4RMAaDhNWvL60VERE0TicWQSL08PQwiog5JIvVilmMr8HcPtWd8XzMY2iXFKLwRHxRumtacVlWOrQWtywoFGqZ57yspRG3jtPVouTfGB4Q5ZaxNSanQoK6xuU93pQ/ig9RNPn5cQChmhERC1njctXo9dhbnOlxWAAA25l7E+eormYZhMjlmh8fCWyJx+fatDfBRYWFUT4Q1Bv6su9W3hrdEgp5mWa0V9c13YR/uF4ggqQxAQ/DxvIeDoderQkzB4cJaLf4ob10jKVca7hcEX2nDGC/X13q8rAARUWcnkUjgJZNDLLb9fUpERLbE4obPTYnA9xByDH/3UHvD9/UVXTsv1oWkIjHuCY/BXWExTtmeRNTyqcv2TApSmzL5KnT1+KGZDt4BjYGupuwrLcDU4AjEKLzhJRZjhH8gNrYhKOeI3zTFuDk4AmqZAj4SCa7xD0LSZeFjiVP44KHIqxDYeCwGAMcqSvFR9rkW7fNCTSW2FGTh8W694NcYcBvqG4DFMf0Qp/Rx2fYXRPXEW5lXptoP8wvE/8X0QXezJkvnqivwTlZam6Zb3xMea9qmo1PMR6uCTQHgglot9pY23UXelQb4qDDIVwURGsZ/pqrc4dIR7hKj8MZwv0CIIYIBDUF9ZoYSEbmeSCSC1MsLBoO0ocuvwYEOgUREXY1IBLFYDJETv392ZfzdQ+0C39c2GAx1EREARTu9A7Q25zz+qynGvIg4VOrrsb0o2+5j4xQ+6K5sCJzqYUBtYyamtcyaKhwsK4amvg6b8zNa3cm8JU5VanBQU4yZoZEQQ4RhfoEY4KMSDCxdqKnEnD8POWW/O4pysKMoxynbas32JwepscAsIxRoCEKuyU7HBTvByxkhUZgSrEZBbQ1ya2uQUVOJGr0eh8uKUaXTIU7hg9vCumFKUIQpsFmlq8fxitImx/qX0G7o3VivVQ8DjlWUurT25biAUAQ0Md1kVmiU6byU19fhPxrXX4ctNT4gDOrGKfLtdYxERJ2ZSCRiRgQREbkVf/cQtS8MhrqIAYBWr4PeSTd+JCKRaVq7M5yq1OCZ9GOmn6/2DcALsf0gFYlQpb8SzArxkkPVGHyq0xuQb9bx3NqqrDSnjc9Ru4pzMco/CJFyJcJkckwNjui0WXbeEgkWRPXELcGRFtdCUV1DILSp6fg1eh16Kn0xxDfA4f2drirDziYaMXlLJLglJALKxqB/aV0dfnFCYC9MJseS2P4I9LLNSA7zksO/8XqsNxiQa3Y93hQUjjFmjaROVmrw0+X8No/HmWIU3pgUFA6ZWAwDgBPtcIxEREREREREnRmDoS5Sb9Dji/xMJOacd8r2Xojth+khruvSfryiFDoYECO33/goS1uFA27I+GyJU5Ua7C8txB1h0ZCKRBgfGIrDZcVuyUx1t0VRvTAjJNKiZEKWtgrvZKU1W5c0v7YGVTqdqZZmUwwAsmqq8EV+ZpOPu1/dHT2UV7q2/6+8pEX1Ue0pqNVCIbasXSqksFaLE42Zq2EyOe4LjzUFSsvq6/CjnZIJnjQzJAqxjWUIiuq0+KqZc0xEREREREREzsUGSmRSXKcVXK43GJBaVYZ3stLaXf1FAFibex5/NmaDBkhl+EtoN8GGQx3dB9lncaS8BAY0BB+Plpfg+fQTDgUgj1eU4nRVGXK01ajS6QT/levqkVpVjvW5FzAv9XCz200qzkNG4/VQUFvTZLmFlsrSNn2dFdfV4rP8DNP1WFCrxcGyYtTq9dAbDDhQWtjuMi5Hq4IxKSgcUpEIdQY9fijOZeMkIiIiIiIiIjdjZqgTFdZpsbekAP4SL+hgQGpVudO2faKiFF6ixiY1dfanqltLrSpH0uV8SCAyZdHZ83ZmGnp5+0FsVlPXvK5ke1Wl02FD3kUsjumHMJkcQ/wCMEfdHR+2sHlRe1el0+GdrDQ8E9MHf5SXYH3uhRY9/4VzJ5w6ngs1lfjH+ZN4qXt//FZW3OLA3umqMrydlQaFWIx6g8Hi+vy68JJFF/hYhQ/CvRQo09XhWEWp4DX5UfY5hHnJcZXSt9msVnfzlkgwV90dIV7yhuZa5aUubzBGRERERERERLZE5RWVXbadWXzqQU8PgZxoVmgUFkT1hK9EigpdPdZkp2NbofOyFYla6+/d+2NykBpikQjp1RX4x/mTdptdUYOkvqM9PQQiIiIiIiLqhJgZSp3GtsJsZNZUIbSxm3hhrfC0fyJ38pZI8B9NEX4vvwy9AThbVc5AKBEREREREZGHMBhKnQprMFJ7U6XTYV9JgaeHQURERERERERgAyUiIiIiIiIiIiLqIhgMJSIiIiIiIiIioi6BwVAiIiIiIiIiIiLqEhgMJSIiIiIiIiIioi6BwVAiIiIiIiIiIiLqEhgMJSIiIiIiIiIioi6BwVAiIiIiIiIiIiLqEhgMJSIiIiIiIiIioi6BwVAiIiIiIiIiIiLqErp0MNRXLPX0EIiIyAo/m4mIiIiIiMhVunQwtJfSx9NDICIiK/xsJiIiIiIiIlfp0sHQ63wDPT0EIiKyws9mIiIiIiIicpUuHQydGRgBtUzh6WEQEVEjtUyBmYERnh4GERERERERdVJdOhgKAIvCunt6CERE1IifyURERERERORKXT4YOso3EIsje3l6GEREXd7iyF4YxSnyRERERERE5EKi8opKg6cH0R5c0FZjU2EWfqko9vRQiIi6lDG+wbg/NBpxcqWnh0JERERERESdHIOhVgrqtEipLkd+bQ10nh4MEXUYR4+fwMHDh22Wd4uMxIxpUz0wovZNAiBcpsAgpR/CvOSeHg4RERERERF1EQyGEhE5QWraWdx+7xzBddu3foGrurMWJhEREREREZGndfmaoUREztC3dy8Mu/pqwXW/Hvyvm0dDREREREREREIYDCUicpIx110ruPwXBkOJiIiIiIiI2gUGQ4mInOT60cLB0F8PHkJGVpabR0NERERERERE1hgMJSJykgH9+uLqwYME1/2Y9JObR0NERERERERE1hgMJSJyoutHjRJc/u33u1BVVeXm0RARERERERGROQZDiYicaOyY6wSXZ2VfwrYdO908GiIiIiIiIiIyx2AoEZETDezfDzfHTxJc9933DIYSEREREREReRKDoURETjZ96hTB5X+mnsF3O39w82iIiIiIiIiIyIjBUCIiJxt7/XUYNWK44Lrvduxw82iIiIiIiIiIyIjBUCIiF5gxbarg8sN/HMHe/QfcPBoiIiIiIiIiAhgMJSJyielTp6B3zx6C675h7VAiIiIiIiIij2AwlIjIBcRiMaZPvVlw3d79B3D4jyNuHhERERERERERMRhKROQiM6bdjOCgIMF1rB1KRERERERE5H4MhhIRuUhwUBBmTBPODv1u5w/4M/WMm0dERERERERE1LUxGEpE5ELTp94MsVj4o/Y71g4lIiIiIiIicisGQ4mIXKh3zx6YPnWK4LptO3YiK/uSm0dERERERERE1HUxGEpE5GIzpk0VXF5VVYVvv9/l5tEQERERERERdV0MhhIRudioEcMx9vrrBNdt/eZbXLqU7eYRERGoBgI8AAAgAElEQVQREREREXVNDIYSEbmBvanyl0tK8NmXW9w8GiIiIiIiIqKuicFQIiI3uDl+Egb27ye47rOvtuD4iRQ3j4iIiIiIiIio62EwlIjITe69+y676zZ98ZUbR0JERERERETUNTEYSkTkJtNvnowbx40VXPfjT3uwZ+9+N4+IiIiIiIiIqGthMJSIyI3mzrafHbqR2aFERERERERELsVgKBGRG40YNgyz77xDcN3/jh7FV19/4+YREREREREREXUdDIYSEbnZ3Nl3IyQ4WHDdpi++Qll5uZtHRERERERERNQ1MBhKRORmUVGRmDP7bsF1FzMy8dmXnC5PRERERERE5AoMhhIRecCce+/BoAH9BNdt3Pwlzl+86OYREREREREREXV+DIYSEXmAVCLB/fcIZ4dWVFRiE5spERERERERETkdg6FERB4ydXI8brpxvOC6rd98i9//d9TNIyIiIiIiIiLq3KSeHgARUVc297578NPefYLrNn7xJUYOH+rmERERkbMYDAbo9XrAYPD0UNoXkQhisRgikcjTI+lUeL2RR/F9TUQdiKi8opK/LYmIPOi1t96x2zTpjeVLcXP8JDePiIiI2sJgMEBXXw+9XufpobRrYrEEEqmUwZM24vVG7Qnf10TUEXCaPBGRh829926Eh4UKrtv05RY3j4aIiNpCp9OhrlbLwJQD9PqGc6XT8Vy1Fq83am/4viaijoDBUCIiD4tQq3H/PfcIrjuRchJvv7/azSMiIqLWMOj10NXXeXoYHY6uvg4Gvd7Tw+hweL1Re8b3NRG1ZwyGEhG1A3PvvRuDBw0UXLd2wybs3rPHzSMiIqKWqtfVe3oIHRbPXcvxnFF7x2uUiNorBkOJiNoBkUiEuffebXf92++vwaVL2W4cERERtYROV88sqDYw6PXQMXDiMF5v1BHwfU1E7RWDoURE7cTkiRNx+6yZgusuXcrG2++vcfOIiIjIUQxMtR3PoeN4rqij4LVKRO0Rg6FERO3IU4sWoF+f3oLrdu/Zg7UbNrl5RERE5Ag9v/C3Gc+h43iuqKPgtUpE7RGDoURE7UiASoUnFy2wu/7t91fj4OHf3TgiIiIiIiIios6DwVAionZmzOhr8fhjj9hd/877q1FWXu7GERERERERERF1DgyGEhG1Q48+9CDGj71BcN2p06l4+/3Vbh4RERERERERUcfHYCgRUTv1t78uRFhoiOC6rd98i63ffOvmERERUWvsSkrG3Q/MR0ZmluD6xPWbsPyNldBqa908MuqsdiUlY9Ezz6FUo/H0UJyqsx4XERG5F4OhRETtVI+47nhiYdP1Q0+dTnXjiIiIqKW02locPZ6CObPvRGxMtM36Uo0Gx1JSMG1yPORymVvGlLh+ExLXWzbkO3bipM0y42N3JSW3eB+lGg0WPfMcjp042epxUuuUajTYuTsZ0yZPQoBK5enhNMn8WhS6Ls21l+Mq1Wiw/I2VggHZXUnJNjc2mjsuoOFzYtXqj+zeMHE3R8ZsbldScoseT0TkaVJPD4CIiOy79Zap+PN0KjZv2Wqzrqy8HO+8vxqJH7zrgZEREZEj8vLzkXLqNL7+7nu8tPRVi3W3zZyOiePH4uCh33HwkG1zvNGjRmJ5whK3BH66x0YjccNGJK7fhPkP3A+gIUC6Z98BPLXoUYvHHjtxEvMWPm6zjXWr38OQwQNdPlZq2m+HDpuuKetrrim3zZyO/3vir5DLZdiVlNyi55pryXUQFalGdk4eAGDOPXfhzXffx6JnnhO87p1xXFptLd589318/d33rXq+ka+PDz74eK3N8tbas38/Dh7+A7feMhWlGg2WLF0u+Jlgznie2/JaAcCCh+eZ3vNG8RPGY3HCUowcNtTua2k+TqFtEBG1ZwyGEhG1c0/99TGk/PknUk6esll38PDvePv91fjbXxd6YGRERNScpJ/3Yc7sOxGpjsDvR45aBAyMgZl1q98DAJv17hSgUmH+3Dl4beUqxE8YD5XKH4kbNmLO7Dtx7cgRNo83D9QeO3ESr61chcCA9p2F2BVkZGZh4+YtTglMCwUBm2IMjrVUQWEhtNpayOUyLHn2aRw7cRJbt223eC8487gAx48tcf0mFBQWWiwLUKkw9967sWTpcmz84qs2v2eNx/b800+assc/eOt1h58/NX4SpsZPElxnfE3mz53T7HlLXL8Jaz5ZZ7HM/KbHsoQXEamOMC1z580aIiJnYzCUiKid81Z642+LFuLhRY9Dr9fbrF+7YRP69+uDyRMnemB0RERkT0ZmFo6eOIH4CeNxKjUVaz5ZZ5FpdfpMGgCgX5/e2LN/v816dxDKlJs1e47p/41ZeE0FPn4/chSDBvSDOjzcLWMmYVptLT77aismjh/rsmvIeL0MvXqQ3QAcAIezG42EMjWPpaRgecISKBVKlx9XSxlvHuzcnYRSjQYffLzW4hiEjscYaDQP6GZkZmFxwlI8//STHj82Y1DX+jPIWCZjavwkHDtxkkFQIuoUGAwlIuoArhkxDE8tWoCV730guP7t99egT89e6B4b4+aRERGREGNg6pYp8YiNiYY6PBxHZ6YgccNGUyDh9yNHTbVCp8ZPQnZOHl5buQorliYI1hdtC6Hg1JpP1pky5JY8+7Rp+a6kZBw9nmLKnDt24iQSN2y0u92GmqeT3FbzlIRt/OIr5OTl4eEH7sfyN1Y6PBW8uSnOQtOwrcs+rFv9HrrHXrlmA1Qqh7Ibra81IYnrN7nkuNpqyOCBpqDhkmefxpJnnxY8HmMtTeuxGAOhc2bfaZruDqDJILM9xm2lpacLrhcKSvfu2dPms2bksKEWn0EZmVnY8WMS5txzV4vHRETUnjEYSkTUQcybcx9O/ZmK3Xv22Ky7dCkbCa+8ig/eeRN+vr4eGB0REZnLy8+Hr48PJo4bBwCQy2W47647UKPVmjKqrIMjM6ZNwYxpUxAeGur08RiDU8bMvrDQUKcEii5mNDR8uW7UNW3eFrWeMQt58VNPQC6TIScvz5SBqNXW4sO1n+LWW6baBNkdaXpjPg27qczQ1nR4j1RH4OjxFI8clycZb5YYM0KNzaGGDBrU6m0GBQVg2+aNFufC3jT5jMwsrHjHtub8kMEDMXH8WJxKTYVK5Y/XV72HW6bEC5bKICLqyBgMJSLqQJ56/DGknP4TOTm5NuuOHD+OJS8vw7tvvOaBkRERkbnYmGg8ufDRVjc3cVUzImNDp7T0huy6+Q/cL1grELCc6jt61EjB7f1+5CiGDBpkM2VWoylDcXEJcvJyPT79tyuIjYnG6pVvAGgIdBkMBlMNV7lchl49r8JnX211WsMfR9m7tsyzNnPy8lBdU20al3l2ZXs7LusM69a+T431UY1+O3QYkWq1xzIw7TVFAyxLZdw5a6abR0ZE5BoMhhIRdSDRUd3wt0UL8OySBMH1P+/bj38s/xdeXvKCm0dGRERC7DU3MU49t669Z92Eprnpr44yBm1OpaYiLT0dc2ffjYLCQqxa/REqKistgjqOTF0GAG1tLQoKC5Fy6jTiJ4y3yEgrKdUgLT0dR4+nYOK4cZxC70YlpRqIRCKoVP6mZRPHjcPR4yktavgTFhqK02fSBINk1tPkR48aicVPPSG4Hevp6uZZm4EBKhgMBmg0ZQhQqUwZkkJlF5x1XG1hzLBubbMoIcap6IufegLVNdV4+sWXHK61av6+vXy51KLerzl70+SNhgweiCO/7LUY04p33sXip56weF8fO3ESBw/9jgnTbm12PERE7RmDoUREHczN8ZOQln4OiZ9uEFz/9bfbERgYgKcWLnDzyIiIyNliY6Lx5fpEp2yrVKPB0eMpuG3mdHh7e5s6YhcXl+C+u+5o8fbkMhkWPfIQlixdjqSf91kEo3LycnHtNSNQUVlpkfVHbVNdUwOlQtHkY3LychGpVkOpUJqWGcs0fLhuPUo1Goeb31gHyZrSmmnyKpU/RCIRSko1iI2Jxm+HDgMQLrvgzOP6+rvvHa49etvM6U2ut1dT1ZoxQ9a8AVGpRoPXV71nCvI2VWvV2Nne3k0KoWny9oKa9qbJO8J8/I7eOCEiam8YDCUi6oCeXPgYioqLsW37DsH1n3y6EYGqAMy99x43j4yIyD2qqqtQWFSMoqIiFBYVo7C4GBqNBmVlFaisrEB5ZRUqKypQV1cPvcEAnV4H6PXQ6fXQN/7T6XTQGwzQ6/TQ6w3QGXTQ6/QwGPTQ6a48Tq/XQ6fXQa83wGDQo6ZGaxrHwkcewsL5D9sdZ1PTTwHYzbCaP1c4w6stfjt0GGFm9UgDVCo89+TjWJywVDCjTCigs271exY/B6hUGDJoEI6lpJiCUVptbWNG6Fikpp3FxYwsDBnsWJDqg48/wZrEtS08sq5jwfyHsOgR2+tNKIPYXrBv908/2yxb88k6wYY6rqZUKBGpViMnLxeBASps3LwFzz/9pCmo6arjMjYOay6AZwxANsU8+7slDZQAYOu27Th46He7ZSjcxVgL1vrcmn8uLEt4EZHqCHcPjYjIJRgMJSLqoF75+xIUXy7BgV9+FVz/xjvvIjoqEhPGj3PzyIiInOvkn6fx5+lUnD13HucunEfa2XOtykLzhJy8XMHAi6PT5J3FfCpu0s/7TMutM0+NWW7WYy7VaLDi7XcRGKBCSanluR85bCjWfLLOFPTMy89Hdm4u7rvrDiiVioa6opw661LG11GowVGpRoMPPl6LRY88ZHGtNdUMKTsnz+Zx9oKQzXVtX/PJOpu6oQsengegIbMzLDQUR4+nYOfuZEwcP9biWnH2cbladk4ewkJDHcqSTFy/CcdSUvD2a8uwZdt3bd53U9PkhZabT5M31jA11jG1l1G6KynZJjuXiKgjEnt6AERE1Hor/7UcA/r1tbv+6RdeQmZWlhtHRETkHOcvXsSq1R9iyqzbcffceVj62uv4Yuu/cfiPIx0mEGrMkBx69SCHp5Aap8k6O3ioDg/HXX+5tcmsv2MnTuKlpa8ifuKNNus0mjIAsKjXaBQYoLIIrJxKTUVURATU4eEY0Lcvjp44gYxM/i5yh+qaauTk5dlk8Pn6+OCDj9dCq61t9baXJbyII7/stfhnDGo2ZcHD85p8zshhQ02B1jtmzQDQEOhc9MxzOHbipMuPy1lKNRocS0nByGFDHXpsQWEhlicsgcrfsazppqjDwzFoQD+b12jd6vcwetRI/LzzW4vl2zZvRFBQgM2YFj3zHHYlJZuWXczMxKrVH5nOb0uCvURE7RmDoUREHZhCIcdbry6DOjxMcH19fT0eeHShm0dFRNQ6er0eu/fswex58zHjjnuQ+OkGXLqU7elhtZoxgPPS0lcxbMyNFv/mLXzc1IjEet2wMTdi0TPPOTXoK5fLMG7M9XbXG6fzL3h4HsZeP9pmfUmpBmXl5YLPNWaKBgaokJGZhY2bt2Da5HjI5TLExkRj6ODBFtmo5DoaTZlFx3WgIcA+9967kZOXhz379ze7Da22oTFWVKS6zeOZ/8D9Nlmjxp+NQbecvFwAwLTJk0wZntbH4YzjcrWt27YDALrHNl9mIEClwpJnn3a4xmlz5PKG+r07dydj+RsrodXWQqutxc7dSRbn1Sg2JhqrV75hcXPEOH7zeq3dY2Lg7e2NjV981aJgLxFRe8dp8kREHVy3blF449VX8MAjC6HT6WzWFxQW4S+z78c3mzcJPJuIqH1ITTuLJ597HtnZOW3ajre3N/x8feDr4wOVvwoSqRgSsQRisfjKP4kYYrEEYpEIErEEIrEIEokYErEYIvPHia8817hOIhZBLGl8jliCkcOG2x2LUDMU4zR4Y51A62nywJUp9O5inBpvnO5snhlmJNS8ZuePSXjrvdUAGrIG1eHhePPd922mOsdPGI/FCUsxcthQhzJeF8x/yAlH1TUJdVwHrtSH/XDdelw36hqLa84629IYxJ82Od5i+UtLX7VpFASg2exQoQZDxq7jies3Yc0n6xA/8UZs3LwFA/r2NQXoVP7+puNwxnE5k0ZThuLiEtPPu5KSseaTdViW8KLTApwtZfy82ZWUjNETJwNoaHa06JHm308ZmVk4euIEFj/1BAJUKlMmONCQrbvi7XexZ98BAI4Fe4mI2jsGQ4mIOoGhgwfj9eUv45nnXxJcn3Y2HY/89Ul8/P4qN4+MiKh5ew/8B88u+btFYyJ7lEol+vbuhQF9+yKqWyTUYWEIDw1FWHgY1GHCWfLthTEotG71e5g/d47dgKdQ4NEVzAOzyxJetKivWFFZiX/+a4WpKY2xCY359NhpU+Jxr1kX+sT1m5CTl2cTfImNicbzTz+J11auarZBj1BzIGoZY8axPdaNhoxT1I3XwMWMhpIG1kEv62ukKdbXlnVHeq22FsvfWImUU6dNHdAT12/C4oSlWLE0AadSU+Hr42PxHmjrcTmLeVOnnbuT0D02GiUlpVjw8Dy31yi1Zh14Np6z5ppjGTNFhQSoVFj8tyewZOlywSxTIqKOiMFQIqJOYvLEiSj8v2K89ubbgut/O3QYK1auwuKnn3TzyIiI7PshKRnPLkmwuz6mWzRGXTMcI/6/vTsPb6pM3zh+t+lCaWkLCi1lF8QNEJBFXNg6FGXVQUCRTbYRUXBQwZ84zMiAigsKCKgssrg7jiJSoYiAOiDgsBUEERWolLI3BSzdf390TkyapE1pmqTN93Ndc2lPTpLnnJ6TsXee931btdIN112rhg3qe7C6srNefMaYO1GSZS5EyfGK2Uvmzy33efk2b92mM2fOWcIoaxHh4Xp8/MN67h9/c+m1jMVgHHW6SlLLFs0U37mjJezy5Irl/qRli2Z2waMzRmDZs/sfq6E7GlptLK5TEuuh7I66og3GPSFJy96YZ7nORw8fojpxsZbFfqzvgbIeV1Efr1zldEGoovr17W35d+Neje/cUcvemKeX5rymByc8Xuw1XdziUq4ypi4oyjp0luQweHa0nzXroNTo1JUKO36NY9q8dZviYmMV34lFOQFUDoShAFCJDB44QKdOn9bipY6HxK947301btRQ99zd18OVAYC9n37+RVOemW63vUqVUPXucaeGDbqvwoWfBiM0kaSZ06YWGyYVXdHdU3okOA+LSiMxaV2xQajBCLsIRL3DUehetJsx7cQJXbh40WbeyOJYh2fG65X0ey0uXL2ca9KV4yqqX9/eenz8wyV+4bBw6QqbEDI2Jkb97+6jXnd0txxHYtI6p6u4O+JseoyinE0vYF1zcaGzNVf3czTHq+T89+KuzxAA8LSA8xcuFni7CACAe0155p9a+Xmi08cXL3hN7ds4n+cOAMqbOSND/QYNVdqJEzbbr2rYUG/MfUW1Y8u+eIsnZWdd8nYJlUJIaBVvl1AhcL2hIuG+BuBrWE0eACqhGX//m25p39bp4yPHPqz1G7y/8ioA/7XgzcV2QWizG67XhyuWVrggFAAAABUHYSgAVFJvvjZHVze+yunjEyY9qZWrVnuwIgAolJ2drU8+/9xmW9WqVTXr2emqUiXUS1UBAADAHxCGAkAl9sn77xQ7J9WUadP19vsfeLAiAJA+/2KtLl783Wbb8PsHKS6utpcqAgAAgL8gDAWASu7bL9coKMj5ennPv/yqFixc4vRxAHC3LzdstPk5JCRE99/b30vVAAAAwJ8QhgKAH9i15RvVvPIKp4/Pe3OhXnx1rgcrAuDPvt+5y+bndje1VlRkpJeqAQAAgD8hDAUAP7Hhi8/VtEljp48ve+dd/e2fMzxYEQB/dOiXX/X777ZD5Nve1NpL1QAAAMDfEIYCgB/593tvq10b56HDJ599rr9Ofkp5+fkerAqAP9n/40G7be3atvFCJQAAAPBHhKEA4GeWLJin7vHxTh9f99UGPfjIozqXbvZgVQD8xbFjqXbbrimma72iCAzkP6vLinPoOs4VKgquVQC+iE8mAPBDLz8/XQP7/dnp41u2bddDE/6qoykpHqwKgD/4LdU2DL2iRg2FhIR4qRr3CeAP/jLjHLqOc4WKgmsVgC/ikwkA/NTfnnxCD456wOnjyT/s19hHH9fefT94sCoAld3p06dtfo6Lq+2lStzLZArij/4yCAgMlMkU5O0yKgyuN1QE3NcAfBX/DwoAfuzhv4zRhIcedPr4kaNHNW7iE/rPlq0erApAZZZx4YLNz1fWqOGlStwviD/6LxvnrvQ4Z/B1XKMAfBVhKAD4udEPDNPjj453+viZs2c1/onJWvXFWg9WBaCyOn/+vM3PEeFVvVSJ+wUEBsoUFOztMiocU1AwXY6XgesNvoz7GoAv49MJAKDh99+n/3t8otPHs7Ky9H9T/6HZ81/3YFUAKqPz5207Q6tWDfdSJeXDZDIpOCRUgYEmb5fi8wIDC8+VycS5ulxcb/A13NcAKgL61gEAkqT7B/ZXSHCwnnluptN9Fr61TL8cPqzJj06oNPP8AfCsi7//bvNzRETlCkMlKSAgQEHBwSooCFJ+fr5UUODtknxLQIACAwMVEBDg7UoqBa43+ATuawAVCGEoAMCi/5/vUkhwsKZMm+50n/UbNunnX37V5ImP6vZbOniwOgCVQWZmps3PVUKreKmS8hcQEEB3FDyG6w0AANcwTB4AYKNv7556Yfozxe5z+MhRjZ0wUcveec9DVQGoDHLz8uy2hYQw5yEAAAA8hzAUAGCnR/cEvT7nFTVq2KDY/V58dY6mTn9WvxcZ9goAjmRnZ9ltIwwFAACAJxGGAgAcuq3DzXpj9ivq0qljsfv9e+UqjXnkr9q77wcPVQagosrKyrHbFhIS4oVKAAAA4K8IQwEATsXF1dbcl2Zq5LAhxe63a88ejXnkUa1ctdpDlQGoiHJzc+22hQQThgIAAMBzCEMBACX668MPafrUKQoPr+p0n4zz5zVl2nTNmjvPg5UBqEjy8u3nDA1kwRcAAAB4EGEoAMAld/XupTfnvKpmN1xf7H5Llr+thx97Qkd/S/FQZQAqioL8fLttAQEBXqgEAAAA/irI2wUAACqOG1s01xtzXtHMl1/RZ4lrnO638etvdfDQzxo3aqT69u7pwQqRn5+vnJwc5TtYtRtwJtBkUnBwsAIDy/d78oL8Avv3DiQMBQAAgOcQhgIASiUqMlLPPvN3NWrYULPnv+50v9TU45oybbq27dypcaNGKi6utger9D95eXn6/eJFh6t1A64KCQlV1fBwmcpp6HpegX1IHyDCUAAAAHgOw+QBAJdl9APD9MrMZ1U7JqbY/VauWq3hY8exuFI5ysrKUvq5swShKLPs7MJrKSurfK6lfDpDAQAA4GWEoQCAy9ataxctmPOKOrRrW+x+RpfolGnTlZp63EPV+Yec7GxdOJ/h7TJQyVw4n6Gc7GyPvFdAOQ/NBwAAAKzxX58AgDJpclUjLZjzigYN6F/ivnSJut+Fixe8XQIqqfK4thzNGcr8tgAAAPAkwlAAQJkFmUx66omJmjH1adWOjS12X7pE3efSpUyCJJSb/Lw8XbqU6e0yAAAAALciDAUAuE3f3j311oLX1KfHHSXuS5do2WWX07yOgIFrDAAAAJUNYSgAwK3q1q2jZ5/5u56Z8n+KqVWz2H3pEi2b3Nxcb5eASo5rDAAAAJUNYSgAoFz0u6uPlix4TT26J5S4r9El+vGnn3mgssqjoMB+/kXAnbjGAAAAUNkQhgIAyk2D+vX1wvRnNPXJSbqiRo1i901NPa6/z3hOox56RBs2feOhCgEAAAAA/oQwFABQ7gb0u1tvvTFP3ePjS9z3u+3f65HHJ2nS039X8t59HqgOAAAAAOAvCEMBAB5xVcOGevn56Zoy6TFFR0WVuH/i2iTd98AozXz5VR07luqBCgEAAAAAlV2QtwsAAPiX+/rfo5tatdL8Nxfpyw0bS9x/xfsfaPXaJA25b6AG3ztAYWFhHqgSAMquoKBA+fn5EnOv2goIUGBgoAICArxdSaXC9Qav4r4GUIEQhgIAPK5pk8Z69YXntOL9D7RwyTKdPXeu2P3Pnjun2fNfV+LaJA2+d6D63dXHQ5UCQOkVFBQoLzdX+fl53i7FZ+VJCgw0yRQURHhSRlxv8BXc1wAqCobJAwC8Zsi9A/XeW4s0+N6BLv1H808//8IiSwB8Wl5ennKyswimXJCfX3iu8vI4V5eL6w2+hvsaQEVAGAoA8Ko6deL05GOP6r23FqnnHQkuPYdFlgD4ooL8fOXl5ni7jAonLzdHBfn53i6jwuF6gy/jvgbgywhDAQA+odkN12vmP5/RvFkv6Zb27Vx6jrHI0pRp0/X9jh3lXCEAFC83L9fbJVRYnLvS45zB13GNAvBVhKEAAJ/S6fZb9eZrszV96tO65uomLj1n5arVGv6XcZow6UmGzwPwiry8XLqgyqAgP195BCcu43pDRcB9DcBXEYYCAHzSXb176t23FumvDz+kWjWvdOk56zds0iOPT9Kohx7Rqi/WlnOFAPAHgqmy4xy6jnOFioJrFYAvIgwFAPis0NBQjRw2RO++tUjDB98nk8nk0vO+2/69/m/qP3TvsBF676N/KTMzs5wrBeDv8vmDv8w4h67jXKGi4FoF4IsIQwEAPi82JkaPTxivd99apL4973T5eXt/2K8ZL7yse+4fpoVvLdPJU6fLscrKp6CgQBcv/i5zRoaysrJL/fysrOzLfm5lk5mZqT37ftChX35VXh5/GAIAAADeQhgKAKgwbrjuWs34x1S9PucVxXfp5PLzjqSkaPb813XP/UM1a+48/XL4cDlW6Zsyzp/Xe//6t86lp7v8nN+OpeqRJ/5PfQYO1g8Hfiz1e369ebP6DBysrzdvLvVzK5vTZ87q1Xlv6NPPE5WbW/b503Jzc2XOyCj1/wimAQAA4O+CvF0AAACldVuHm3Vbh5u1c88efbb6C61K/EKXLmWV+Lyz585pyfK39fb7H6pvrx7q1rWLyyvXV2SXsrK0ePk7+vTzRCXv268nJoxT9f4pAnMAACAASURBVOjoYp+Tk5OjVWvW6udff5Ukrflyva65uomqVg0rcz3p5gwdPnK01M8LNAXq6qsaKSys7DWUVspvx/T3Z1+wnA9n2t7USn+b9JiiIiPLtZ79P/6khx+fXOrnPT1porp16VwOFQEAAAAVA2EoAKDCatWihVq1aKHh99+nzxLXaFXiF0o9nlbi87Kzs/XRvz/VR//+VNc2vVqdO96mzrffrmbXX+eBqj2vSmioht9/r06dPqP/fLdVIcHBmvDQmGID0W3/3aHPEteqTeuWqhYeoTVffqVm11+nXnckKCAgoEz1pPx2TBMmP1Xq5zVu1EjPPDVJ9erWKdP7l0W9unUUU6um3fa8vDz9/It7Oo5/OPCjdu5JttseGhKirp1uV43q1Z3W8/vvmfrhwI+6uvFVioqKtNsO70hMWqfl736omdOmqkH9enaPL1y6QidPndLj4x9WaGiIFypEZZOYtE6r167TjKlTFB0V5e1y3KayHhcAwLMIQwEAFV6D+vX1yINjNHzwIK1cnajPE9do7w/7XXrugYM/6cDBn/T6orfUrk1rdel4uzp3vE316tQt56o9q3p0tP4yYqjOnjunDd98q4iIcI15YKgiq1Wz2/dISopWvP+RIqtFaOi9A1SjRg2lnTypFe9/qPp16+jG5s3KVEt0dJTGPDC01M8LDQlReHjVMr13WXXr0lnDBg20227OyNA/X3jZLe9x7PhxvfnWcrvtjRs1Uvs2N9mEoUXrSd63Xw8/PlkD+91l0wFqbIfnZWVla+fuZA0dNMBhEJpuNmtXcrJGDxvqsSB04dIVkqTRw4dYtu3as1fbd+y02WbsWycuVj0SupXqPdLNZk2ZNkOjhw1VyxZl+8xA6aSbzVq9dp16du/m84Gh9bXo6Lq05ivHlW42a96bizVuzEi7OhKT1mnn7mSbLzZKOi6p8HPi9cVv6a5ePRx+TniaKzVbS0xap2OpaS7vDwDeRhgKAKg0qkVEaPDAARo8cIC+SFqnVYlr9PV/XJ+vctv3O7Tt+x16afZr6tLx9sL/dbrdYWBYETWoV09jRw7XjJde0aov1qppk8bq0+MOm31OnT6jN5Ys1/4fD2rMA0N1w/XXKchk0qihg/X09Oe0YPFS/d9jE9Sg3uX/sVavTpzuH3BPWQ+n0nt8/Dh1vLWDJOnDf6/Ulm3fe7kiXI60EyeUvG+/Pl65Sk9Pe9bmsX59eyu+c0dt2bpdW7Zut3tuh/ZtPdYB17BBPS1ctlwLl66wBBq79uzV+o1f69Fxf7HZd9eevRrx0CN2r7Fk/lyCTx+wees2yzVV9JorTr++vS0hXmLSulI911pproM6cbE6llo4omPofQP10pzXNO6xSQ6ve3ccV1ZWtl6a85o+Xrnqsp5viAgP17w3F7utm3v9pk3asu173dWrh+WLBEefCdaM81yW35UkjR01wi7ETOjaWZOnTlPb1q2c/i6t63T0GgDgywhDAQCV0p0J3XRnQjdt/f6/+mx1olYlrlF+vmureOfl5enLDRv15YaNqlGjujrffpslHK3oWjS7QQ+OGK6cnBy7RahOnDylV+YtsPxB9uc+vRRkMkmSWt7YXEPu7a8331qu516erUmPPqKrGjbwxiH4BKMTNLZWLT3yl9EuP2/bf3foqWemSw5mGrilfTv169PL8nOVKqGWuUdDQhg6XVElfbVRQwcNUFxsbbvOSyOYWTJ/riQ57Mw0LFy6QgsWLSn1+7saUkRHRWn0sKF6ftZsJXTtrKioSC1ctlxDBw3QzW3b2O1vHdTu2rNXz8+arerRvt2F6A+OHE3R8nc/dEsw7SgELI4RjpXWyVOnlJWVrdDQEE15YqJ27dmrjz75zOa6dedxSa4fmzGFhbXoqCgNu/9eTZk2Q8vf+6DMIaBxbE9OnGDpCp338gsuP79HQjenndul6dB29Blj/aXH9KlPKS62tmWbJ7+sAQB3IwwFAFRq7dvcpPZtbtKw+wdpVeIX+mz1Fzpz9qzLzz979pz+vXKV/r1ylWJjYtTqxhZqdWMLtW55o65tenU5Vl4+AgIC1LWTfaj765GjennuPCXv26++Pe/UgyOGKaxKFcvjQSaTBva7W5L05lvLNXXG8xr/4Gi1bd3KModoyrFUm05cY5Gkbd/v0MlTpyVJVzVsqA7t7IMVf3Hi5CmdOHnK4WMtbrjBw9WgvB05mqKde/YooWtn7TtwQAsWLbHptNr/40FJ0nXXNNX6TZvsHrc2eviQcum8ctQpd/egP6axMLrwigs+tu/YqeY3XKfYmBi31wfXZWVl6+0PPlJ8547l1qFrXC+tbmxe7NQJrnY3Ghx1au5KTtaMqVMUViWs3I+rtIwvD1avTbIMm7c+BkfHYwSN1oHukaMpmjx1mp6cOMHrx2Z8vhT9DEpMWiepMHTdtWcvISiASoEwFADgF5o2aazHxj+skcOGaOPX32jDN99q49ffKC/PtW5RqXC46xdJ6/TF//4waFC/vlrd2FxtW7XSze3bOVxYx9fl5+dr0382a8Git3Ti5Cn1vrO7Rg0b7HDF9iCTSff07aPs7Bwtfec9TZ0xU/369NLggfcoLCxM6elmh3NdJn210fLvI4bc79dh6J3d/qSRQ+9XSEiw3WPBwfbbUHEZwVSvOxLUoH49xcbEaGffZC1cttwSJGzfsVM9uycoNDREPRK66Vhqmp6fNdvpQktl4SicWrBoiaVDbsoTEy3bi857uGvPXi1cZn9vG6+7KzlZPbt3Y/EnL1v+3gdKTUvTqOFDNOPFWS4PBS+pe9jRMOyi0z4smT9XDRv8cc1GR0W51N3oaI7NohYuXVEux1VWLVs0s4SGU56YqClPTCzVnKFGEDp00ADLcHdJpZ6f1/q1Dh465PBxR6F00yZN7D5r2rZuZfMZdORoij5fk6Sh99nPlQ0AFRlhKADAr0RHRemu3r10V+9eOvpbijZ+/a02fP2Ntv93Z6lf68jRozpy9Kg+XbVaknTN1U3Urk0bdWjfVre0b6egIO//32xWVrYuZV2y2RZkClLVqmE6feaMFi17W2u+/EqSNHhgfw2+t79NR2hRoaEhGnLfAEVFVtObS1fo7Q8+0pZt2zXmgaFq06qlPvvgbcu+X/9ni16aM89m7kt/D/yCgkyKrFaN0MgPpJ04oYjwcMV3KpyOIjQ0RIMH9telrCxLR1XRcKRPzzvUp+cdiqnp/i9WjHDK6OyrVbOmW4Kiw0dSJBVO8wDvMbqQJz86XqEhIUpNS7N0IBa3OI8R1BXHehh2cZ2h6WZzqeuOi62tnbuTvXJc3mR8WWJ0hBqLQ7Vs3vyyX7NGjWh98u5ym3PhbJj8kaMpmvnqHLvXaNmimeI7d9S+AwcUFRWpF2bPVa87EhxOlQEAFZn3/0oDAMBL6tetp6GD7tPQQfdp7w/7tfGbb7Tx62914OBPl/V6P/50SD/+dEgr3ntfktT2plZq2riJrm7SWNdc3URNmjQuNmgsD19v3qzpL8yy2db7zu565C+jFRQUpPMXLiqyWjU9PGak4rt0sswRWpwgk0l39+6punXiNOf1hYqMrKbGjRopKCjIMselVDjnpfFPY/vvmZkyZ2SU6ZjCq1b1iaAZKE6D+vU04aG/XPbiJuW1GJGxoNPBQ4XddcYq3o7mI7XuwOvQvq3D19u+Y6daNm9uN2TWbM7QmTPnlJp23OvDf/1Bg/r1NH/Wi5IKg66CggLLHK6hoSG6uslVevuDj9y24I+rnF1b1l2bqWlpyryUaanLurvS146raIf15d6nxvyohs1btykuNtZrHZjOFkWTbKfKGHB3Xw9XBgDlg78kAACQ1Oz669Ts+uv08F/GaMu27dq46Rtt+PZbpaYev+zX3P7fnXYdp/Xq1FXTpo3VtEljXd24MCRtUL9+Wct3qmpYmNq0bilJysnO0cGff7E8Vj06WmNHPaDs7Gw1btRQ6zZs1PQXZmnEkPs1bJDzP8hSjqUqKrKa2t3UWnNeeFYZ5y+o5pVXuFTPR598piUr3inTMb320kw1v+G6Mr0G4CnOFjcxhp4XnXvvchehcdW+Awd08NAhDRt0r06eOqXZ89/QhYsXbUIdV4YuS1JWdrZOnjql5H37ldC1s01H2rl0sw4eOqSdu5MV36kT3dAedC7drICAAEVF/fHlVHynTtq5O7lUC/7UqllT+3886DAkKzpMvkP7tpr86HiHr1N0uLp112b16CgVFBTIbM5QdFSUpUPS0bQL7jqusjA6rN15nxpD0Sc/Ol6ZlzI18amnXZ5r1fq+PXs23Wa+X2vOhskbWrZoph3fbrCpaearczT50fE29/WuPXu1Zet2de15V4n1AIAvIwwFAKCIDu3aqkO7tnpswsPa8M032vT1t9q8dbtOnzlT5tdOOfabUo79pvUbNlm2hYSEqGmTxqp55ZWKjIxU9ahIRUdFKzKymqpVi1C1atUUGVH4z2rVIlQtIkKhoaEuvd+tN7fXrTe3L3zv347p78/azuFWr06cy7Vbzy/aoV1bPThyuGpUr64a1au7/BoREeGWcNba779n6vyFCy7Nu+povk1/tWTFOw7D5ekvzLLrCEb5yLx0yeMd35cr3WzWzt3J6te3t6pWrWpZEfvMmXMaPLB/qV8vNCRE48aM1JRpM5T01UabMCo17bhubtdGFy5etOn6Q9m4cr2lph1XXGyswqr8MfezMU3D60uWKt1sdnnxm6IhWXEuZ5h8VFSkAgICdC7drAb162nz1m2SHE+74M7j+njlKpfnHu3Xt3exjzubU7Uoo0PWegGidLNZL8yeawl5i5tr1VjZ3tmXFI6GyTsLNZ0Nk3eFdf2ufnECAL6GMBQAACdCQkLUPT5e3ePjlZOTo63f/1fbd+zQ9v/u1J7kvW57n+zsbO39Yb/L+48dPVLjxoxy2/u7wmzO0Lsffaz3P/7Esi0nJ6fUIVC/Pr3Ur08vm20FBQX618pVWrz8HXW8tYOG3DugwoRL/iChz91KPZ5Wbq8/6em/a9LTfy+31y9vJd2PxQ0/leS0w2r0MMcdXmWxees21bKajzQ6KkqTJjyiyVOnOewocxToLJk/1+bn6KgotWzeXLuSky1hVFZW9v86QjvqwMGfdPhIilq2cC2kmvfmIi1YuLiUR+Y/nF1vjhbQcRb2rf3fPNHWFixa4nBBnfIWViVMcbGxSk07rurRUVr+7od6cuIES6hZXsdlLBxWUoBnBJDFse7+Ls0CSlLhaIktW7c7nYbCU4y5YIueW+vPhelTn1JcbG1PlwYA5YIwFAAAFwQHB+u2Djfrtg43S5JSj6dp83dbCwPS/+5wS9eoL8rJydGmbzdr6bvvK+W3Y6pXt44euP8+dbr9VpfmF3XFiZOntOnb/0iSbrj2mgoRhGZknNfZs+mKrVXL4ePJ+/br4ccn223/+ddfteqLtTbbGjdqpGeemqR6deuUuo6SpjQw/PjTIb25dLmqhoWVuC/cKzXtuMPgxdPD5K2H4iZ9tdGyvUH9enp/6ULLz0aXW9Ga081mzXxljqpHR+lcum0HYNvWrbRg0RJL6Jl24oSOHT+uwQP7KyysSuG8ogydLVfG79HRAkfpZrPmvblY48aMtLnWilsM6Vhqmt1+zkLIklZtX7Boid28oWNHjZBU2NlZq2ZN7dydrNVr1ym+c0eba8Xdx1XejqWmqVbNmi51SS5cukK7kpP1yvPT9eEnK8v83sUNk3e03XqYvDGHqTGPqbOO0sSkdXbduQBQERGGAgBwGeJqx+qeu/vqnv8tJrAnea/+8902bd66VTt37/FydWWXk5Oj73fu1nsffazde/dJku74U1eNGjZYNa+80m3vk5eXr/Ubv1byvv36c59eatOqldte2xNqXnmlQkNDdCnrksPH69Wt43zof4GUcuxYOVb3h2uubqKXZ0zzyHvhD0aHZKsbm7s8hLS4YbJlERsTo4F/vqvYrr9de/bq6WnPKiG+i91jZnPhwmdRUZF2YWj16CibYGXfgQOqU7u2YmNiJEmfr0nSkaMpHu049FeZlzKVmpamnt0TbLZHhIdr3puLyzScefrUp+zCRVdWbS9uzlCpMEwf8dAj6tC+rfrf3UeS/Sro5Xlc7pJuNmtXcrJLXd3pZrNOnjqlGVOn6PCRlDK/d2xMjJrfcJ2GDhpg8zty9qWLo2Hyxjnv2b2bbrj2WknS4aNH9enniXpw5AMKDQ0pVdgLAL6MMBQAADdo0byZWjRvprGjRygzM1Pbd+zUz7/8qkO//qpffv5Fh349rMzMTG+X6ZIdu3dry9Zt2n/wJ0nSLe3b6oHBg3R146sUEBDg1vc6cvSo1q7foMaNGumuXnda/sDKz8/XoV9+1e+/Z/pkR1lOTo6ys7NK3K9bl85OOzezsrI1942F+uHAQXeXBx9hBDhFF5ux5myYvPW8fO4QGhqiTrfd6vRxYzj/2FEjVCcuVjt3J9s8fi7drIzz5x0+1whHq0dH6cjRFMtQ59DQEDWoX0+tWrSwm1MU5cNszrBZcV0qDNiN+WHXb9pUYrdkVlbhwlitbmxe5noc/c5HDx+ihUtXKDFpnXokdFNqWuFChT27d7Nc70WPwx3HVd4++uQzSVLDBiWH/tFRUVaryZc9DA0N/WP+XmOYviStXptkc14NDerX0/xZLzqs/5b27SxffjSsX18HD/2i5e99oP5393E57AUAX0cYCgCAm4WFhanjrbeo46232GxPTT2uQ7/+6vMh6a49hfOh3n7LzRrw57vU7LprFRgYWObXzc3L0+nTZ1TzyitlMgUqJydHa9Z/pSMpKXp8/DjVr1vXsu+RlN80/YVZqlEjWlPiJrq8Wr2nXLh4USnHUhVXO6bc3uODjz/Vmv/NgXfi5CmFBJe9E+fixd8VWiW0VFMcNGrQqMzva8jNy9PJk7bz73Vo104t3RC6+CJHXZ5G95UxT6CjwNPo5vIUY2i80cGXmLTObh9Hi9esXpOkl+fOl1TYNRgbE6OX5rxmN9Q5oWtnTZ46TW1bt3Lpy42xo0e64aj8k6MV16U/5od9fclS3dK+nc01V3QeSGddmE9Pe9ZhqG8MeXfG0QJDxqrjC5eu0IJFS5QQ30XL3/1QN1x7raWDOCoy0nIc7jgudzKbM3TmzDnLz4lJ67Rg0RJNn/qU277AKC3j8yYxaZ06xHeXVPilyrgxJd9PR46maOeePZr86HhFR0VZwlBJ6n93H818ZY7Wb/xakmthLwD4OsJQAAA8JC6utuLiajsMSY/89pvMGRnKMGcU/jMjQ+kZGTJnnJfZnKGMjMKuLHNGhpNXd5/Ot92qEUMHqX7duk47Qc9fuKBl77yv665pqlvat1VYMXNRXrhwUV9u2KTPEtcoNqaW/jruQYWFhSn5h/36csMmdbn9NnW+/Vab96pft666x3fRm0uX68uNmzTg7rtkMpU9kL1c4eFV1SMhXnXi4iQVhrVS4R/ruXl5qhoWphGDB0mS2+bl/OnnX2x+btyo7KHk5m3b9N5H/9bDfxml1je2cOk5b8x136r0h48cVa97bDtl7+7TUz2KhC6VlREKLZk/V6OHDXUaeFoHj9bh6eVyFrpav3bRIdAXLl7UP56baVmUxliExnp4bM87EnS/1Sr0C5euUGpaml340qB+PT05cYKenzW7xAV6PL04XGW0Zet2px3Hkv1CQ8ZcoMY1YAzbLhp6ORom70zRa6voivRZWdma8eIsJe/bb1kBfeHSFZo8dZpmTpuqfQcOKCI83CZ8L+txuYv1ok6r1yapYYN6OncuXWNHjfB6d2rR4Nk4ZyUtjuWoU9QQHRWlyX8dbxlC762wFwDciTAUAAAvM0JSX3FVo4ZqUK/4zo/8/HwdTknRjt3Jatqksd3iP7l5eTp//oIk6dX5b1i216heXbl5eTKbM/Tvzz5XUFCQ+vXtrWoRETbPN5kCFd+5o7Zs364vktar/U2tdVWjhsXWlJubq4u//67AwECFhYW5bYEno+577iqcyy7z0iXt3X9AcbVj9ennX+g/323TgyOH6/prr3Hb+0nS05MmqluXzpKkZe9+oE3fbi7za+bl5evnXw/rdx/rRq7MrBefGTtqhCUUMjqwJccrZi+ZP1ehoSEKDQ0plzlEpcLV5c+cOWcJo6xFhIfr8fEP67l//M2l1zIWg3E2tL9li2aK79zREnYxf2j5aNmimV3w6Iz1HJFGiJeVlW03tNpYXKck1kPZi5v71rgnJGnZG/MsAfvo4UNUJy7WstiPcQ+447iK+njlKqcLQhXVr29vy78b92p8545a9sY8vTTnNT044fFir2l3TA9hTF1QVNEvSxwFz472s2YdlBqdulJhx69xTJu3blNcbKziO3Uq87EAgC8gDAUAwE8VFBTox58OKSQkRFc1bFCq556/cEEZGedVo0a0IiOrWV7v9Jkz2vjtZn2R9KV+/vWwJCmmVk317J6gbl06KTamlgICAvSvlav0zebvNOaBobru2qYO3yOmVk11j++ql+bM05r1X2n0sCEKDg52WtM3m7/TP557Qd3ju+iv4x5UUDmtnH7kaIq2/3eHrrm6iUJCgvXp54kKDgrSyGGDFValSrm8Z0REuBrUqyNTGQPeE/8boh5VLbKEPVFWRmgiSTOnTS02TCq6orun9EhwHhaVRmLSumKDUIMRdhGIeoej0L1oN2PaiRO6cPGibmnfzqXXtA7PjNcr6fdaXLh6OdekK8dVVL++vV1adGnh0hU2IWRsTIz6391Hve7objmOxKR1Tldxd8TV+YCdTS9gXbOrC665ut/o4UMchrfOfi/u+gwBAE8jDAUAwA9lZWfp088T9dY77+mfTz9Z6jD04sXfdfrMGV3d+CqFhoZKktZt2KQZL/4xpPqW9m11V68eatncdiXtAwd/0kefrFSHdm10Z7d4px2cAQEBuv2Wm/Xdtu/1WeJatWvdWm1at3S4b15evn76pXBYefMbri922H5ZnL9wQe//6xOdOXtOXTvdrjatWio7O0cfffqZqleP1sB+d5e5I7VO7doa88BQ1an9R7dwvz691K9PrzK9bm5urs5fuKDGjRopOoowtLyVFHC2bNGs3Do+S1JSp1pJAUfR2ksTiBCeeI8roXuD+vVc7gaWnIdnnlSaLxNc7XI1FD220NAQm05RqezXtLPPAu4VACg/hKEAAPiZQz//or9Nf0679uzVdU2vthui7ooTJ0/pzNlzqnnlFQoNKQw6r258la5rerU6tG+n7vFdFFOrpt2coydOntLSd95TVla2enZP0Nlz6Tqacszy+PkLF3T0t98sP588dVpHfvtNmZmZ+nxNkq5p2sRhvZcuXdKxY8d1RY3qatqkcamPxxWZly5p2Tvva8M33+qOP3XVre3bq2rVMP1lxFCdPXdOK97/SIGBgep/d98yvc/1117j8pD7goJ8FRQUOJ3btWj9aSdOqFq18HILiwEAAABfRxgKAICfSE1L08+//iqpcMX7+wfco3vvuVuR1QqHuRtD9rZs266bWrawmwfU8POvh/XuRx9Lkq5q2NASxDWoV1evzXrBaWfk779nasHit7Rl2/eSpKf/ab8qcXE2fPOtbu3QzjKPprWz584p5Viqml9/ver+b5Ejd8o4f16Ll7+jTz9P1HXXNNWgAf1UtWphoNigXj2NHTlcM156Rcve/UA1r7hCMbVqSZJ+OPCj3vnwXw5fMy8vT4ePHr2seqKjItW4USMlJn2pK2rUUItm1xc75DLdbNbX/9mi73fu1p86d7ysABwAAACoDAhDAQDwA5mZmVr31SZJUr26dTRu9Ei1b9NagYF/rNDesH59tbqxuXbuTta4xyaX+JrdunRWqxubW34ODAxUceu9h4VV0fXXXKMNX3+r66+9RlWrhunqq65StWoRCgkOVsMG9RUcFKzQKqGKi4mRAqQgU5CqVg3Tlxs3afoLs7R67Tq1bN5cNa+8wua1006e1M+//qo7/tTVElK6y5GUFM15faG+37FL113TVH8d96DdAlMtmt2gMcOHau36DWrapLHMGeclSd9t/17fbf++2Ne/nFXia9eOVXzn2/XmW8v10px5Lj+vXt066h7ftcR58gAAAIDKijAUAAA/EBYWpnvu6q28/DyNHjZEcbVj7fapeeUVevKvE/TxZ6v0y+EjTl8rslo13d7hZnVo37ZUCwYFBASod4/u6t2je6kXGmrbupVuu7m9fvrlF/146JBdGHrwp58VFham665p6tKQ8dKoExen1je2kCRNeHCM6tera7dPQECAOne8Tbff0kGhoSFK3rdfkjR4YH8N+LPjYfPZ2TlavPwdHTz0c6lrCjKZdN89f1bHWzpoz74flG42l/ic2jExat2yRYmLdgAAAACVGWEoAAB+4pqrm+hvkx6z6QYtKjamlsaNHlluNVzuauvRUVEaMfR+1Y6Jsev8zM7O1qWsLHW5/VbVr+d4aH9ZBJlM+nOfXrqrZw+Fh1ctdj9jioDo6CiNeWCormrYUFGRjhcrys3NVdvWLdXkqobFvq4zgYGBqle3jtPpDAAAAADYIwwFAMBPBAQEuL1r0pMaN2rocHtISIhGDr2/XN+7tCFuvTpxun/APcXuExQUpPjOHctSFgAAAIBSKm5qLwAAAAAAAACoNAhDAQAAgDIqbvoJuIZz6DrOFSoKrlUAvohPJgAAAKCMAviDv8w4h67jXKGi4FoF4Iv4ZAIAAADKyGQK4o/+MggIDJTJxHIGruJ6Q0XAfQ3AV/H/oAAAAIAbBPFH/2Xj3JUe5wy+jmsUgK8iDAUAAADcICAwUKagYG+XUeGYgoLpcrwMXG/wZdzXAHwZX9UAAAAAbmIymRQYGKi83Fzl5+d5uxyfFhhokikoSAEBAd4upcLieoOv4b4GUBEQhgIAAABuFBAQoKDgYBUUBCk/P18qKPB2Sb4lIECBgYGEJW7C9QafwH0NoAIhdssZ8QAAFxhJREFUDAUAAADKQUBAgEwmk7fLgJ/gegMAwDVM4gEAAAAAAADALxCGAgAAAAAAAPALhKEAAAAAAAAA/AJhKAAAFRSLFKC8cY0BAACgsiEMBQCgggoKYh1ElC+uMQAAAFQ2hKEAAFRQIaGh3i4BlRzXGAAAACobwlAAACqoKlXCFGgyebsMVFKBJpOqVAnzdhkAAACAWxGGAgBQgUWER3i7BFRSXFsAAACojAhDAQCowIJDQhRRLdLbZaCSiagWqeCQEG+XAQAAALgds+IDAFDBhYaGKiiohn6/eFHZ2VneLgcVWEhIqKqGh8tUTtMvBATar07PivUAAADwJMJQAAAqAZPJpGqRkcrPz1dOTo7y8/K8XRIqkECTScHBwQoM9Pygofz8Ao+/JwAAAPwXYSgAAJVIYGCgQlkBHD4q0EFnaH4BYSgAAAA8hzlDAQAA4BGBDv7TMz8/3wuVAAAAwF8RhgIAAMAjAhwNwycMBQAAgAcRhgIAAMAjHK2VxDB5AAAAeBJhKAAAADzCUWcow+QBAADgSYShAAAA8IjgIPu1O/Py8rxQCQAAAPwVYSgAAAA8IiQkxG5bVk62FyoBAACAv7L/eh4AAAAoByHBwXbbsrMqbxhaUFBQOA0A86LaCghQYGCgAhxNIovLxvUGr+K+BlCBEIYCAADAI0JDQ+22ZWfneKGS8lVQUKC83Fzl5zMFgDN5kgIDTTIFBRGelBHXG3wF9zWAioIwFAAAAB4THBysnJw/AtDsSjZMPi8vT3m5lS/gLQ/5+XnKz86TKShYJpPJ2+VUSFxv8DXc1wAqAuYMBQAAgMeEVali8/OlzEteqsT9CvLzCaYuQ15ujgry871dRoXD9QZfxn0NwJcRhgIAAMBjIqpF2PycceG8lypxv9y8XG+XUGFx7kqPcwZfxzUKwFcRhgIAAMBjIiOKhKHnL3ipEvfKy8ulC6oMCvLzlUdw4jKuN1QE3NcAfBVhKAAAADwmIqKazc8XKklnKMFU2XEOXce5QkXBtQrAFxGGAgAAwGOurFHd5ufTZ856qRL3yucP/jLjHLqOc4WKgmsVgC8iDAUAAIDH1K4da/NzWtoJL1UCAAAAf0QYCgAAAI+JKxKGZl66pLSTJ71UDQAAAPwNYSgAAAA8pnGjq+y27di5ywuVAAAAwB8RhgIAAMBjbmx+g4JMJptt2/67w0vVeEZi0jrdO3y0jhxNcfj4wqUrNOPFWcrKyvZwZaisEpPWadxjk5RuNnu7FLeqrMcFAPAswlAAAAB4TGhoqFreeKPNtnXrNyg7u3IGgVlZ2dq5O1lDBw1Qg/r17B5PN5u1KzlZPbsnKDQ0xCM1LVy6QguXrrDZtmvPXrttxr6JSetK/R7pZrPGPTZJu/bsvew6cXnSzWatXrtOPbt3U3RUlLfLKZb1tejourTmK8eVbjZrxouzHAayiUnr7L7YKOm4pMLPidnz33D6hYmnuVKztcSkdaXaHwC8LcjbBQAAAMC/tG9zk77f8Uc3qDkjQ1+sXae+vXt6sarykXbihJL37dfHK1fp6WnP2jzWr29vxXfuqC1bt2vL1u12z+3Qvq1mTJ2isCphemnOa/p45apSv3+/vr31+PiHSwxaGzaop4XLlmvh0hUaPXyIpMKAdP3Gr/XouL/Y7Ltrz16NeOgRu9dYMn+uWrZoVuoa4V6bt26zXFNFr7niWF8riUnrSvVca6W5DurExepYapokaeh9A/XSnNc07rFJmjF1il3g6Y7jysrKLvW95OgeiggP17w3F7t0b7li/aZN2rLte93Vq4fSzWZNmTbD4WeCNeM8l+V3JUljR42w3POGhK6dNXnqNLVt3crp79K6TkevAQC+jDAUAAAAHtW3551asGix8vPzLdvmvrFQf+raReHhVb1YmfslfbVRQwcNUFxsbW3fsdMmMDCCmSXz50qS3ePWpjwxUVOemFhudUZHRWn0sKF6ftZsJXTtrKioSC1ctlxDBw3QzW3b2O1vBLXRUVHatWevnp81W9WjfbsL0R8cOZqi5e9+6JZg2tUg3WCEY6V18tQpZWVlKzQ0RFOemKhde/bqo08+s7kX3HlckuvHtnDpCp08dcpmW3RUlIbdf6+mTJuh5e99UOYQ0Di2JydOsHSPz3v5BZef3yOhm3okdHP4mPE7GT1saInnbeHSFVqwaInNNusvPaZPfUpxsbUt26w/AwCgoiEMBQAAgEfFxdVWj4Ru+nzNWsu2tBMnNO35mZr5z2e8WJl7HTmaop179iiha2ftO3BACxYtsem02v/jQUnSddc01fpNm+we9wRHnXJ3Dxpq+XejC6+44GP7jp1qfsN1io2J8UjNcCwrK1tvf/CR4jt3LLdryLheWt3Y3GkAJ8nl7kaDo07NXcnJls7o8j6u0jK+PFi9NknpZrPmvbnY5hgcHY8RNFoHukeOpmjy1Gl6cuIErx+bEeoW/QwypsnokdBNu/bsJQQFUCkQhgIAAMDjxo4eodVrk1RQUGDZtnpNkuJq19aEhx70YmXuYQRTve5IUIP69RQbE6OdfZO1cNlyS5CwfcdOy1yhPRK66Vhqmp6fNVszp011OL9oWTgKpxYsWmLpkLPuOk1MWqedu5MtnXO79uzVwmXLnb5u4Zyn3Tw25ykcW/7eB0pNS9Oo4UM048VZLg8FL2mIs6Nh2EWnfVgyf64aNvjjmo2OinKpu7HotebIwqUryuW4yqpli2aW0NDo3HZ0PMZcmkVrMYLQoYMGWIa7Syo2ZHbGeK2Dhw45fNxRKN20SRO7z5q2rVvZfAYdOZqiz9ckaeh9A0tdEwD4MsJQAAAAeFyD+vU1ZsRwvbH4LZvtC99appOnTmnCQ2NVq+aVXqqu7NJOnFBEeLjiO3WSJIWGhmjwwP66lJVl6agqGo706XmH+vS8QzE1a7q9HiOcMjr7atWs6Zag6PCRwgVfbmnfrsyvhctndCFPfnS8QkNClJqWZulAzMrK1uuL39JdvXrYheyuLHpjPQy7uM7Qy1nhPS62tnbuTvbKcXmT8WWJ0RFqLA7Vsnnzy37NGjWi9cm7y23OhbNh8keOpmjmq3PsXqNli2aK79xR+w4cUFRUpF6YPVe97khwOFUGAFRkhKEAAADwikceHKPkffu0+bttNttXfp6olZ8n6s6EbuqR8Cd16dTRSxVevgb162nCQ3+57MVNymsxImNBp4OHCrvrRg8f4nCuQMl2qG+H9m0dvt72HTvVsnlzuyGzZnOGzpw5p9S0414f/usPGtSvp/mzXpRUGHQVFBRY5nANDQ3R1U2u0tsffOS2BX9c5ezasu7aTE1LU+alTEtd1t2VvnZcRTusL/c+NeZHNWzeuk1xsbFe68B0tiiaZDtVxoC7+3q4MgAoH4ShAAAA8JrZL87Uo5Oe1H+2bLV77IukdfoiaZ3CqlRR184d1aZVK113TVM1u+F6L1R6eZwtbmIMPS86997lLkLjqn0HDujgoUMaNuhenTx1SrPnv6ELFy/ahDquDF2WpKzsbJ08dUrJ+/YroWtnm460c+lmHTx0SDt3Jyu+UyeG0HvQuXSzAgICFBUVadkW36mTdu5OLtWCP7Vq1tT+Hw86DMmKDpPv0L6tJj863uHrFB2ubt21WT06SgUFBTKbMxQdFWXpkHQ07YK7jqssjA5rd96nxlD0yY+OV+alTE186mmX51q1vm/Pnk23me/XmrNh8oaWLZppx7cbbGqa+eocTX50vM19vWvPXm3Zul1de95VYj0A4MsIQwEAAOA1YVWq6I05r+pv/5yhTz773OE+mZcuafWaJK1ek2TZ1vTqJqp55RWKqBqh8IiqigiPUEREVYVXDVdEeLgiqoUrKjJKwUEmmUwmmYKCFWQyKSgoSEEmk0xBgQoyBctkMik4OKjwn0FBCgw0qUqVUE8dvstKuyCNZL/ac7rZrJ27k9Wvb29VrVrVsiL2mTPnNHhg/1LXFBoSonFjRmrKtBlK+mqjTRiVmnZcN7drowsXL9p0/aFsMi9dUliVKsXuk5p2XHGxsQqrEmbZZkzT8PqSpUo3m11e/KZoSFacyxkmHxUVqYCAAJ1LN6tB/XravLWwS9zRtAvuPK6PV65yee7Rfn17F/u4szlVizI6ZK3vy3SzWS/MnmsJeYuba9VY2d7ZlxSOhsk7CzWdDZN3hXX9rn5xAgC+hjAUAAAAXvfPv01Rm1attHjZCv1y+HCJ+x/86ZAO/uR4sRBPemjMSD00epTTx4sbfirJaYfV6GG2HV6uLkhTnM1bt6mW1Xyk0VFRmjThEU2eOs1hR5mjQGfJ/Ll2dbVs3ly7kpMtYVRWVvb/OkI76sDBn3T4SIpatnAtpJr35iItWLi4lEfmP8aOHqlxY+yvN0cL6DgL+9Z++ZXdtgWLljhcUKe8hVUJU1xsrFLTjqt6dJSWv/uhnpw4wRJqltdxGQuHlRTgGQFkcay7v0uzgJIkffTJZ9qydbvTaSg8xZgLtui5tf5cmD71KcXF1vZ0aQBQLghDAQAA4BP69uqhvr166D9btuqTz1ZpzZfrvV1SmaWmHXcYvHh6mLz1UNykrzZatjeoX0/vL11o+dnocitac7rZrJmvzFH16CidS7ftAGzbupUWLFpiCT3TTpzQsePHNXhgf4WFVSmcV5Shs+XK+D06WuAo3WzWvDcXa9yYkTbXWnGLIR1LTbPbz1kIWdKq7QsWLbGbN3TsqBGSCjs7a9WsqZ27k7V67TrFd+5oc624+7jK27HUNNWqWdOlLsmFS1doV3KyXnl+uj78ZGWZ37u4YfKOtlsPkzfmMDXmMXXWUZqYtM6uOxcAKqJAbxcAAAAAWLu1Q3u99Nx0bft6vZ6b9g91uv1WXVGjhrfLKjWjQ7LVjc1dHkJqdIC6OzyMjYnRwD/fVWzX3649e/X0tGeVEN/F7jGzOUOSbOZrNFSPjrIJVvYdOKA6tWsrNiZGN1x7rXbu2aMjR1PccBQoSealTKWmpdl18EWEh2vem4uVlZV92a89fepT2vHtBpv/GaFmccaOGlHsc9q2bmUJWvvf3UdSYdA57rFJ2rVnb7kfl7ukm83alZystq1bubTvyVOnNGPqFEVFutY1XZzYmBg1v+E6u9/Rkvlz1aF9W321+lOb7Z+8u1w1akTb1TTusUlKTFpn2Xb46FHNnv+G5fyWJuwFAF9GZygAAAB8UtWwqup9Z3f1vrO7JOn8hQv68eBBHfrlVx07lqqTp0/r1OnTOnX6jE6fPqPzFy54uWJbRoBTdLEZa86GyRed77OsQkND1Om2W50+bgznHztqhOrExWrn7mSbx8+lm5Vx/rzD5xqdotWjo3TkaIplqHNoaIga1K+nVi1a2M0pivJhNmfYrLguFQbsxvyw6zdtKrFbMiurcGGsVjc2L3M9jn7no4cP0cKlK5SYtE49EropNe24JKln926W673ocbjjuMrbR598Jklq2KDkaQaio6KsVpMv+xcFoaF/zN9rDNOXpNVrk2zOq6FB/XqaP+tFh/Xf0r6d5cuPhvXr6+ChX7T8vQ/U/+4+2pWcbDeFBwBURIShAAAAqBCqRUSoTevWatO6tdN90s1mXbxwURd+v6gLFy8qOztHeXl5ys3JLfxnfq5yc/KUm5envNz/bcvLVW5urnLz8pWfm6ec3FzlF+S5VFPb1jc5fczRPJ/WCyE5CzyNIfSeYgyNN4Y7W3eGGRwtXrN6TZJenjtfUmHXYGxMjF6a85rdUOeErp01eeo0tW3dyqWO17GjR7rhqPyToxXXpT/mh319yVLd0r6dzTVXtNvSCPF7dk+w2f70tGcdhvoldYc6WmDIWHV84dIVWrBoiRLiu2j5ux/qhmuvtXQvR0VGWo7DHcflTmZzhs6cOWf5OTFpnRYsWqLpU59y2xcYpWV83iQmrVOH+MIvkDq0b6txY0q+n44cTdHOPXs0+dHxio6KsoShUmG37sxX5mj9xq8luRb2AoCvIwwFAABApREdFeW1MKIkRii0ZP5cjR421Gng6Sh4LA/Wwez0qU/ZdNZduHhR/3hupmVRGmMRGuvhsT3vSND9VqvQL1y6QqlpaXbhS4P69fTkxAl6ftbsEhfocbQ4EEpny9btTjuOJfuFhowh6sY1cPhIYadi0dCr6DVSnKLXVtEV6bOysjXjxVlK3rffsgL6wqUrNHnqNM2cNlX7DhxQRHi4zT1Q1uNyF+tFnVavTVLDBvV07ly6xo4a4fXu1KLBs3HOSlocy1GnqCE6KkqT/zpeU6bNcNhlCgAVEWEoAAAAUE6sF58x5k6UZJkLUXK8YvaS+XMVGhpiEypdLmcdqJu3btOZM+csYZS1iPBwPT7+YT33j7+59B7GYjDOhva3bNFM8Z07WsIuT65Y7k9atmhmFzw6Y1xbPbv/sRp6Vla23dBqY3GdklgPZXfUFW0w7glJWvbGPEvAPnr4ENWJi7Us9mPcA+44rqI+XrnK6YJQRfXr29vy78a9Gt+5o5a9MU8vzXlND054vNhr2h3TQxhTFxRV9PPBUfDsaD9r1kGp0akrFXb8Gse0ees2xcXGKr5TpzIfCwD4AsJQAAAAwM2M0ESSZk6bWmyYVHRFd2vFhUpl1SPBeVhUGolJ64oNQg1G2EUg6h2OQvei3YxpJ07owsWLuqV9O5de0zo8M16vpN9rceHq5VyTrhxXUf369tbj4x8ucSGghUtX2ISQsTEx6n93H/W6o7vlOBKT1jldxd0RV+cDdja9gHXNrn4+uLrf6OFDHIa3zn4v7voMAQBPCzh/4WKBt4sAAAAAKrLsrEveLqFSCAmt4u0SKgSuN1Qk3NcAfE2gtwsAAAAAAAAAAE8gDAUAAAAAAADgFwhDAQAAAAAAAPgFwlAAAAAAAAAAfoEwFAAAAAAAAIBfIAwFAAAAAAAA4BcIQwEAAAAAAAD4BcJQAAAAoIwCA/nP6rLiHLqOc4WKgmsVgC/ikwkAAAAoowD+4C8zzqHrOFeoKLhWAfgiPpkAAACAMjKZgvijvwwCAgNlMgV5u4wKg+sNFQH3NQBfxf+DAgAAAG4QxB/9l41zV3qcM/g6rlEAvoowFAAAAHCDgMBAmYKCvV1GhWMKCqbL8TJwvcGXcV8D8GV8VQMAAAC4iclkUmBgoPJyc5Wfn+ftcnxaYKBJpqAgBQQEeLuUCovrDb6G+xpARRBw/sLFAm8XAQAAAFQ2BQUFys/Plwr4z20bAQEKDAwkLHEzrjd4Ffc1gAqEzlAAAACgHAQEBMhkMnm7DPgJrjcAAFzDJB4AAAAAAAAA/AJhKAAAAAAAAAC/QBgKAAAAAAAAwC8QhgIAAAAAAADwC4ShAAAAAAAAAPwCYSgAAAAAAAAAv0AYCgAAAAAAAMAvEIYCAAAAAAAA8AuEoQAAAAAAAAD8AmEoAAAAAAAAAL9AGAoAAAAAAADALxCGAgAAAAAAAPALhKEAAAAAAAAA/AJhKAAAAAAAAAC/QBgKAAAAAAAAwC8QhgIAAAAAAADwC4ShAAAAAAAAAPwCYSgAAAAAAAAAv0AYCgAAAAAAAMAvEIYCAAAAAAAA8AuEoQAAAAAAAAD8AmEoAAAAAAAAAL9AGAoAAAAAAADALxCGAgAAAAAAAPALhKEAAAAAAAAA/AJhKAAAAAAAAAC/QBgKAAAAAAAAwC8QhgIAAAAAAADwC4ShAAAAAAAAAPwCYSgAAAAAAAAAv0AYCgAAAAAAAMAvEIYCAAAAAAAA8AuEoQAAAAAAAAD8AmEoAAAAAAAAAL9AGAoAAAAAAADALxCGAgAAAAAAAPALhKEAAAAAAAAA/AJhKAAAAAAAAAC/QBgKAAAAAAAAwC8QhgIAAAAAAADwC4ShAAAAAAAAAPwCYSgAAAAAAAAAv0AYCgAAAAAAAMAvEIYCAAAAAAAA8Av/DwhQ5n6R5qWZAAAAAElFTkSuQmCC;" vertex="1" parent="1">
          <mxGeometry x="20" y="40" width="1347" height="606" as="geometry" />
        </mxCell>
        <mxCell id="q1YRPrVaIvEet2UCZBo6-3" value="1" style="ellipse;whiteSpace=wrap;html=1;aspect=fixed;" vertex="1" parent="1">
          <mxGeometry x="720" y="370" width="20" height="20" as="geometry" />
        </mxCell>
        <mxCell id="q1YRPrVaIvEet2UCZBo6-7" style="edgeStyle=orthogonalEdgeStyle;rounded=0;orthogonalLoop=1;jettySize=auto;html=1;entryX=0;entryY=0.5;entryDx=0;entryDy=0;curved=1;" edge="1" parent="1" source="q1YRPrVaIvEet2UCZBo6-4" target="q1YRPrVaIvEet2UCZBo6-5">
          <mxGeometry relative="1" as="geometry" />
        </mxCell>
        <mxCell id="q1YRPrVaIvEet2UCZBo6-10" style="edgeStyle=orthogonalEdgeStyle;curved=1;rounded=0;orthogonalLoop=1;jettySize=auto;html=1;entryX=0;entryY=0.5;entryDx=0;entryDy=0;" edge="1" parent="1" source="q1YRPrVaIvEet2UCZBo6-4" target="q1YRPrVaIvEet2UCZBo6-8">
          <mxGeometry relative="1" as="geometry" />
        </mxCell>
        <mxCell id="q1YRPrVaIvEet2UCZBo6-11" style="edgeStyle=orthogonalEdgeStyle;curved=1;rounded=0;orthogonalLoop=1;jettySize=auto;html=1;entryX=0;entryY=0.5;entryDx=0;entryDy=0;" edge="1" parent="1" source="q1YRPrVaIvEet2UCZBo6-4" target="q1YRPrVaIvEet2UCZBo6-9">
          <mxGeometry relative="1" as="geometry" />
        </mxCell>
        <mxCell id="q1YRPrVaIvEet2UCZBo6-4" value="Seeds 产品运营&lt;br&gt;推广目标（XX万用户）" style="rounded=1;whiteSpace=wrap;html=1;fillColor=#d5e8d4;strokeColor=#82b366;" vertex="1" parent="1">
          <mxGeometry x="80" y="800" width="140" height="60" as="geometry" />
        </mxCell>
        <mxCell id="q1YRPrVaIvEet2UCZBo6-25" style="edgeStyle=orthogonalEdgeStyle;curved=1;rounded=0;orthogonalLoop=1;jettySize=auto;html=1;entryX=0;entryY=0.5;entryDx=0;entryDy=0;" edge="1" parent="1" source="q1YRPrVaIvEet2UCZBo6-5" target="q1YRPrVaIvEet2UCZBo6-24">
          <mxGeometry relative="1" as="geometry" />
        </mxCell>
        <mxCell id="q1YRPrVaIvEet2UCZBo6-5" value="建站" style="rounded=1;whiteSpace=wrap;html=1;" vertex="1" parent="1">
          <mxGeometry x="300" y="690" width="120" height="40" as="geometry" />
        </mxCell>
        <mxCell id="q1YRPrVaIvEet2UCZBo6-15" style="edgeStyle=orthogonalEdgeStyle;curved=1;rounded=0;orthogonalLoop=1;jettySize=auto;html=1;entryX=0;entryY=0.5;entryDx=0;entryDy=0;" edge="1" parent="1" source="q1YRPrVaIvEet2UCZBo6-8" target="q1YRPrVaIvEet2UCZBo6-12">
          <mxGeometry relative="1" as="geometry" />
        </mxCell>
        <mxCell id="q1YRPrVaIvEet2UCZBo6-16" style="edgeStyle=orthogonalEdgeStyle;curved=1;rounded=0;orthogonalLoop=1;jettySize=auto;html=1;entryX=0;entryY=0.5;entryDx=0;entryDy=0;" edge="1" parent="1" source="q1YRPrVaIvEet2UCZBo6-8" target="q1YRPrVaIvEet2UCZBo6-13">
          <mxGeometry relative="1" as="geometry" />
        </mxCell>
        <mxCell id="q1YRPrVaIvEet2UCZBo6-17" style="edgeStyle=orthogonalEdgeStyle;curved=1;rounded=0;orthogonalLoop=1;jettySize=auto;html=1;entryX=0;entryY=0.25;entryDx=0;entryDy=0;" edge="1" parent="1" source="q1YRPrVaIvEet2UCZBo6-8" target="q1YRPrVaIvEet2UCZBo6-14">
          <mxGeometry relative="1" as="geometry" />
        </mxCell>
        <mxCell id="q1YRPrVaIvEet2UCZBo6-8" value="基础运营" style="rounded=1;whiteSpace=wrap;html=1;" vertex="1" parent="1">
          <mxGeometry x="300" y="810" width="120" height="40" as="geometry" />
        </mxCell>
        <mxCell id="q1YRPrVaIvEet2UCZBo6-21" style="edgeStyle=orthogonalEdgeStyle;curved=1;rounded=0;orthogonalLoop=1;jettySize=auto;html=1;entryX=0;entryY=0.5;entryDx=0;entryDy=0;" edge="1" parent="1" source="q1YRPrVaIvEet2UCZBo6-9" target="q1YRPrVaIvEet2UCZBo6-18">
          <mxGeometry relative="1" as="geometry" />
        </mxCell>
        <mxCell id="q1YRPrVaIvEet2UCZBo6-22" style="edgeStyle=orthogonalEdgeStyle;curved=1;rounded=0;orthogonalLoop=1;jettySize=auto;html=1;entryX=0;entryY=0.5;entryDx=0;entryDy=0;" edge="1" parent="1" source="q1YRPrVaIvEet2UCZBo6-9" target="q1YRPrVaIvEet2UCZBo6-19">
          <mxGeometry relative="1" as="geometry" />
        </mxCell>
        <mxCell id="q1YRPrVaIvEet2UCZBo6-23" style="edgeStyle=orthogonalEdgeStyle;curved=1;rounded=0;orthogonalLoop=1;jettySize=auto;html=1;entryX=0;entryY=0.5;entryDx=0;entryDy=0;" edge="1" parent="1" source="q1YRPrVaIvEet2UCZBo6-9" target="q1YRPrVaIvEet2UCZBo6-20">
          <mxGeometry relative="1" as="geometry" />
        </mxCell>
        <mxCell id="q1YRPrVaIvEet2UCZBo6-9" value="论坛贴吧" style="rounded=1;whiteSpace=wrap;html=1;" vertex="1" parent="1">
          <mxGeometry x="300" y="930" width="120" height="40" as="geometry" />
        </mxCell>
        <mxCell id="q1YRPrVaIvEet2UCZBo6-12" value="Google，bing，百度 SEO优化" style="rounded=1;whiteSpace=wrap;html=1;" vertex="1" parent="1">
          <mxGeometry x="470" y="780" width="230" height="20" as="geometry" />
        </mxCell>
        <mxCell id="q1YRPrVaIvEet2UCZBo6-13" value="国内社区：知乎，豆瓣，微博" style="rounded=1;whiteSpace=wrap;html=1;" vertex="1" parent="1">
          <mxGeometry x="470" y="820" width="230" height="20" as="geometry" />
        </mxCell>
        <mxCell id="q1YRPrVaIvEet2UCZBo6-14" value="国外社区：Twitter，Instagram，烂番茄" style="rounded=1;whiteSpace=wrap;html=1;" vertex="1" parent="1">
          <mxGeometry x="470" y="860" width="230" height="20" as="geometry" />
        </mxCell>
        <mxCell id="q1YRPrVaIvEet2UCZBo6-18" value="第一梯队" style="rounded=1;whiteSpace=wrap;html=1;" vertex="1" parent="1">
          <mxGeometry x="470" y="900" width="230" height="20" as="geometry" />
        </mxCell>
        <mxCell id="q1YRPrVaIvEet2UCZBo6-19" value="第二梯队" style="rounded=1;whiteSpace=wrap;html=1;" vertex="1" parent="1">
          <mxGeometry x="470" y="940" width="230" height="20" as="geometry" />
        </mxCell>
        <mxCell id="q1YRPrVaIvEet2UCZBo6-20" value="第三梯队" style="rounded=1;whiteSpace=wrap;html=1;" vertex="1" parent="1">
          <mxGeometry x="470" y="980" width="230" height="20" as="geometry" />
        </mxCell>
        <mxCell id="q1YRPrVaIvEet2UCZBo6-24" value="网站上线" style="rounded=1;whiteSpace=wrap;html=1;" vertex="1" parent="1">
          <mxGeometry x="470" y="700" width="230" height="20" as="geometry" />
        </mxCell>
        <mxCell id="q1YRPrVaIvEet2UCZBo6-26" value="1" style="ellipse;whiteSpace=wrap;html=1;aspect=fixed;fillColor=#dae8fc;strokeColor=#6c8ebf;" vertex="1" parent="1">
          <mxGeometry x="310" y="735" width="15" height="15" as="geometry" />
        </mxCell>
        <mxCell id="q1YRPrVaIvEet2UCZBo6-27" value="&lt;div style=&quot;&quot;&gt;&lt;span style=&quot;text-align: center;&quot;&gt;2022年9月&amp;nbsp; @Zhangsan&lt;/span&gt;&lt;/div&gt;" style="text;whiteSpace=wrap;html=1;" vertex="1" parent="1">
          <mxGeometry x="330" y="730" width="140" height="30" as="geometry" />
        </mxCell>
        <mxCell id="q1YRPrVaIvEet2UCZBo6-30" value="2" style="ellipse;whiteSpace=wrap;html=1;aspect=fixed;fillColor=#dae8fc;strokeColor=#6c8ebf;" vertex="1" parent="1">
          <mxGeometry x="300" y="855" width="15" height="15" as="geometry" />
        </mxCell>
        <mxCell id="q1YRPrVaIvEet2UCZBo6-31" value="&lt;div style=&quot;&quot;&gt;&lt;span style=&quot;text-align: center;&quot;&gt;2022年9月&lt;/span&gt;&lt;/div&gt;" style="text;whiteSpace=wrap;html=1;" vertex="1" parent="1">
          <mxGeometry x="320" y="850" width="70" height="30" as="geometry" />
        </mxCell>
      </root>
    </mxGraphModel>
  </diagram>
</mxfile>
